<svg xmlns="http://www.w3.org/2000/svg" width="512" height="512" shape-rendering="geometricPrecision" text-rendering="geometricPrecision" image-rendering="optimizeQuality" fill-rule="evenodd" clip-rule="evenodd"><path fill="#03a9f4" d="M30.5-.5h450c16 4.667 26.333 15 31 31v450c-4.632 15.965-14.965 26.298-31 31h-450c-16-4.667-26.333-15-31-31v-450c4.667-16 15-26.333 31-31z"/><path fill="#fefefe" d="M103.5 223.5c-.302-2.559.032-4.893 1-7 7.102 4.145 14.768 6.478 23 7 1.788 1.122 3.788 1.289 6 .5-.544-.717-1.211-1.217-2-1.5-22.275-17.633-31.108-40.633-26.5-69 1.103-7.311 3.769-13.978 8-20 34.358 41.599 78.524 64.932 132.5 70 2.524 1.3 5.191 1.3 8 0-.124-.607-.457-.94-1-1-4.426-39.387 11.907-65.887 49-79.5 26.317-5.547 49.15.953 68.5 19.5a170.634 170.634 0 0041-16c-4.914 15.6-14.414 27.766-28.5 36.5a63.16 63.16 0 0014-2 475.71 475.71 0 0124-7c-9.127 12.794-19.96 23.96-32.5 33.5.297 69.223-26.537 125.056-80.5 167.5-38.598 25.986-81.265 37.653-128 35-31.482-2.494-60.482-12.161-87-29 31.749 2.053 61.082-5.28 88-22l9-7c-27.161-2.318-46.995-15.485-59.5-39.5-1.314-2.589-1.981-5.256-2-8 6.752 1.145 13.586 1.311 20.5.5a25.777 25.777 0 008-2c-30.562-8.393-48.229-28.227-53-59.5z"/><path fill="#99dbfa" d="M252.5 202.5c.543.06.876.393 1 1-2.809 1.3-5.476 1.3-8 0 2.559.302 4.893-.032 7-1z"/><path fill="#68caf8" d="M104.5 216.5c-.968 2.107-1.302 4.441-1 7-1.3-2.524-1.3-5.191 0-8 .607.124.94.457 1 1z"/><path fill="#98dbfa" d="M131.5 222.5c.789.283 1.456.783 2 1.5-2.212.789-4.212.622-6-.5 1.599.268 2.932-.066 4-1z"/></svg>