<svg xmlns="http://www.w3.org/2000/svg" viewBox="-0.5 13.21 512 485.29" shape-rendering="geometricPrecision" text-rendering="geometricPrecision" image-rendering="optimizeQuality" fill-rule="evenodd" clip-rule="evenodd"><path fill="#030201" d="M-.5 96.5v-13c4.257-7.9 10.923-11.567 20-11a1088.085 1088.085 0 0164 6.5c9.438 4.62 12.938 12.12 10.5 22.5a44.919 44.919 0 01-5.5 9.5 1579.77 1579.77 0 0015 34.5l11 1c19.668-.705 39.335-1.371 59-2a525.252 525.252 0 01-1.5-48c1.251-2.88 3.417-4.714 6.5-5.5a307.052 307.052 0 0018.5-3.5c-4.02-35.937 10.813-60.104 44.5-72.5 29.686-6.111 52.853 3.389 69.5 28.5 4.206 7.825 6.706 16.159 7.5 25a929.513 929.513 0 0017.5-2c2.917-.165 5.583.501 8 2 27.695-7.153 47.695 2.18 60 28a131.28 131.28 0 003.5 12 43.765 43.765 0 0116-1.5 11.532 11.532 0 014.5 3.5 1591.447 1591.447 0 017.5 26.5 460.38 460.38 0 0031 0c6.833 1.157 11.333 4.99 13.5 11.5.984 44.726.651 89.392-1 134-2.562 5.561-6.728 9.394-12.5 11.5a1798.332 1798.332 0 01-48 8 3.647 3.647 0 00-1 1.5c4.182 11.297.848 19.463-10 24.5a41584.461 41584.461 0 01-163 27c-9.717 1.773-17.884 6.273-24.5 13.5l-17.5 25c78.331.833 156.665 1.333 235 1.5 11.554 6.627 14.054 15.794 7.5 27.5-1.938 2.606-4.438 4.439-7.5 5.5l-22 1c10.395 10.395 14.228 22.895 11.5 37.5-5.518 20.011-18.685 30.678-39.5 32-28.834-4.335-41.667-21.002-38.5-50 1.912-7.66 5.745-14.16 11.5-19.5a3362.569 3362.569 0 00-116 0c13.043 13.955 15.876 29.788 8.5 47.5-11.714 18.606-28.214 25.106-49.5 19.5-20.107-9.043-28.607-24.543-25.5-46.5 1.633-8.102 5.466-14.936 11.5-20.5l-17-1c-15.665-7.657-19.832-19.491-12.5-35.5a994.612 994.612 0 0024-35 103.613 103.613 0 0116.5-19.5c-14.317-.573-25.484-6.74-33.5-18.5l-89-204a11.339 11.339 0 00-3.5-1.5 5362.86 5362.86 0 01-62-6c-6.442-1.617-10.775-5.45-13-11.5zm252-73c27.247-.904 45.413 11.43 54.5 37a33.725 33.725 0 011.5 11 2895.593 2895.593 0 00-98 15c-5.032-23.432 2.301-41.932 22-55.5 6.378-3.621 13.045-6.121 20-7.5zm104 53c22.883.223 36.216 11.556 40 34a895.602 895.602 0 00-34 5l-3-1a2605.012 2605.012 0 01-9-34.5 3.944 3.944 0 011-2c1.882-.198 3.548-.698 5-1.5zm101 71a40.914 40.914 0 019 .5c2.167.833 3.667 2.333 4.5 4.5.667 26 .667 52 0 78a3276.589 3276.589 0 00-26-59 477.18 477.18 0 01-5.5-23c6.19.323 12.19-.01 18-1zm-279 66a1415.932 1415.932 0 01-25-56 75.52 75.52 0 0122-2 3381.653 3381.653 0 013 58zm-54-57h17a17018.958 17018.958 0 0039.5 93 1511.08 1511.08 0 005 60c6.066 9.438 14.399 12.105 25 8a37.914 37.914 0 012.5 8 93.8 93.8 0 01-20 .5c-6.546-2.018-11.713-5.852-15.5-11.5A32944.037 32944.037 0 00108.5 158c5.184-.174 10.184-.674 15-1.5zm338 84a224.744 224.744 0 018.5 18 72.464 72.464 0 010 17c-.69 2.696-2.19 4.863-4.5 6.5a47.462 47.462 0 01-12 3.5c-1.236-1.534-1.736-3.2-1.5-5 12.198-1.879 16.865-8.879 14-21a392.653 392.653 0 01-4.5-19zm-23 41c1.225 1.437 2.225 3.104 3 5a684.506 684.506 0 01-25.5 5 11.821 11.821 0 01-3.5-4.5 364.809 364.809 0 0126-5.5zm-43 7c3.955-.637 6.622.863 8 4.5-8.915 2.489-17.915 3.656-27 3.5a18.08 18.08 0 00-2-3.5 606.448 606.448 0 0121-4.5zm-39 6c4.275-.774 7.275.726 9 4.5a746.467 746.467 0 01-26.5 5.5c-1.411-2.15-2.245-4.484-2.5-7 6.892-.373 13.558-1.373 20-3zm-39 6c2.747-.313 5.414.02 8 1a9.108 9.108 0 011 5 195.097 195.097 0 00-25 4c-1.827-1.987-2.827-4.321-3-7 6.564-.364 12.897-1.364 19-3zm-33 5c.996-.086 1.829.248 2.5 1 .837 1.851 1.671 3.684 2.5 5.5a679.563 679.563 0 00-25.5 4.5 22.723 22.723 0 01-4.5-6.5 247.986 247.986 0 0025-4.5zm-38 6c2.231 1.576 3.897 3.743 5 6.5l-25 4.5a4.933 4.933 0 01-2.5-1 14.444 14.444 0 00-2.5-5.5 436.602 436.602 0 0025-4.5z" opacity=".958"/><path fill="#f5c84b" d="M159.5 44.5c3.022 8.019 8.689 13.352 17 16-8.032 3.199-13.532 8.865-16.5 17-2.942-8.11-8.442-13.776-16.5-17 8.351-2.352 13.685-7.685 16-16z" opacity=".942"/><path fill="#d7af42" d="M322.5 78.5c1.699-.16 3.366.007 5 .5-2.719 1.597-4.886 3.763-6.5 6.5-.815-2.698-.315-5.031 1.5-7z"/><path fill="#f2c54b" d="M199.5 144.5h-15c.295-2.235-.039-4.235-1-6a1818.537 1818.537 0 01-2-38 322.587 322.587 0 0119-2 224.318 224.318 0 002.5 17c3.294 2.811 6.294 2.478 9-1a98.83 98.83 0 00-1.5-14c.149-1.82.816-3.32 2-4.5a2981.418 2981.418 0 0198-14.5c.692 6.218 2.025 12.218 4 18a196.31 196.31 0 00-3 24 179.138 179.138 0 00-15 3.5 11.532 11.532 0 00-3.5 4.5 60.931 60.931 0 00-.5 11 4584.57 4584.57 0 00-93 2z"/><path fill="#f5627a" d="M14.5 82.5a1394.333 1394.333 0 0165 6.5c3.712 2.513 4.878 6.013 3.5 10.5-2.536 3.266-5.87 4.6-10 4A2381.258 2381.258 0 0114.5 98c-6.6-5.212-6.6-10.38 0-15.5z"/><path fill="#eec249" d="M337.5 82.5c.996-.086 1.829.248 2.5 1a263.523 263.523 0 017.5 35c-7.227.51-14.393 1.51-21.5 3-1.658-.175-2.991-.842-4-2-1.429-10.283.904-19.616 7-28 3.038-2.87 5.871-5.87 8.5-9z"/><path fill="#fc657d" d="M125.5 98.5c6.869.038 9.369 3.371 7.5 10-3.667 4-7.333 4-11 0-1.419-4.418-.252-7.751 3.5-10z" opacity=".889"/><path fill="#f5627a" d="M410.5 117.5c3.277-.284 6.443.049 9.5 1a216.047 216.047 0 014.5 20 31121.38 31121.38 0 00-99 2 19.522 19.522 0 00-1-7.5c.405-.945 1.072-1.612 2-2a2673.745 2673.745 0 0172-10.5 56.444 56.444 0 002 12c6.012 3.732 9.012 2.066 9-5a41.851 41.851 0 00-1-7c.442-1.239 1.109-2.239 2-3z"/><path fill="#ea5e75" d="M310.5 133.5c1.644-.214 3.144.12 4.5 1 .497 2.31.663 4.643.5 7h-13v-7c2.885.306 5.552-.027 8-1z"/><path fill="#58481b" d="M183.5 138.5c.961 1.765 1.295 3.765 1 6h15c-5.14.988-10.474 1.321-16 1v-7z"/><path fill="#f7637b" d="M393.5 148.5c9.916-.319 19.75.014 29.5 1a416.533 416.533 0 0111 25 9078.362 9078.362 0 0022.5 91c-.029 1.529-.696 2.696-2 3.5-3.26.784-6.427.617-9.5-.5a3874.786 3874.786 0 01-51.5-120z"/><path fill="#f9637c" d="M371.5 149.5c3.937-.293 7.77.04 11.5 1l52.5 121c-9.339 2.332-18.673 3.665-28 4a30244.922 30244.922 0 01-55-124.5 177.566 177.566 0 0019-1.5z"/><path fill="#f8637c" d="M312.5 150.5a225.771 225.771 0 0130 1l53.5 123c.749 1.135.583 2.135-.5 3-8.869 2.648-17.869 3.648-27 3a16125.273 16125.273 0 01-56-130z"/><path fill="#efc34a" d="M296.5 203.5c.237 1.291-.096 2.291-1 3a2698.85 2698.85 0 00-23-53 111.148 111.148 0 0121-1 1189.378 1189.378 0 013 51z"/><path fill="#f2c54b" d="M245.5 152.5a64.873 64.873 0 0116 1l37.5 85a898.833 898.833 0 004.5 53.5c-3.672 1.285-7.339 1.452-11 .5a11923.473 11923.473 0 00-61-138.5c4.851-.174 9.518-.674 14-1.5zm-54 2a225.771 225.771 0 0130 1 3836.674 3836.674 0 0160 140c-9.129 2.284-18.295 3.284-27.5 3a40562.321 40562.321 0 01-62.5-144z"/><path fill="#f8637c" d="M304.5 159.5a8949.953 8949.953 0 0150.5 114 36.487 36.487 0 013.5 11 282.642 282.642 0 00-23.5 3l-4.5-1-20.5-47a3217.28 3217.28 0 01-5.5-80z"/><path fill="#f1c54a" d="M187.5 170.5c18.985 43.307 37.985 86.641 57 130a177.133 177.133 0 01-24.5 5c-2.575.41-4.242-.59-5-3a2847.115 2847.115 0 00-24-55 2116.943 2116.943 0 01-4.5-71c-.295-2.235.039-4.235 1-6z"/><path fill="#806827" d="M187.5 170.5c-.961 1.765-1.295 3.765-1 6-1.141-3.14-1.308-6.473-.5-10 .41 1.401.91 2.734 1.5 4z"/><path fill="#7e6727" d="M296.5 203.5c1.122 1.788 1.289 3.788.5 6-1.039-.744-1.539-1.744-1.5-3 .904-.709 1.237-1.709 1-3z"/><path fill="#87d146" d="M111.5 272.5c6.869.038 9.369 3.371 7.5 10-3.667 4-7.333 4-11 0-1.419-4.418-.252-7.751 3.5-10z" opacity=".889"/><path fill="#ed5f76" d="M311.5 269.5c3.753 6.232 6.753 12.898 9 20-2.568.95-5.068.95-7.5 0a202.297 202.297 0 01-1.5-20z"/><path fill="#ecc149" d="M194.5 279.5a357.854 357.854 0 0111 28c-4.074 1.952-7.574 1.285-10.5-2a604.492 604.492 0 01-1.5-20c-.295-2.235.039-4.235 1-6z"/><path fill="#58471b" d="M194.5 279.5c-.961 1.765-1.295 3.765-1 6-1.138-2.804-1.305-5.804-.5-9l1.5 3z"/><path fill="#d6e1ec" d="M396.5 304.5c8.816-2.006 12.65 1.327 11.5 10-.833 1.5-2 2.667-3.5 3.5a17840.807 17840.807 0 00-161 26c-12.423 2.434-22.923 8.268-31.5 17.5l-25 36c-.687 2.42-.187 4.587 1.5 6.5l245 1c6.117 3.913 6.451 8.246 1 13-86.333.667-172.667.667-259 0-7.28-3.731-9.78-9.565-7.5-17.5l31-45c10.184-12.341 23.017-20.508 38.5-24.5a9880.74 9880.74 0 00159-26.5z"/><path fill="#6fd6f9" d="M511.5 318.5v8c-2.746 1.626-5.746 2.293-9 2 1.049 5.593-1.117 8.926-6.5 10-4.982-1.399-6.815-4.732-5.5-10-5.601 1.436-8.934-.564-10-6 1.066-5.436 4.399-7.436 10-6-.783-8.74 2.717-11.407 10.5-8 1.252 2.514 1.752 5.18 1.5 8 3.254-.293 6.254.374 9 2z" opacity=".962"/><path fill="#f4c74c" d="M473.5 354.5c6.869.038 9.369 3.371 7.5 10-3.667 4-7.333 4-11 0-1.419-4.418-.252-7.751 3.5-10z" opacity=".924"/><path fill="#27559a" d="M211.5 428.5c16.953-1.112 28.453 6.221 34.5 22 3.074 18.886-4.426 31.053-22.5 36.5-18.141 2.51-29.975-4.99-35.5-22.5-1.547-18.261 6.286-30.261 23.5-36z"/><path fill="#28569b" d="M382.5 428.5c17.513-1.171 29.013 6.496 34.5 23 1.354 25.646-10.813 37.479-36.5 35.5-16.719-5.924-23.886-17.757-21.5-35.5 3.787-11.956 11.621-19.622 23.5-23z"/><path fill="#010204" d="M210.5 441.5c18.192-1.649 25.692 6.351 22.5 24-6.73 10.528-15.563 12.695-26.5 6.5-6.486-6.98-7.653-14.814-3.5-23.5a72.667 72.667 0 017.5-7z"/><path fill="#020306" d="M381.5 441.5c18.138-1.701 25.638 6.299 22.5 24-4.809 8.385-11.976 11.551-21.5 9.5-12.711-6.898-15.211-16.398-7.5-28.5a63.382 63.382 0 006.5-5z"/><path fill="#4e89d0" d="M215.5 450.5c7.185.348 10.019 4.015 8.5 11-5.167 5.592-9.833 5.259-14-1-.523-4.62 1.31-7.953 5.5-10z"/><path fill="#4f8bd3" d="M384.5 451.5c7.663-1.458 11.163 1.542 10.5 9-3.532 5.79-7.865 6.457-13 2-2.408-4.466-1.575-8.133 2.5-11z"/></svg>342.5,151.5C 360.333,192.5 378.167,233.5 396,274.5C 396.749,275.635 396.583,276.635 395.5,277.5C 386.631,280.148 377.631,281.148 368.5,280.5C 349.633,237.225 330.966,193.891 312.5,150.5 Z"/></g>
<g><path style="opacity:1" fill="#efc34a" d="M 296.5,203.5 C 296.737,204.791 296.404,205.791 295.5,206.5C 288.035,188.78 280.368,171.113 272.5,153.5C 279.468,152.503 286.468,152.17 293.5,152.5C 294.865,169.476 295.865,186.476 296.5,203.5 Z"/></g>
<g><path style="opacity:1" fill="#f2c54b" d="M 245.5,152.5 C 250.875,152.172 256.208,152.505 261.5,153.5C 274,181.833 286.5,210.167 299,238.5C 299.972,256.434 301.472,274.268 303.5,292C 299.828,293.285 296.161,293.452 292.5,292.5C 272.454,246.192 252.121,200.025 231.5,154C 236.351,153.826 241.018,153.326 245.5,152.5 Z"/></g>
<g><path style="opacity:1" fill="#f2c54b" d="M 191.5,154.5 C 201.522,154.168 211.522,154.501 221.5,155.5C 242.543,202.042 262.543,248.708 281.5,295.5C 272.371,297.784 263.205,298.784 254,298.5C 233.064,250.517 212.23,202.517 191.5,154.5 Z"/></g>
<g><path style="opacity:1" fill="#f8637c" d="M 304.5,159.5 C 321.558,197.292 338.391,235.292 355,273.5C 356.759,277.009 357.926,280.675 358.5,284.5C 350.629,285.171 342.796,286.171 335,287.5C 333.5,287.167 332,286.833 330.5,286.5C 323.667,270.833 316.833,255.167 310,239.5C 307.834,212.854 306.001,186.187 304.5,159.5 Z"/></g>
<g><path style="opacity:1" fill="#f1c54a" d="M 187.5,170.5 C 206.485,213.807 225.485,257.141 244.5,300.5C 236.545,302.725 228.378,304.391 220,305.5C 217.425,305.91 215.758,304.91 215,302.5C 207.194,284.084 199.194,265.751 191,247.5C 189.102,223.854 187.602,200.187 186.5,176.5C 186.205,174.265 186.539,172.265 187.5,170.5 Z"/></g>
<g><path style="opacity:1" fill="#806827" d="M 187.5,170.5 C 186.539,172.265 186.205,174.265 186.5,176.5C 185.359,173.36 185.192,170.027 186,166.5C 186.41,167.901 186.91,169.234 187.5,170.5 Z"/></g>
<g><path style="opacity:1" fill="#7e6727" d="M 296.5,203.5 C 297.622,205.288 297.789,207.288 297,209.5C 295.961,208.756 295.461,207.756 295.5,206.5C 296.404,205.791 296.737,204.791 296.5,203.5 Z"/></g>
<g><path style="opacity:0.889" fill="#87d146" d="M 111.5,272.5 C 118.369,272.538 120.869,275.871 119,282.5C 115.333,286.5 111.667,286.5 108,282.5C 106.581,278.082 107.748,274.749 111.5,272.5 Z"/></g>
<g><path style="opacity:1" fill="#ed5f76" d="M 311.5,269.5 C 315.253,275.732 318.253,282.398 320.5,289.5C 317.932,290.45 315.432,290.45 313,289.5C 312.169,282.854 311.669,276.187 311.5,269.5 Z"/></g>
<g><path style="opacity:1" fill="#ecc149" d="M 194.5,279.5 C 198.562,288.687 202.229,298.02 205.5,307.5C 201.426,309.452 197.926,308.785 195,305.5C 194.389,298.836 193.889,292.17 193.5,285.5C 193.205,283.265 193.539,281.265 194.5,279.5 Z"/></g>
<g><path style="opacity:1" fill="#58471b" d="M 194.5,279.5 C 193.539,281.265 193.205,283.265 193.5,285.5C 192.362,282.696 192.195,279.696 193,276.5C 193.513,277.527 194.013,278.527 194.5,279.5 Z"/></g>
<g><path style="opacity:1" fill="#d6e1ec" d="M 396.5,304.5 C 405.316,302.494 409.15,305.827 408,314.5C 407.167,316 406,317.167 404.5,318C 350.789,326.422 297.122,335.089 243.5,344C 231.077,346.434 220.577,352.268 212,361.5C 203.667,373.5 195.333,385.5 187,397.5C 186.313,399.92 186.813,402.087 188.5,404C 270.167,404.333 351.833,404.667 433.5,405C 439.617,408.913 439.951,413.246 434.5,418C 348.167,418.667 261.833,418.667 175.5,418C 168.22,414.269 165.72,408.435 168,400.5C 178.333,385.5 188.667,370.5 199,355.5C 209.184,343.159 222.017,334.992 237.5,331C 290.709,322.576 343.709,313.743 396.5,304.5 Z"/></g>
<g><path style="opacity:0.962" fill="#6fd6f9" d="M 511.5,318.5 C 511.5,321.167 511.5,323.833 511.5,326.5C 508.754,328.126 505.754,328.793 502.5,328.5C 503.549,334.093 501.383,337.426 496,338.5C 491.018,337.101 489.185,333.768 490.5,328.5C 484.899,329.936 481.566,327.936 480.5,322.5C 481.566,317.064 484.899,315.064 490.5,316.5C 489.717,307.76 493.217,305.093 501,308.5C 502.252,311.014 502.752,313.68 502.5,316.5C 505.754,316.207 508.754,316.874 511.5,318.5 Z"/></g>
<g><path style="opacity:0.924" fill="#f4c74c" d="M 473.5,354.5 C 480.369,354.538 482.869,357.871 481,364.5C 477.333,368.5 473.667,368.5 470,364.5C 468.581,360.082 469.748,356.749 473.5,354.5 Z"/></g>
<g><path style="opacity:1" fill="#27559a" d="M 211.5,428.5 C 228.453,427.388 239.953,434.721 246,450.5C 249.074,469.386 241.574,481.553 223.5,487C 205.359,489.51 193.525,482.01 188,464.5C 186.453,446.239 194.286,434.239 211.5,428.5 Z"/></g>
<g><path style="opacity:1" fill="#28569b" d="M 382.5,428.5 C 400.013,427.329 411.513,434.996 417,451.5C 418.354,477.146 406.187,488.979 380.5,487C 363.781,481.076 356.614,469.243 359,451.5C 362.787,439.544 370.621,431.878 382.5,428.5 Z"/></g>
<g><path style="opacity:1" fill="#010204" d="M 210.5,441.5 C 228.692,439.851 236.192,447.851 233,465.5C 226.27,476.028 217.437,478.195 206.5,472C 200.014,465.02 198.847,457.186 203,448.5C 205.396,445.933 207.896,443.6 210.5,441.5 Z"/></g>
<g><path style="opacity:1" fill="#020306" d="M 381.5,441.5 C 399.638,439.799 407.138,447.799 404,465.5C 399.191,473.885 392.024,477.051 382.5,475C 369.789,468.102 367.289,458.602 375,446.5C 377.326,444.934 379.492,443.268 381.5,441.5 Z"/></g>
<g><path style="opacity:1" fill="#4e89d0" d="M 215.5,450.5 C 222.685,450.848 225.519,454.515 224,461.5C 218.833,467.092 214.167,466.759 210,460.5C 209.477,455.88 211.31,452.547 215.5,450.5 Z"/></g>
<g><path style="opacity:1" fill="#4f8bd3" d="M 384.5,451.5 C 392.163,450.042 395.663,453.042 395,460.5C 391.468,466.29 387.135,466.957 382,462.5C 379.592,458.034 380.425,454.367 384.5,451.5 Z"/></g>
</svg>