<svg xmlns="http://www.w3.org/2000/svg" width="512" height="512" shape-rendering="geometricPrecision" text-rendering="geometricPrecision" image-rendering="optimizeQuality" fill-rule="evenodd" clip-rule="evenodd"><path fill="#475993" d="M56.5-.5h398c30.667 7.333 49.667 26.333 57 57v398c-7.333 30.667-26.333 49.667-57 57h-122v-183c21.336.167 42.669 0 64-.5 6.167-.833 9.667-4.333 10.5-10.5 2.35-18.98 4.516-37.98 6.5-57 .727-6.388-1.94-10.554-8-12.5-24.331-.5-48.664-.667-73-.5-.167-20.336 0-40.669.5-61 1.72-14.72 9.887-23.22 24.5-25.5a671.459 671.459 0 0146-2c4.27-1.27 6.77-4.104 7.5-8.5a702.15 702.15 0 000-53c-.833-4.833-3.667-7.667-8.5-8.5a930.454 930.454 0 00-61 0c-49.326 4.899-78.159 31.732-86.5 80.5a1098.838 1098.838 0 00-1.5 78 488.135 488.135 0 00-53 1.5c-3.053 2.051-4.886 4.885-5.5 8.5a571.99 571.99 0 001 64c2.216 3.527 5.383 5.694 9.5 6.5 15.997.5 31.997.667 48 .5v183h-197c-30.667-7.333-49.667-26.333-57-57v-398c7.333-30.667 26.333-49.667 57-57z" opacity=".996"/></svg>