<svg xmlns="http://www.w3.org/2000/svg" width="512" height="512" shape-rendering="geometricPrecision" text-rendering="geometricPrecision" image-rendering="optimizeQuality" fill-rule="evenodd" clip-rule="evenodd"><path fill="#f34e54" d="M117.5-.5h14a2709.389 2709.389 0 0157 67 361.45 361.45 0 00-21 2 7739.258 7739.258 0 01-57-66.5c.556-.383.889-.883 1-1.5 2.235.295 4.235-.039 6-1z" opacity=".998"/><path fill="#f04c5a" d="M131.5-.5h23a2621.914 2621.914 0 0156 66c-3.213-.31-6.213.023-9 1h-13a2709.389 2709.389 0 00-57-67z"/><path fill="#ed4a60" d="M154.5-.5h23l56 66h-23a2621.914 2621.914 0 00-56-66z"/><path fill="#ea4967" d="M177.5-.5h27a1723.065 1723.065 0 0056 65.5c-8.994.5-17.994.666-27 .5l-56-66z"/><path fill="#e7486e" d="M204.5-.5h23a2596.808 2596.808 0 0056 66c-5.195-.32-10.195.013-15 1h-67c2.787-.977 5.787-1.31 9-1h23c9.006.166 18.006 0 27-.5a1723.065 1723.065 0 01-56-65.5z"/><path fill="#e44573" d="M227.5-.5h22a5196.287 5196.287 0 0057 65.5c-7.659.5-15.326.666-23 .5a2596.808 2596.808 0 01-56-66z"/><path fill="#e14479" d="M249.5-.5h23c18.977 21.98 37.977 43.98 57 66a13.118 13.118 0 01-7 1h-54c4.805-.987 9.805-1.32 15-1 7.674.166 15.341 0 23-.5a5196.287 5196.287 0 01-57-65.5z"/><path fill="#dd4380" d="M272.5-.5h27a5211.499 5211.499 0 0155.5 65c2.464 2.981 5.297 5.314 8.5 7a393.047 393.047 0 00-41-5 13.118 13.118 0 007-1 292419.05 292419.05 0 01-57-66z"/><path fill="#da4187" d="M299.5-.5h23a4289.316 4289.316 0 0072 84 145.557 145.557 0 00-31-12c-3.203-1.686-6.036-4.019-8.5-7a5211.499 5211.499 0 00-55.5-65z"/><path fill="#d73f8c" d="M322.5-.5h20a23590.319 23590.319 0 00169 195v23a4938.88 4938.88 0 00-78-88c-7.955-19.621-20.955-34.954-39-46a4289.316 4289.316 0 01-72-84z" opacity=".999"/><path fill="#d53d90" d="M342.5-.5h13a20116.81 20116.81 0 00156 180v15a23590.319 23590.319 0 01-169-195z" opacity=".999"/><path fill="#d33d93" d="M355.5-.5h13a16890.16 16890.16 0 00143 165v15a20116.81 20116.81 0 01-156-180z" opacity=".999"/><path fill="#d13b98" d="M368.5-.5h27a17300.514 17300.514 0 00116 135v30a16890.16 16890.16 0 01-143-165z" opacity=".997"/><path fill="#f64f4e" d="M111.5.5c-.111.617-.444 1.117-1 1.5a7739.258 7739.258 0 0057 66.5 348.07 348.07 0 00-23 4 2798.537 2798.537 0 01-58-68c8.088-2.057 16.421-3.39 25-4z" opacity=".995"/><path fill="#cd3a9f" d="M395.5-.5h8a285.286 285.286 0 0018 3 19.169 19.169 0 002.5 5 11935 11935 0 0187.5 100v27a17300.514 17300.514 0 01-116-135z" opacity=".994"/><path fill="#cb38a3" d="M421.5 2.5c4.933.76 9.599 2.093 14 4a8090.929 8090.929 0 0071 83.5 2.427 2.427 0 002 .5 593.736 593.736 0 013 15v2A11935 11935 0 00424 7.5a19.169 19.169 0 01-2.5-5z" opacity=".992"/><path fill="#fa5147" d="M86.5 4.5a2798.537 2798.537 0 0058 68 100.555 100.555 0 00-18 6 2886.218 2886.218 0 00-59-69 79.824 79.824 0 0119-5z" opacity=".996"/><path fill="#c937a7" d="M435.5 6.5c40.09 14.108 64.423 42.108 73 84a2.427 2.427 0 01-2-.5 8090.929 8090.929 0 01-71-83.5z" opacity=".987"/><path fill="#fd5341" d="M67.5 9.5a2886.218 2886.218 0 0159 69l-16 8a2886.449 2886.449 0 00-59-69 89.656 89.656 0 0116-8z" opacity=".995"/><path fill="#ff593f" d="M51.5 17.5a2886.449 2886.449 0 0159 69 178.81 178.81 0 00-17 15 2974.87 2974.87 0 00-61-69 69.195 69.195 0 0119-15z" opacity=".997"/><path fill="#ff6040" d="M32.5 32.5a2974.87 2974.87 0 0161 69 98.134 98.134 0 01-8 11 1932.706 1932.706 0 01-59.5-68c-.67-.752-1.504-1.086-2.5-1a71.056 71.056 0 019-11z" opacity=".996"/><path fill="#ff6741" d="M23.5 43.5c.996-.086 1.83.248 2.5 1a1932.706 1932.706 0 0059.5 68l-8 16-63-72c1.837-5.165 4.837-9.499 9-13z" opacity=".996"/><path fill="#ff6d42" d="M14.5 56.5l63 72a66.128 66.128 0 00-5 15 6634.329 6634.329 0 01-62.5-72c-.67-.752-1.504-1.086-2.5-1a68.7 68.7 0 017-14z" opacity=".996"/><path fill="#fffefd" d="M188.5 66.5h134a393.047 393.047 0 0141 5 145.557 145.557 0 0131 12c18.045 11.046 31.045 26.379 39 46a130.891 130.891 0 019 36 216.934 216.934 0 012 33v111a256.49 256.49 0 01-1 25 1560.254 1560.254 0 01-3 23 268.969 268.969 0 01-6 22 113.453 113.453 0 01-9 18 190.792 190.792 0 01-11 15 103.042 103.042 0 00-13 11 139.96 139.96 0 01-20 10 189.61 189.61 0 01-13 4 432.176 432.176 0 01-18 4 148.616 148.616 0 01-18 2c-5.991.466-11.991.799-18 1h-125a546.419 546.419 0 00-26-2 437.784 437.784 0 00-24-5c-14.766-4.717-28.1-12.05-40-22a120.958 120.958 0 01-13-16c-8.256-14.11-13.922-29.11-17-45a229.626 229.626 0 00-2-20 395.327 395.327 0 01-1-22v-134a106.268 106.268 0 002-18 194.572 194.572 0 014-17 66.128 66.128 0 015-15l8-16a98.134 98.134 0 008-11 178.81 178.81 0 0117-15l16-8a100.555 100.555 0 0118-6 348.07 348.07 0 0123-4 361.45 361.45 0 0121-2z"/><path fill="#ff7343" d="M7.5 70.5c.996-.086 1.83.248 2.5 1a6634.329 6634.329 0 0062.5 72 194.572 194.572 0 00-4 17A6838.36 6838.36 0 015 87.5a8.434 8.434 0 01-.5-4 61.36 61.36 0 013-13z" opacity=".996"/><path fill="#ff7944" d="M4.5 83.5a8.434 8.434 0 00.5 4 6838.36 6838.36 0 0063.5 73 106.268 106.268 0 01-2 18 1813.711 1813.711 0 01-57.5-66 93.591 93.591 0 00-8.5-8c.597-7.266 1.93-14.266 4-21z" opacity=".997"/><path fill="#f04e5c" d="M186.5 101.5a756.853 756.853 0 0155-1 2770.515 2770.515 0 0158 68c-11.092-4.601-22.425-7.934-34-10a4.934 4.934 0 003-.5 3069.048 3069.048 0 00-49-56c-7.659-.5-15.326-.666-23-.5h-10z"/><path fill="#ee4b5f" d="M241.5 100.5h13a16555.216 16555.216 0 00155.5 181c.497 2.31.663 4.643.5 7v7a6257.181 6257.181 0 01-60.5-70c-.69-1.238-1.19-1.238-1.5 0-9.553-24.882-25.886-43.882-49-57a2770.515 2770.515 0 00-58-68z"/><path fill="#ec4a62" d="M254.5 100.5h10a17782.63 17782.63 0 00147 169c.323 6.522-.01 12.855-1 19a24.935 24.935 0 00-.5-7 16555.216 16555.216 0 01-155.5-181z"/><path fill="#ea4966" d="M264.5 100.5h27l42 49c-.773 17.556 7.56 26.89 25 28a59248.597 59248.597 0 0053 62v30a17782.63 17782.63 0 01-147-169z"/><path fill="#e7476d" d="M291.5 100.5h23a714.188 714.188 0 0129 35c-4.494 3.829-7.828 8.496-10 14l-42-49z"/><path fill="#f6504e" d="M186.5 101.5h10a1978.815 1978.815 0 0149 57 131.352 131.352 0 00-22 5 3735.421 3735.421 0 01-52-61 89.41 89.41 0 0115-1z"/><path fill="#f34d55" d="M196.5 101.5c7.674-.166 15.341 0 23 .5a3069.048 3069.048 0 0149 56 4.934 4.934 0 01-3 .5h-20a1978.815 1978.815 0 00-49-57z"/><path fill="#ff8045" d="M.5 104.5a93.591 93.591 0 018.5 8 1813.711 1813.711 0 0057.5 66v22c-.722.418-1.222 1.084-1.5 2a7230.293 7230.293 0 00-65.5-75v-19c.934-1.068 1.268-2.401 1-4z" opacity=".997"/><path fill="#fa5247" d="M171.5 102.5a3735.421 3735.421 0 0052 61 197.325 197.325 0 00-17 8 3752.746 3752.746 0 00-50.5-60c-1.777-2.29-3.944-3.957-6.5-5 7.015-2.378 14.348-3.712 22-4z"/><path fill="#e0457c" d="M346.5 103.5c27.598 2.111 46.098 16.111 55.5 42a124.784 124.784 0 015.5 25 4.934 4.934 0 01-.5 3 4983.592 4983.592 0 01-60.5-70z"/><path fill="#fd5342" d="M149.5 106.5c2.556 1.043 4.723 2.71 6.5 5a3752.746 3752.746 0 0150.5 60 103.473 103.473 0 00-14 10 4717.4 4717.4 0 01-52.5-62c-2.106-2.618-4.606-4.618-7.5-6 5.024-3.672 10.69-6.005 17-7z"/><path fill="#ff593f" d="M132.5 113.5c2.894 1.382 5.394 3.382 7.5 6a4717.4 4717.4 0 0052.5 62 85.436 85.436 0 00-15 16 93.56 93.56 0 01-8.5-8l-51-59a4.934 4.934 0 01-.5-3c3.737-6.072 8.737-10.739 15-14z"/><path fill="#ff8646" d="M-.5 127.5a7230.293 7230.293 0 0165.5 75c.278-.916.778-1.582 1.5-2v5c-.99 5.81-1.323 11.81-1 18l-66-75v-21z"/><path fill="#ff6140" d="M117.5 127.5a4.934 4.934 0 00.5 3l51 59a93.56 93.56 0 008.5 8 3571.16 3571.16 0 01-8 12 1421.935 1421.935 0 01-59-68c1.299-5.264 3.632-9.931 7-14z"/><path fill="#fefdfd" d="M373.5 169.5c-3.993 4.497-8.993 7.164-15 8-17.44-1.11-25.773-10.444-25-28 2.172-5.504 5.506-10.171 10-14 15.349-6.829 26.849-2.829 34.5 12 1.659 8.07.159 15.404-4.5 22z"/><path fill="#ff6741" d="M110.5 141.5a1421.935 1421.935 0 0059 68 188.092 188.092 0 00-7 17 2621.634 2621.634 0 01-57-65c.477-7.072 2.143-13.739 5-20z"/><path fill="#ff8c47" d="M-.5 148.5l66 75v21l-66-75v-21z"/><path fill="#e44876" d="M314.5 100.5a193.74 193.74 0 0132 3 4983.592 4983.592 0 0060.5 70 4.934 4.934 0 00.5-3c2.699 14.396 4.033 29.062 4 44a603.684 603.684 0 00-38-45c4.659-6.596 6.159-13.93 4.5-22-7.651-14.829-19.151-18.829-34.5-12a714.188 714.188 0 00-29-35z"/><path fill="#da4186" d="M433.5 129.5a4938.88 4938.88 0 0178 88v27a6090.2 6090.2 0 00-69-79 130.891 130.891 0 00-9-36z" opacity=".999"/><path fill="#fffdfd" d="M245.5 158.5h20c11.575 2.066 22.908 5.399 34 10 23.114 13.118 39.447 32.118 49 57a117.784 117.784 0 014 30 89.393 89.393 0 01-3 24 100.04 100.04 0 01-8 21 124.733 124.733 0 01-10 16c-3.638 3.974-7.305 7.974-11 12a294.771 294.771 0 01-19 13l-12 5a79.937 79.937 0 01-19 5c-4.31.58-8.643.914-13 1a113.31 113.31 0 01-24-2 204.698 204.698 0 01-26-10c-19.457-12.239-33.79-28.906-43-50-2.931-8.911-4.931-17.911-6-27v-20l4-17a188.092 188.092 0 017-17 3571.16 3571.16 0 008-12 85.436 85.436 0 0115-16 103.473 103.473 0 0114-10 197.325 197.325 0 0117-8 131.352 131.352 0 0122-5z"/><path fill="#ff6e42" d="M105.5 161.5a2621.634 2621.634 0 0057 65l-4 17a29921.22 29921.22 0 01-51.5-59 30.137 30.137 0 01-3.5-6c-.179-5.904.488-11.571 2-17z"/><path fill="#dd4280" d="M442.5 165.5a6090.2 6090.2 0 0169 79v31a5772.73 5772.73 0 01-67-77 216.934 216.934 0 00-2-33z" opacity=".999"/><path fill="#ff9248" d="M-.5 169.5l66 75c.166 7.008 0 14.008-.5 21a7230.293 7230.293 0 00-65.5-75v-21z"/><path fill="#e7486c" d="M373.5 169.5a603.684 603.684 0 0138 45v25a59248.597 59248.597 0 01-53-62c6.007-.836 11.007-3.503 15-8z"/><path fill="#ff7343" d="M103.5 178.5a30.137 30.137 0 003.5 6 29921.22 29921.22 0 0051.5 59v20a3974.663 3974.663 0 01-55.5-63 60.931 60.931 0 01-.5-11c-.315-3.871.018-7.538 1-11z"/><path fill="#ff994a" d="M-.5 190.5a7230.293 7230.293 0 0165.5 75c.5-6.992.666-13.992.5-21v-21c-.323-6.19.01-12.19 1-18v89c-.802-1.452-1.302-3.118-1.5-5a7230.293 7230.293 0 00-65.5-75v-24z"/><path fill="#f6514f" d="M244.5 193.5c26.415-4.14 47.581 4.527 63.5 26 9.584 16.099 12.084 33.099 7.5 51a7012.691 7012.691 0 00-66-76.5 12.93 12.93 0 00-5-.5z"/><path fill="#fa5247" d="M244.5 193.5a12.93 12.93 0 015 .5 7012.691 7012.691 0 0166 76.5c-.574 7.062-2.907 13.395-7 19a5043.487 5043.487 0 00-78-92c4.212-2.556 8.878-3.89 14-4z"/><path fill="#fd5341" d="M230.5 197.5a5043.487 5043.487 0 0178 92 19.177 19.177 0 01-2.5 5 40.248 40.248 0 01-8.5 9 30.137 30.137 0 00-3.5-6 10643.385 10643.385 0 00-79.5-91c4.721-4.029 10.054-7.029 16-9z"/><path fill="#ff7a45" d="M102.5 189.5a60.931 60.931 0 00.5 11 3974.663 3974.663 0 0055.5 63c1.069 9.089 3.069 18.089 6 27a2.428 2.428 0 01-.5 2 6631.473 6631.473 0 00-62.5-72v-11c-.324-6.854.009-13.521 1-20z"/><path fill="#e14479" d="M444.5 198.5a5772.73 5772.73 0 0067 77v26a7227.911 7227.911 0 01-65.5-75c-.186 2.536-.686 4.869-1.5 7v-35z" opacity=".999"/><path fill="#ff593f" d="M214.5 206.5a10643.385 10643.385 0 0179.5 91 30.137 30.137 0 013.5 6c-5.738 5.205-12.404 8.872-20 11a7672.133 7672.133 0 00-77-89c3.13-7.464 7.797-13.797 14-19z"/><path fill="#ff8045" d="M101.5 220.5a6631.473 6631.473 0 0162.5 72 2.428 2.428 0 00.5-2c9.21 21.094 23.543 37.761 43 50-.438-.065-.772.101-1 .5a6023.332 6023.332 0 0060 69.5h-17c-1.765-.961-3.765-1.295-6-1a25900.812 25900.812 0 00-142-165v-24z"/><path fill="#ff9f4a" d="M-.5 214.5a7230.293 7230.293 0 0165.5 75c.198 1.882.698 3.548 1.5 5v18a5773.454 5773.454 0 01-67-77v-21z"/><path fill="#f04c5a" d="M410.5 295.5a256.49 256.49 0 01-1 25 2621.634 2621.634 0 01-57-65 117.784 117.784 0 00-4-30c.31-1.238.81-1.238 1.5 0a6257.181 6257.181 0 0060.5 70z"/><path fill="#ff6040" d="M200.5 225.5a7672.133 7672.133 0 0177 89c-4.297 2.198-8.964 3.198-14 3-1.871-.359-3.371-1.359-4.5-3l-63-73a8.43 8.43 0 01-.5-4c.615-4.548 2.281-8.548 5-12z"/><path fill="#e44573" d="M511.5 301.5v27a5772.73 5772.73 0 00-67-77v-18c.814-2.131 1.314-4.464 1.5-7a7227.911 7227.911 0 0065.5 75z" opacity=".998"/><path fill="#ffa54b" d="M-.5 235.5a5773.454 5773.454 0 0067 77c.13 7.345.463 14.678 1 22a3752.382 3752.382 0 01-68-78v-21z"/><path fill="#ff6741" d="M195.5 237.5a8.43 8.43 0 00.5 4l63 73c1.129 1.641 2.629 2.641 4.5 3-2.814.665-5.814.998-9 1-5.245.108-10.245-.558-15-2a3201.616 3201.616 0 01-43.5-51c-.671-.752-1.504-1.086-2.5-1-.166-7.341 0-14.674.5-22 .198-1.882.698-3.548 1.5-5z"/><path fill="#ff8646" d="M101.5 244.5a25900.812 25900.812 0 01142 165 162.597 162.597 0 01-18-.5A12464.92 12464.92 0 00102 266.5a242.43 242.43 0 01-.5-22z"/><path fill="#e6476d" d="M444.5 251.5a5772.73 5772.73 0 0167 77v26l-67-76v-27z" opacity=".998"/><path fill="#ffab4d" d="M-.5 256.5a3752.382 3752.382 0 0068 78 229.626 229.626 0 012 20 4.932 4.932 0 01-.5 3 8058.388 8058.388 0 00-69.5-79v-22z"/><path fill="#ff6e44" d="M193.5 264.5c.996-.086 1.829.248 2.5 1a3201.616 3201.616 0 0043.5 51c-26.844-6.951-42.178-24.285-46-52z"/><path fill="#ff8c48" d="M101.5 209.5v35c-.166 7.341 0 14.674.5 22A12464.92 12464.92 0 01225.5 409c5.991.499 11.991.666 18 .5 2.235-.295 4.235.039 6 1a529.889 529.889 0 01-42-1 9258.433 9258.433 0 00-106-122c.172-.992-.162-1.658-1-2-.331-25.505.002-50.839 1-76z"/><path fill="#f34e54" d="M352.5 255.5a2621.634 2621.634 0 0057 65c-.017 8.201-.683 16.201-2 24a162996.507 162996.507 0 01-58-65 89.393 89.393 0 003-24z"/><path fill="#ffb24e" d="M-.5 278.5a8058.388 8058.388 0 0169.5 79c.483-.948.65-1.948.5-3 3.078 15.89 8.744 30.89 17 45a2.427 2.427 0 01-.5 2 11667.727 11667.727 0 01-86.5-99v-24z"/><path fill="#ea4967" d="M444.5 278.5l67 76v31l-67-76v-31z" opacity=".997"/><path fill="#f6504e" d="M349.5 279.5c19.282 21.621 38.616 43.288 58 65-.454 8.485-2.454 16.485-6 24l-60-68a100.04 100.04 0 008-21z"/><path fill="#ff9248" d="M101.5 287.5a9258.433 9258.433 0 01106 122h-17a4587.336 4587.336 0 01-88.5-101c-.5-6.992-.666-13.992-.5-21z"/><path fill="#ffb84e" d="M-.5 302.5a11667.727 11667.727 0 0086.5 99 2.427 2.427 0 00.5-2 120.958 120.958 0 0013 16c-1.025.397-1.192 1.063-.5 2a10653.887 10653.887 0 0181.5 94h-18a2011095.254 2011095.254 0 01-163-188v-21z" opacity=".999"/><path fill="#ff994b" d="M100.5 285.5c.838.342 1.172 1.008 1 2-.166 7.008 0 14.008.5 21a4587.336 4587.336 0 0088.5 101 204.507 204.507 0 01-22-2c-2.528-1.008-4.695-2.674-6.5-5a1872.442 1872.442 0 00-58.5-67c-.814-2.131-1.314-4.464-1.5-7a653.54 653.54 0 01-1.5-43z"/><path fill="#fa5247" d="M341.5 300.5l60 68c-2.063 6.466-5.396 12.132-10 17a43.842 43.842 0 00-4.5-7 3373.328 3373.328 0 01-51-59c-1.129-1.641-2.629-2.641-4.5-3a124.733 124.733 0 0010-16z"/><path fill="#fd5341" d="M331.5 316.5c1.871.359 3.371 1.359 4.5 3a3373.328 3373.328 0 0051 59 43.842 43.842 0 014.5 7c-3.428 4.764-7.762 8.43-13 11a2770.515 2770.515 0 00-58-68c3.695-4.026 7.362-8.026 11-12z"/><path fill="#ed4a60" d="M444.5 309.5l67 76v20c-.951 1.419-1.284 3.085-1 5l-67-76a256.49 256.49 0 001-25z" opacity=".996"/><path fill="#ffbe4f" d="M-.5 323.5c54.304 62.641 108.638 125.308 163 188h-21c.418-.722 1.084-1.222 2-1.5A35148.779 35148.779 0 00-.5 344.5v-21z" opacity=".997"/><path fill="#ff593f" d="M320.5 328.5a2770.515 2770.515 0 0158 68c-7.05 4.354-14.716 7.354-23 9a2428.201 2428.201 0 00-54-64 294.771 294.771 0 0019-13z"/><path fill="#f04d5a" d="M443.5 334.5l67 76c-1.128 8.331-3.128 16.331-6 24 .236-2.726-.597-5.059-2.5-7a5881.707 5881.707 0 01-61.5-70 1560.254 1560.254 0 003-23z" opacity=".995"/><path fill="#ff6040" d="M301.5 341.5a2428.201 2428.201 0 0154 64 99.577 99.577 0 01-15 3 4383.43 4383.43 0 00-52-60.5c.556-.383.889-.883 1-1.5l12-5z"/><path fill="#ffa14c" d="M103.5 335.5a1872.442 1872.442 0 0158.5 67c1.805 2.326 3.972 3.992 6.5 5-43.968-3.643-65.635-27.643-65-72z"/><path fill="#ffc450" d="M-.5 344.5a35148.779 35148.779 0 01144 165.5c-.916.278-1.582.778-2 1.5h-1c-5.475-.989-11.142-1.322-17-1a4.934 4.934 0 00-.5-3A23869.772 23869.772 0 01-.5 365.5v-21z" opacity=".998"/><path fill="#ff7944" d="M207.5 340.5a204.698 204.698 0 0026 10l51 60h-18a6023.332 6023.332 0 01-60-69.5c.228-.399.562-.565 1-.5z"/><path fill="#ff6741" d="M289.5 346.5c-.111.617-.444 1.117-1 1.5a4383.43 4383.43 0 0152 60.5 59.567 59.567 0 01-14 1 13.116 13.116 0 01-7-1 1962.223 1962.223 0 01-49-57 79.937 79.937 0 0019-5z"/><path fill="#ff7343" d="M233.5 350.5a113.31 113.31 0 0024 2 44.093 44.093 0 01-3 2 1887.524 1887.524 0 0148 56h-18l-51-60z"/><path fill="#ff6e43" d="M270.5 351.5a1962.223 1962.223 0 0049 57 13.116 13.116 0 007 1c-7.816.992-15.816 1.326-24 1a1887.524 1887.524 0 00-48-56 44.093 44.093 0 003-2c4.357-.086 8.69-.42 13-1z"/><path fill="#f34e54" d="M440.5 357.5a5881.707 5881.707 0 0061.5 70c1.903 1.941 2.736 4.274 2.5 7-1.204 5.395-3.204 10.395-6 15a42889.59 42889.59 0 01-62.5-71c-.383.556-.883.889-1.5 1a268.969 268.969 0 006-22z" opacity=".997"/><path fill="#ffca51" d="M-.5 365.5a23869.772 23869.772 0 00123.5 142c.483.948.649 1.948.5 3a315.61 315.61 0 01-22-2 8623.121 8623.121 0 00-102-118v-25z" opacity=".997"/><path fill="#f64f4e" d="M498.5 449.5a59.262 59.262 0 01-6.5 13c-1.049 2.118-2.549 3.784-4.5 5a3068.106 3068.106 0 01-62-70 113.453 113.453 0 009-18c.617-.111 1.117-.444 1.5-1a42889.59 42889.59 0 0062.5 71z" opacity=".997"/><path fill="#ffd153" d="M-.5 390.5a8623.121 8623.121 0 01102 118 86.037 86.037 0 01-20-2 8364.53 8364.53 0 00-71.5-84c-2.106-2.618-4.606-4.618-7.5-6a285.286 285.286 0 00-3-18v-8z" opacity=".992"/><path fill="#fa5147" d="M425.5 397.5a3068.106 3068.106 0 0062 70c-2.883 5.555-6.883 10.222-12 14a5386.289 5386.289 0 01-56.5-66c-1.129-1.641-2.629-2.641-4.5-3a190.792 190.792 0 0011-15z" opacity=".998"/><path fill="#fd5341" d="M414.5 412.5c1.871.359 3.371 1.359 4.5 3a5386.289 5386.289 0 0056.5 66 47.814 47.814 0 01-13 10 192944.3 192944.3 0 01-61-68 103.042 103.042 0 0113-11z" opacity=".997"/><path fill="#ffb24e" d="M99.5 415.5c11.9 9.95 25.234 17.283 40 22-.438-.065-.772.101-1 .5a6434.305 6434.305 0 0163 73.5h-21a10653.887 10653.887 0 00-81.5-94c-.692-.937-.525-1.603.5-2z"/><path fill="#ffd854" d="M2.5 416.5c2.894 1.382 5.394 3.382 7.5 6a8364.53 8364.53 0 0171.5 84c-32.77-7.946-55.937-27.279-69.5-58a160.378 160.378 0 01-9.5-32z" opacity=".984"/><path fill="#ff593e" d="M401.5 423.5a192944.3 192944.3 0 0061 68c-6.468 5.234-13.802 8.901-22 11a2894.194 2894.194 0 01-59-69 139.96 139.96 0 0020-10z" opacity=".998"/><path fill="#ff6040" d="M381.5 433.5c19.299 23.3 38.965 46.3 59 69a86.94 86.94 0 01-14 5 5449.744 5449.744 0 00-58.5-67c-.47-1.077-.303-2.077.5-3a189.61 189.61 0 0013-4z" opacity=".997"/><path fill="#ffab4d" d="M139.5 437.5a437.784 437.784 0 0124 5 4.934 4.934 0 00-3 .5 1897.91 1897.91 0 0159 68.5h-18a6434.305 6434.305 0 00-63-73.5c.228-.399.562-.565 1-.5z"/><path fill="#ff6741" d="M368.5 437.5c-.803.923-.97 1.923-.5 3a5449.744 5449.744 0 0158.5 67 371.57 371.57 0 00-20 2 5490.339 5490.339 0 01-57-66.5c.556-.383.889-.883 1-1.5a432.176 432.176 0 0018-4z" opacity=".995"/><path fill="#ffa54c" d="M163.5 442.5c8.83.471 17.496 1.138 26 2a40.914 40.914 0 00-9 .5 5363.15 5363.15 0 0158 66.5h-19a1897.91 1897.91 0 00-59-68.5 4.934 4.934 0 013-.5z"/><path fill="#ff6d42" d="M350.5 441.5c-.111.617-.444 1.117-1 1.5a5490.339 5490.339 0 0057 66.5 218.12 218.12 0 00-20 1c.418-.722 1.084-1.222 2-1.5a1711.453 1711.453 0 01-56-65.5 148.616 148.616 0 0018-2z" opacity=".995"/><path fill="#ff9f4b" d="M189.5 444.5h62c-3.798.983-7.798 1.317-12 1h-18c-7.032-.33-14.032.003-21 1 18.689 21.686 37.356 43.353 56 65h-18a5363.15 5363.15 0 00-58-66.5 40.914 40.914 0 019-.5z"/><path fill="#ff7343" d="M332.5 443.5a1711.453 1711.453 0 0056 65.5c-.916.278-1.582.778-2 1.5h-16a2620.49 2620.49 0 00-56-66 407.946 407.946 0 0018-1z" opacity=".996"/><path fill="#ff9949" d="M221.5 445.5a2620.49 2620.49 0 0056 66h-21a284096.348 284096.348 0 00-56-65 111.148 111.148 0 0121-1z"/><path fill="#ff9248" d="M221.5 445.5h18a2620.49 2620.49 0 0156 66h-18a2620.49 2620.49 0 01-56-66z"/><path fill="#ff8d49" d="M251.5 444.5h57c-3.462.982-7.129 1.315-11 1h-22a162.597 162.597 0 00-18 .5 1711.453 1711.453 0 0156 65.5h-18a2620.49 2620.49 0 00-56-66c4.202.317 8.202-.017 12-1z"/><path fill="#ff8646" d="M275.5 445.5l57 66h-19a1711.453 1711.453 0 00-56-65.5 162.597 162.597 0 0118-.5z"/><path fill="#ff8045" d="M275.5 445.5h22a2620.49 2620.49 0 0056 66h-21l-57-66z" opacity=".998"/><path fill="#ff7944" d="M308.5 444.5h6a2620.49 2620.49 0 0156 66v1h-17a2620.49 2620.49 0 01-56-66c3.871.315 7.538-.018 11-1z" opacity=".995"/></svg>