<svg xmlns="http://www.w3.org/2000/svg" viewBox="51.5 92.97 396 278.5" shape-rendering="geometricPrecision" text-rendering="geometricPrecision" image-rendering="optimizeQuality" fill-rule="evenodd" clip-rule="evenodd"><path fill="#fcb965" d="M381.5 277.5h-13c18.494-56.352 5.828-104.519-38-144.5-44.432-32.713-91.766-37.38-142-14-49.322 29.474-71.488 72.974-66.5 130.5a213.25 213.25 0 006.5 28h-11c-17.515-61.125-2.515-112.625 45-154.5 44.556-32.691 92.556-38.691 144-18 44.536 21.55 71.369 56.717 80.5 105.5 3.267 22.778 1.434 45.111-5.5 67zm-13 0h-3v-4c15.287-50.687 4.287-94.854-33-132.5-34.875-29.633-74.542-38.633-119-27-37.635 11.969-64.135 36.135-79.5 72.5-11.142 30.295-11.308 60.628-.5 91h-5a213.25 213.25 0 01-6.5-28c-4.988-57.526 17.178-101.026 66.5-130.5 50.234-23.38 97.568-18.713 142 14 43.828 39.981 56.494 88.148 38 144.5zm-126-158c1.073.751 1.24 1.751.5 3-1.728-.852-1.895-1.852-.5-3zm8 0c2.26.738 2.427 1.738.5 3a4.934 4.934 0 01-.5-3zm-16 1c1.273.577 1.273 1.243 0 2-.963-.47-.963-1.137 0-2zm24 0c1.837.139 2.17.806 1 2-.798-.457-1.131-1.124-1-2zm8 1c1.837.139 2.17.806 1 2-.798-.457-1.131-1.124-1-2zm-41 2c.577-1.273 1.243-1.273 2 0-.47.963-1.137.963-2 0zm-8 2c.577-1.273 1.243-1.273 2 0-.47.963-1.137.963-2 0zm65 0c1.837.139 2.17.806 1 2-.798-.457-1.131-1.124-1-2zm-72 1c1.273.577 1.273 1.243 0 2-.963-.47-.963-1.137 0-2zm80 2c2.501.011 2.668.678.5 2a2.428 2.428 0 01-.5-2zm-88 1c.789.283 1.456.783 2 1.5-1.316.528-1.983.028-2-1.5zm95 2c1.837.139 2.17.806 1 2-.798-.457-1.131-1.124-1-2zm-103 2c1.837.139 2.17.806 1 2-.798-.457-1.131-1.124-1-2zm-6 4c1.273.577 1.273 1.243 0 2-.963-.47-.963-1.137 0-2zm-7 5c2.501.011 2.668.678.5 2a2.428 2.428 0 01-.5-2zm137 2c.789.283 1.456.783 2 1.5-1.316.528-1.983.028-2-1.5zm-144 3c1.837.139 2.17.806 1 2-.798-.457-1.131-1.124-1-2zm150 4c.577-1.273 1.243-1.273 2 0-.47.963-1.137.963-2 0zm-156 2c1.837.139 2.17.806 1 2-.798-.457-1.131-1.124-1-2zm-5 6c1.837.139 2.17.806 1 2-.798-.457-1.131-1.124-1-2zm172 4c.577-1.273 1.243-1.273 2 0-.47.963-1.137.963-2 0zm-177 2c.789.283 1.456.783 2 1.5-1.316.528-1.983.028-2-1.5zm183 3c1.073.751 1.24 1.751.5 3-1.728-.852-1.895-1.852-.5-3zm-188 4c1.837.139 2.17.806 1 2-.798-.457-1.131-1.124-1-2zm192 3c1.073.751 1.24 1.751.5 3-1.728-.852-1.895-1.852-.5-3zm-196 4c1.837.139 2.17.806 1 2-.798-.457-1.131-1.124-1-2zm199 5c.577-1.273 1.243-1.273 2 0-.47.963-1.137.963-2 0zm-202 3c.838.342 1.172 1.008 1 2-1.605-.506-1.939-1.173-1-2zm206 3c.789.283 1.456.783 2 1.5-1.316.528-1.983.028-2-1.5zm-209 4c1.073.751 1.24 1.751.5 3-1.728-.852-1.895-1.852-.5-3zm212 4c1.273.577 1.273 1.243 0 2-.963-.47-.963-1.137 0-2zm-214 4c1.273.577 1.273 1.243 0 2-.963-.47-.963-1.137 0-2zm-1 8c0 1.333-.667 2-2 2 .333-1 1-1.667 2-2zm218 4c1.837.139 2.17.806 1 2-.798-.457-1.131-1.124-1-2zm-221 5c1.837.139 2.17.806 1 2-.798-.457-1.131-1.124-1-2zm222 3c.789.283 1.456.783 2 1.5-1.316.528-1.983.028-2-1.5zm-223 6c.751-1.073 1.751-1.24 3-.5-.852 1.728-1.852 1.895-3 .5zm223 3c1.837.139 2.17.806 1 2-.798-.457-1.131-1.124-1-2zm0 8c1.837.139 2.17.806 1 2-.798-.457-1.131-1.124-1-2zm-222 4c1.837.139 2.17.806 1 2-.798-.457-1.131-1.124-1-2zm221 4c.789.283 1.456.783 2 1.5-1.316.528-1.983.028-2-1.5zm-219 4c1.273.577 1.273 1.243 0 2-.963-.47-.963-1.137 0-2z"/><path fill="#fbb65e" d="M365.5 273.5c-.845 1.171-1.511 2.505-2 4h-19c2.782-3.824 3.782-7.99 3-12.5 3.397-4.914 4.397-10.247 3-16a27.648 27.648 0 012-4.5c.51-4.313-.157-8.313-2-12 1.497-1.79 2.164-3.956 2-6.5.164-2.544-.503-4.71-2-6.5v-1c.391-3.941-.109-7.941-1.5-12-2.453-4.532-4.286-9.199-5.5-14 .172-.992-.162-1.658-1-2a22.193 22.193 0 01-3-6c-.255-2.516-1.089-4.85-2.5-7a275.018 275.018 0 00-16-23 38.929 38.929 0 00-5.5-5 18.986 18.986 0 00-2.5 7c-.377-1.442-1.21-2.442-2.5-3-3.133-3.567-7.133-5.567-12-6-.222 4.342 1.111 8.009 4 11a14.698 14.698 0 003 3.5 54.628 54.628 0 00-7 2 109.823 109.823 0 0115.5 19.5c1.355 4.88 3.855 9.047 7.5 12.5-.45 4.614 1.216 8.447 5 11.5-.734 1.208-1.067 2.541-1 4a3910.62 3910.62 0 013 10c-.35 4.046.317 7.88 2 11.5-.964 4.066-1.297 8.233-1 12.5v2c-1.591 3.704-2.424 7.704-2.5 12a2327.245 2327.245 0 01-6.5 17 96.254 96.254 0 01-19 1c6.944-7.546 12.111-16.213 15.5-26 .498-3.317.665-6.65.5-10 .667-13.661-4.333-24.661-15-33 0-.667-.333-1-1-1-1.391-2.39-3.391-4.057-6-5-.936-1.474-2.27-2.474-4-3-2.918-4.457-6.918-7.457-12-9-.418-.722-1.084-1.222-2-1.5a50.464 50.464 0 00-10-.5c-4.836-2.876-10.169-4.209-16-4-3.744-1.652-7.744-2.152-12-1.5-15.423 4.024-29.756 10.357-43 19a46.198 46.198 0 00-7 8.5c-2.823 1.492-4.49 3.826-5 7-.838.342-1.172 1.008-1 2-2.075 3.974-3.075 8.308-3 13-1.369 8.643-1.203 17.31.5 26a25.471 25.471 0 004 9 133.234 133.234 0 019.5 10c-5.963.545-11.63-.121-17-2 .085-1.495-.581-2.495-2-3a106.546 106.546 0 01-2-10c0-.667-.333-1-1-1v-1a192.974 192.974 0 00-2-10c.237-1.291-.096-2.291-1-3-1.333-1-1.333-2 0-3a52.392 52.392 0 00-1-13c1.497-1.79 2.164-3.956 2-6.5a14.436 14.436 0 00-1-5c2.197-2.421 3.53-5.255 4-8.5.067-1.459-.266-2.792-1-4 3.73-3.459 5.896-7.792 6.5-13 2.584-2.174 4.418-4.841 5.5-8v-3c1.871-.359 3.371-1.359 4.5-3a90.588 90.588 0 0111.5-16c-1.72-1.434-3.72-2.267-6-2.5 4.053-3.606 6.386-8.106 7-13.5-6.044-.228-10.877 2.105-14.5 7a34.099 34.099 0 00-3-6c-4.143 3.3-7.309 7.3-9.5 12-1 .333-1.667 1-2 2a26.707 26.707 0 00-5 7c-.221 2.164-1.221 3.83-3 5a60.971 60.971 0 00-8 15c-1.058 1.1-1.892 2.434-2.5 4-.114 4.7-1.281 9.034-3.5 13-.318 6.188-1.652 12.355-4 18.5-.164 2.544.503 4.71 2 6.5-1.202 2.223-1.869 4.723-2 7.5-.193 3.243.473 6.243 2 9-.944 2.719-1.277 5.552-1 8.5.453 2.065 1.453 3.732 3 5 .582 2.169.582 4.502 0 7l3 8h-6c-.333-2.667-.667-2.667-1 0h-13c-10.808-30.372-10.642-60.705.5-91 15.365-36.365 41.865-60.531 79.5-72.5 44.458-11.633 84.125-2.633 119 27 37.287 37.646 48.287 81.813 33 132.5zm-123-154c-1.395 1.148-1.228 2.148.5 3 .74-1.249.573-2.249-.5-3zm8 0a4.934 4.934 0 00.5 3c1.927-1.262 1.76-2.262-.5-3zm-16 1c-.963.863-.963 1.53 0 2 1.273-.757 1.273-1.423 0-2zm24 0c-.131.876.202 1.543 1 2 1.17-1.194.837-1.861-1-2zm8 1c-.131.876.202 1.543 1 2 1.17-1.194.837-1.861-1-2zm-41 2c.863.963 1.53.963 2 0-.757-1.273-1.423-1.273-2 0zm-8 2c.863.963 1.53.963 2 0-.757-1.273-1.423-1.273-2 0zm65 0c-.131.876.202 1.543 1 2 1.17-1.194.837-1.861-1-2zm-72 1c-.963.863-.963 1.53 0 2 1.273-.757 1.273-1.423 0-2zm80 2a2.428 2.428 0 00.5 2c2.168-1.322 2.001-1.989-.5-2zm-88 1c.017 1.528.684 2.028 2 1.5-.544-.717-1.211-1.217-2-1.5zm95 2c-.131.876.202 1.543 1 2 1.17-1.194.837-1.861-1-2zm-103 2c-.131.876.202 1.543 1 2 1.17-1.194.837-1.861-1-2zm-6 4c-.963.863-.963 1.53 0 2 1.273-.757 1.273-1.423 0-2zm-7 5a2.428 2.428 0 00.5 2c2.168-1.322 2.001-1.989-.5-2zm137 2c.017 1.528.684 2.028 2 1.5-.544-.717-1.211-1.217-2-1.5zm-144 3c-.131.876.202 1.543 1 2 1.17-1.194.837-1.861-1-2zm150 4c.863.963 1.53.963 2 0-.757-1.273-1.423-1.273-2 0zm-156 2c-.131.876.202 1.543 1 2 1.17-1.194.837-1.861-1-2zm-5 6c-.131.876.202 1.543 1 2 1.17-1.194.837-1.861-1-2zm172 4c.863.963 1.53.963 2 0-.757-1.273-1.423-1.273-2 0zm-177 2c.017 1.528.684 2.028 2 1.5-.544-.717-1.211-1.217-2-1.5zm183 3c-1.395 1.148-1.228 2.148.5 3 .74-1.249.573-2.249-.5-3zm-188 4c-.131.876.202 1.543 1 2 1.17-1.194.837-1.861-1-2zm192 3c-1.395 1.148-1.228 2.148.5 3 .74-1.249.573-2.249-.5-3zm-196 4c-.131.876.202 1.543 1 2 1.17-1.194.837-1.861-1-2zm199 5c.863.963 1.53.963 2 0-.757-1.273-1.423-1.273-2 0zm-202 3c.838.342 1.172 1.008 1 2-1.605-.506-1.939-1.173-1-2zm206 3c.017 1.528.684 2.028 2 1.5-.544-.717-1.211-1.217-2-1.5zm-209 4c-1.395 1.148-1.228 2.148.5 3 .74-1.249.573-2.249-.5-3zm212 4c-.963.863-.963 1.53 0 2 1.273-.757 1.273-1.423 0-2zm-214 4c-.963.863-.963 1.53 0 2 1.273-.757 1.273-1.423 0-2zm-1 8c0 1.333-.667 2-2 2 .333-1 1-1.667 2-2zm218 4c-.131.876.202 1.543 1 2 1.17-1.194.837-1.861-1-2zm-221 5c-.131.876.202 1.543 1 2 1.17-1.194.837-1.861-1-2zm222 3c.017 1.528.684 2.028 2 1.5-.544-.717-1.211-1.217-2-1.5zm-223 6c1.148 1.395 2.148 1.228 3-.5-1.249-.74-2.249-.573-3 .5zm223 3c-.131.876.202 1.543 1 2 1.17-1.194.837-1.861-1-2zm0 8c-.131.876.202 1.543 1 2 1.17-1.194.837-1.861-1-2zm-222 4c-.131.876.202 1.543 1 2 1.17-1.194.837-1.861-1-2zm221 4c.017 1.528.684 2.028 2 1.5-.544-.717-1.211-1.217-2-1.5zm-219 4c-.963.863-.963 1.53 0 2 1.273-.757 1.273-1.423 0-2z"/><path fill="#854434" d="M246.5 133.5a63.684 63.684 0 009 6c-2.267 2.529-3.601 5.529-4 9l-4-2c-4.037 2.792-5.87 1.458-5.5-4-3.534-3.445-2.701-5.279 2.5-5.5a18.473 18.473 0 002-3.5z"/><path fill="#ffe3c2" d="M312.5 139.5c.333 2.667.667 2.667 1 0 .904.709 1.237 1.709 1 3h-3c-.237-1.291.096-2.291 1-3z" opacity=".259"/><path fill="#874635" d="M268.5 137.5c.996-.086 1.829.248 2.5 1l1 4c4.716 2.607 4.382 4.607-1 6a8.43 8.43 0 00-.5 4 69.769 69.769 0 00-10.5-3c.112-1.678.612-3.345 1.5-5a20.222 20.222 0 01-1-5c3.053.389 5.72-.277 8-2zm-44 0c2.429.085 4.429 1.085 6 3a6.846 6.846 0 014-1c-1.333 3.667-1.333 7.333 0 11-3.756.033-7.089 1.033-10 3 .285-1.788-.048-3.455-1-5-5.042-1.723-5.208-3.723-.5-6a27.603 27.603 0 011.5-5z"/><path fill="#d68e56" d="M310.5 153.5c2.314 9.241.147 10.241-6.5 3-.278.916-.778 1.582-1.5 2-2.889-2.991-4.222-6.658-4-11 4.867.433 8.867 2.433 12 6z"/><path fill="#d28a54" d="M184.5 183.5a34.163 34.163 0 01-10 1 12.93 12.93 0 00-.5-5c-1.333 2.667-2.667 2.667-4 0a128.384 128.384 0 01-2.5-9 26.707 26.707 0 015-7c.996.086 1.829-.248 2.5-1a219.592 219.592 0 012.5 10.5c4.547 1.545 9.213 1.879 14 1l-8-1a15.256 15.256 0 01-1.5-4.5c-1.049 1.017-2.216 1.184-3.5.5a40.179 40.179 0 01-2-6c-.336-1.03-1.003-1.53-2-1.5 2.191-4.7 5.357-8.7 9.5-12a34.099 34.099 0 013 6c3.623-4.895 8.456-7.228 14.5-7-.614 5.394-2.947 9.894-7 13.5 2.28.233 4.28 1.066 6 2.5a90.588 90.588 0 00-11.5 16c-1.129 1.641-2.629 2.641-4.5 3z"/><path fill="#854231" d="M185.5 158.5c.79 1.109 1.29 2.442 1.5 4a11.333 11.333 0 003.5 1.5l-5 2.5c-.705-2.589-.705-5.256 0-8z"/><path fill="#8e4a35" d="M174.5 161.5c.997-.03 1.664.47 2 1.5a40.179 40.179 0 002 6c1.284.684 2.451.517 3.5-.5a15.256 15.256 0 001.5 4.5l8 1c-4.787.879-9.453.545-14-1a219.592 219.592 0 00-2.5-10.5c-.671.752-1.504 1.086-2.5 1 .333-1 1-1.667 2-2z"/><path fill="#8f4b35" d="M167.5 170.5a128.384 128.384 0 002.5 9c1.333 2.667 2.667 2.667 4 0a12.93 12.93 0 01.5 5 34.163 34.163 0 0010-1v3a61.281 61.281 0 00-15-1l-2-10h-3c1.779-1.17 2.779-2.836 3-5z"/><path fill="#cd6824" d="M251.5 184.5c-5.147 1.812-9.48 4.812-13 9a50.804 50.804 0 00-17-.5c-2.223.566-4.223 1.4-6 2.5 3.477.823 7.144 1.323 11 1.5.916.278 1.582.778 2 1.5-4.137 3.305-7.803 7.138-11 11.5-3.851.54-7.685.374-11.5-.5a92.007 92.007 0 00-13 3c-1.681-.108-2.848-.775-3.5-2a46.198 46.198 0 017-8.5c13.244-8.643 27.577-14.976 43-19 4.256-.652 8.256-.152 12 1.5z"/><path fill="#b2572f" d="M251.5 184.5c5.831-.209 11.164 1.124 16 4 0 .667-.333 1-1 1-7.019-.589-13.019 1.911-18 7.5a15.505 15.505 0 01-7 2.5 228.083 228.083 0 01-13.5-5 52.85 52.85 0 01-12.5 1c1.777-1.1 3.777-1.934 6-2.5a50.804 50.804 0 0117 .5c3.52-4.188 7.853-7.188 13-9z"/><path fill="#fee2be" d="M146.5 187.5c.802-1.385 1.469-1.218 2 .5-.07.765-.403 1.265-1 1.5.172-.992-.162-1.658-1-2z" opacity=".259"/><path fill="#9c441f" d="M266.5 189.5c-1.73.526-3.064 1.526-4 3-3.13 1.072-5.796 2.906-8 5.5a61.395 61.395 0 0113 3c2.084.697 3.751 1.864 5 3.5a59.99 59.99 0 00-13-4.5c-2.879-.874-5.545-.54-8 1 8.734 1.534 15.734 5.867 21 13a16.2 16.2 0 003.5 1.5c4.155-3.487 8.322-6.987 12.5-10.5 2.15-1.411 4.484-2.245 7-2.5 2.609.943 4.609 2.61 6 5 .086.996-.248 1.829-1 2.5a307.37 307.37 0 01-15 4l-3 3c6.053 1.774 11.22 4.941 15.5 9.5 1.411 2.15 2.245 4.484 2.5 7-3.97-2.991-7.97-5.991-12-9-8.059-3.836-15.725-3.002-23 2.5 2.898 4.4 6.565 7.9 11 10.5a36.13 36.13 0 007.5 7 52.17 52.17 0 007 10c2.559 4.137 3.059 8.47 1.5 13h-1c-3.189-4.351-7.189-7.851-12-10.5a54.074 54.074 0 01-15-8 8.43 8.43 0 00-4-.5 121.33 121.33 0 00-13-7c-1.935-1.209-3.935-1.042-6 .5a116.563 116.563 0 01-21 15 20.889 20.889 0 00-3.5 6.5c-2.119-3.845-1.786-7.512 1-11a229.688 229.688 0 0018.5-17.5c-3.261-3.791-7.261-6.291-12-7.5a89.856 89.856 0 00-7.5-4 32.6 32.6 0 00-4.5 4c-2.249.58-3.915 1.913-5 4a8.43 8.43 0 01-4-.5 63.726 63.726 0 0110-9c-1.82-1.689-3.82-1.855-6-.5.453-.958 1.119-1.792 2-2.5-3.153-2.157-6.653-3.324-10.5-3.5-5.457.489-10.624 1.822-15.5 4-.172-.992.162-1.658 1-2a45.421 45.421 0 0115.5-4 101.254 101.254 0 0117.5 4l3-1c4.065-5.068 8.732-9.402 14-13-1.431-2.438-3.431-4.104-6-5-.418-.722-1.084-1.222-2-1.5-3.856-.177-7.523-.677-11-1.5a52.85 52.85 0 0012.5-1 228.083 228.083 0 0013.5 5 15.505 15.505 0 007-2.5c4.981-5.589 10.981-8.089 18-7.5z"/><path fill="#d38b54" d="M164.5 175.5h3l2 10a61.281 61.281 0 0115 1c-1.082 3.159-2.916 5.826-5.5 8-.604 5.208-2.77 9.541-6.5 13-3.13 1.523-6.463 2.189-10 2a12.93 12.93 0 00-.5-5c-.368 1.41-1.201 2.41-2.5 3-4.241-2.488-5.741-6.155-4.5-11 .318-1.561 1.151-2.728 2.5-3.5-.752-.671-1.086-1.504-1-2.5a60.971 60.971 0 018-15z"/><path fill="#d4793a" d="M267.5 188.5c3.35-.165 6.683.002 10 .5.916.278 1.582.778 2 1.5-.438-.065-.772.101-1 .5 3.486 1.46 5.319 3.96 5.5 7.5l-1-1a47.974 47.974 0 00-7.5 4 107.79 107.79 0 01-14-4 20.69 20.69 0 011-5c.936-1.474 2.27-2.474 4-3 .667 0 1-.333 1-1z"/><path fill="#dc945a" d="M342.5 190.5c.838.342 1.172 1.008 1 2 1.053 3.352 1.053 6.685 0 10a4.457 4.457 0 01-1.5-2c-.869 5.008-1.536 4.675-2-1-.464 5.675-1.131 6.008-2 1l-1 1a12.93 12.93 0 01-.5-5 69.385 69.385 0 012.5-6c1.145-1.184 2.312-1.184 3.5 0z"/><path fill="#cb6622" d="M279.5 190.5c5.082 1.543 9.082 4.543 12 9-6.444-.435-11.61 1.899-15.5 7-.816-1.323-1.983-1.989-3.5-2-1.249-1.636-2.916-2.803-5-3.5a61.395 61.395 0 00-13-3c2.204-2.594 4.87-4.428 8-5.5a20.69 20.69 0 00-1 5 107.79 107.79 0 0014 4 47.974 47.974 0 017.5-4l1 1c-.181-3.54-2.014-6.04-5.5-7.5.228-.399.562-.565 1-.5z"/><path fill="#884532" d="M167.5 190.5c.429 1.453.596 3.119.5 5a20.431 20.431 0 005.5 1.5c-3.591.789-7.091.622-10.5-.5-1.187-1.544-1.52-3.211-1-5 1.398.551 2.732.884 4 1 .717-.544 1.217-1.211 1.5-2z"/><path fill="#8c4834" d="M339.5 184.5a22.193 22.193 0 003 6c-1.188-1.184-2.355-1.184-3.5 0a69.385 69.385 0 00-2.5 6c-9.17 1.063-10.837 1.063-5 0a12.93 12.93 0 01.5-5c1.402 2.473 2.902 2.473 4.5 0 1.369-2.264 2.369-4.597 3-7z"/><path fill="#d08953" d="M339.5 184.5c-.631 2.403-1.631 4.736-3 7-1.598 2.473-3.098 2.473-4.5 0a12.93 12.93 0 00-.5 5c-5.837 1.063-4.17 1.063 5 0a12.93 12.93 0 00.5 5l1-1c.869 5.008 1.536 4.675 2-1 .464 5.675 1.131 6.008 2 1a4.457 4.457 0 001.5 2c1.053-3.315 1.053-6.648 0-10 1.214 4.801 3.047 9.468 5.5 14 1.391 4.059 1.891 8.059 1.5 12-2.429.085-4.429 1.085-6 3a22.226 22.226 0 01-2.5-6l-1 3a12.494 12.494 0 010-7c1.301-1.902 1.968-3.902 2-6-1.705 1.263-3.372 1.597-5 1-.576 2.352-2.076 3.352-4.5 3a21.213 21.213 0 01-7-2c-3.784-3.053-5.45-6.886-5-11.5-3.645-3.453-6.145-7.62-7.5-12.5a109.823 109.823 0 00-15.5-19.5 54.628 54.628 0 017-2 14.698 14.698 0 01-3-3.5c.722-.418 1.222-1.084 1.5-2 6.647 7.241 8.814 6.241 6.5-3 1.29.558 2.123 1.558 2.5 3a18.986 18.986 0 012.5-7 38.929 38.929 0 015.5 5 275.018 275.018 0 0116 23c1.411 2.15 2.245 4.484 2.5 7z"/><path fill="#874332" d="M330.5 176.5c.597.235.93.735 1 1.5a64.973 64.973 0 01-2 7 42.479 42.479 0 01-13 0l8-1c.837-1.011 1.17-2.178 1-3.5 3.046.317 4.713-1.016 5-4z"/><path fill="#894533" d="M316.5 167.5c1.956 2.397 3.79 2.397 5.5 0 .687 2.068.52 4.068-.5 6a28.717 28.717 0 01-13 .5l8-1c1.036-1.776 1.036-3.609 0-5.5z"/><path fill="#864332" d="M313.5 160.5c3.083 5.985 1.749 7.152-4 3.5 2.05-.416 3.384-1.583 4-3.5z"/><path fill="#d67c3d" d="M208.5 198.5h14c-1.258 6.738-5.425 10.071-12.5 10-.739-1.074-1.739-1.741-3-2-3.876-.161-7.709.339-11.5 1.5 3.946-3.792 8.28-6.959 13-9.5z"/><path fill="#b1562f" d="M272.5 204.5c1.517.011 2.684.677 3.5 2 3.89-5.101 9.056-7.435 15.5-7 1.73.526 3.064 1.526 4 3-2.516.255-4.85 1.089-7 2.5-4.178 3.513-8.345 7.013-12.5 10.5a16.2 16.2 0 01-3.5-1.5c-5.266-7.133-12.266-11.466-21-13 2.455-1.54 5.121-1.874 8-1a59.99 59.99 0 0113 4.5z"/><path fill="#d68e57" d="M155.5 221.5c-1.267-.587-2.267-.587-3 0 2.748 3.161 4.081 6.827 4 11-.722.418-1.222 1.084-1.5 2-.667-2.667-1.333-2.667-2 0l-1-2c-1.145 1.184-2.312 1.184-3.5 0-1.497-1.79-2.164-3.956-2-6.5 2.348-6.145 3.682-12.312 4-18.5 1.058-1.1 1.892-2.434 2.5-4 4.462 4.053 6.129 9.053 5 15l-1-3a20.093 20.093 0 00-1.5 6z"/><path fill="#d06f32" d="M264.5 214.5c.086.996-.248 1.829-1 2.5-1.558.21-2.891.71-4 1.5-1.254-1.857-1.254-3.857 0-6-6.76-5.697-13.927-6.363-21.5-2 .266 3.401-1.234 5.067-4.5 5l-3-2c4.485-4.304 9.651-7.638 15.5-10 7.556 1.52 13.722 5.187 18.5 11z"/><path fill="#945038" d="M156.5 190.5c-.086.996.248 1.829 1 2.5-1.349.772-2.182 1.939-2.5 3.5-1.241 4.845.259 8.512 4.5 11 1.299-.59 2.132-1.59 2.5-3a12.93 12.93 0 01.5 5c3.537.189 6.87-.477 10-2 .734 1.208 1.067 2.541 1 4-.973-1.484-2.307-1.984-4-1.5-5.89 1.865-9.057 5.698-9.5 11.5 1.714 1.425 3.047 1.092 4-1 .5 1.167 1.333 2 2.5 2.5a2.428 2.428 0 01-2 .5c-3.047.645-5.213-.355-6.5-3-.671.752-1.504 1.086-2.5 1a20.093 20.093 0 011.5-6l1 3c1.129-5.947-.538-10.947-5-15-.608 1.566-1.442 2.9-2.5 4 2.219-3.966 3.386-8.3 3.5-13 .608-1.566 1.442-2.9 2.5-4z"/><path fill="#d87e3f" d="M259.5 218.5c-1.371 2.367-3.371 4.033-6 5a4042.984 4042.984 0 00-20-8c3.266.067 4.766-1.599 4.5-5 7.573-4.363 14.74-3.697 21.5 2-1.254 2.143-1.254 4.143 0 6z"/><path fill="#cd6723" d="M302.5 208.5c10.667 8.339 15.667 19.339 15 33-1.984-.117-3.65.55-5 2a39.444 39.444 0 00-3.5 10 45.174 45.174 0 00-7.5 3l-4.5 9c-1.11 1.537-2.61 2.203-4.5 2 1.559-4.53 1.059-8.863-1.5-13a52.17 52.17 0 01-7-10 36.13 36.13 0 01-7.5-7c-4.435-2.6-8.102-6.1-11-10.5 7.275-5.502 14.941-6.336 23-2.5 4.03 3.009 8.03 6.009 12 9 1.136-1.529 1.302-3.862.5-7-2.748-4.752-6.248-8.919-10.5-12.5a108.394 108.394 0 009-2c1.926-.422 2.926-1.589 3-3.5z"/><path fill="#d38b55" d="M173.5 211.5c-.47 3.245-1.803 6.079-4 8.5a14.436 14.436 0 011 5c.164 2.544-.503 4.71-2 6.5-.929 1.436-2.095 2.769-3.5 4h-4c-.708-.881-1.542-1.547-2.5-2 .964-3.924 2.964-7.257 6-10a2.428 2.428 0 002-.5c-1.167-.5-2-1.333-2.5-2.5-.953 2.092-2.286 2.425-4 1 .443-5.802 3.61-9.635 9.5-11.5 1.693-.484 3.027.016 4 1.5z"/><path fill="#b75c34" d="M228.5 198.5c2.569.896 4.569 2.562 6 5-5.268 3.598-9.935 7.932-14 13l-3 1a101.254 101.254 0 00-17.5-4 45.421 45.421 0 00-15.5 4c.51-3.174 2.177-5.508 5-7 .652 1.225 1.819 1.892 3.5 2a92.007 92.007 0 0113-3 31.495 31.495 0 0011.5.5c3.197-4.362 6.863-8.195 11-11.5z"/><path fill="#d48c56" d="M332.5 222.5c-1.208-3.022-2.542-3.355-4-1a3910.62 3910.62 0 00-3-10c1.981-2.234 4.315-2.4 7-.5l5.5 5.5c1.301 1.865 1.635 3.865 1 6-1.9.914-4.066.914-6.5 0z"/><path fill="#fee3c1" d="M140.5 210.5c.904.709 1.237 1.709 1 3-1.291.237-2.291-.096-3-1 1.333 0 2-.667 2-2z" opacity=".075"/><path fill="#be643b" d="M301.5 207.5c.667 0 1 .333 1 1-.074 1.911-1.074 3.078-3 3.5a108.394 108.394 0 01-9 2c4.252 3.581 7.752 7.748 10.5 12.5.802 3.138.636 5.471-.5 7-.255-2.516-1.089-4.85-2.5-7-4.28-4.559-9.447-7.726-15.5-9.5l3-3a307.37 307.37 0 0015-4c.752-.671 1.086-1.504 1-2.5z"/><path fill="#b25932" d="M230.5 213.5l3 2a4042.984 4042.984 0 0120 8c2.629-.967 4.629-2.633 6-5 1.109-.79 2.442-1.29 4-1.5.752-.671 1.086-1.504 1-2.5 1.477 2.307 3.477 4.14 6 5.5a87.45 87.45 0 01-11 6 34.517 34.517 0 01-7.5 6.5 346.942 346.942 0 01-27.5-13 4.457 4.457 0 011.5-2c3.476 2.686 3.976 2.353 1.5-1l3-3z"/><path fill="#cc6724" d="M207.5 221.5a14.698 14.698 0 00-3.5 3 60.856 60.856 0 01-5.5 11.5l.5 1.5c3.339-1.408 6.173-3.408 8.5-6 1.085-2.087 2.751-3.42 5-4 1.267-.587 2.267-.587 3 0-6.08 3.58-10.58 8.58-13.5 15-1.643 5.411.19 8.411 5.5 9 7.936-.551 14.436-3.885 19.5-10 2-3.333 2-6.667 0-10a128.998 128.998 0 00-9.5-5l.5-1a14.828 14.828 0 006.5 2c4.739 1.209 8.739 3.709 12 7.5a229.688 229.688 0 01-18.5 17.5c-2.786 3.488-3.119 7.155-1 11a20.889 20.889 0 013.5-6.5 116.563 116.563 0 0021-15c2.065-1.542 4.065-1.709 6-.5 3.571 3.621 7.904 5.954 13 7a8.43 8.43 0 014 .5 54.074 54.074 0 0015 8c4.811 2.649 8.811 6.149 12 10.5-5.973 1.278-10.64 4.612-14 10h-40c-1.348-3.008-3.682-4.341-7-4a43.89 43.89 0 00-11 2.5 16.242 16.242 0 01-8 0 44.844 44.844 0 01-5-11 77.6 77.6 0 01-10 0 26.793 26.793 0 01-3-6.5c-5.6-.826-8.1-4.159-7.5-10l-3-3c-.729-4.497-.229-8.83 1.5-13h-4c-.075-4.692.925-9.026 3-13 4.876-2.178 10.043-3.511 15.5-4 3.847.176 7.347 1.343 10.5 3.5-.881.708-1.547 1.542-2 2.5z"/><path fill="#da8143" d="M193.5 217.5c3.534-.468 6.534.532 9 3a165.328 165.328 0 00-8 19.5c-2.717 1.033-4.551.2-5.5-2.5-1.666-5.978-1.832-11.978-.5-18 2.053.098 3.72-.569 5-2z"/><path fill="#d58d56" d="M350.5 219.5c1.497 1.79 2.164 3.956 2 6.5.164 2.544-.503 4.71-2 6.5-4.622 6.066-7.288 5.232-8-2.5.648-5.136 3.315-8.636 8-10.5z"/><path fill="#d99159" d="M151.5 236.5c2.44 2.543 4.106 5.543 5 9-.659 2.908-1.493 3.242-2.5 1-1.479 5.165-3.312 5.332-5.5.5l1-1c-1.233-1.698-1.9-3.698-2-6l.5-5.5c.816 1.323 1.983 1.989 3.5 2z"/><path fill="#b16c44" d="M332.5 222.5h-3c-.012 4.119.988 7.952 3 11.5.949.617 1.782.451 2.5-.5l2 2c.608-1.566 1.442-2.9 2.5-4 2.021 4.183.688 6.516-4 7a30.786 30.786 0 00-4.5-3c-.179 3.525-.679 6.859-1.5 10-.297-4.267.036-8.434 1-12.5-1.683-3.62-2.35-7.454-2-11.5 1.458-2.355 2.792-2.022 4 1z"/><path fill="#ad6843" d="M148.5 232.5c1.188 1.184 2.355 1.184 3.5 0l1 2c.667-2.667 1.333-2.667 2 0 .278-.916.778-1.582 1.5-2 .248 4.327-1.418 5.661-5 4-1.517-.011-2.684-.677-3.5-2l-.5 5.5c.1 2.302.767 4.302 2 6l-1 1c2.188 4.832 4.021 4.665 5.5-.5 1.007 2.242 1.841 1.908 2.5-1 1.113 1.446 1.28 3.113.5 5-1 1.333-2 1.333-3 0-.717.544-1.217 1.211-1.5 2a18.473 18.473 0 01-3.5-2c-.186 2.536-.686 4.869-1.5 7-.277-2.948.056-5.781 1-8.5-1.527-2.757-2.193-5.757-2-9 .131-2.777.798-5.277 2-7.5z"/><path fill="#d48c56" d="M152.5 252.5c4.843 3.019 7.01 7.353 6.5 13a4.933 4.933 0 01-2.5 1 18.196 18.196 0 01-6-4c-1.547-1.268-2.547-2.935-3-5 .814-2.131 1.314-4.464 1.5-7a18.473 18.473 0 003.5 2z"/><path fill="#ffe3c2" d="M357.5 255.5c.333 2.667.667 2.667 1 0 .904.709 1.237 1.709 1 3h-3c-.237-1.291.096-2.291 1-3z" opacity=".259"/><path fill="#feefdc" d="M354.5 264.5c.886-1.276 1.886-1.276 3 0-.124.607-.457.94-1 1-.342-.838-1.008-1.172-2-1z" opacity=".114"/><path fill="#d89058" d="M153.5 277.5a14850.28 14850.28 0 00-3-8 44.093 44.093 0 002-3c5.512 1.512 9.512 4.845 12 10a31.116 31.116 0 01-11 1z"/><path fill="#ffe9cf" d="M143.5 269.5c-.543-.06-.876-.393-1-1 .825-.886 1.825-1.219 3-1 .219 1.175-.114 2.175-1 3-.607-.124-.94-.457-1-1z" opacity=".082"/><path fill="#d28a55" d="M352.5 244.5a27.648 27.648 0 00-2 4.5c1.397 5.753.397 11.086-3 16 .782 4.51-.218 8.676-3 12.5-12.154.571-12.821-2.596-2-9.5-4.785-2.785-5.285-6.285-1.5-10.5l8-8c-2.333 3-4 2.667-5-1-1.197 2.383-2.03 2.05-2.5-1 1.078-5.508 4.078-9.508 9-12a467.073 467.073 0 002 9z"/><path fill="#854131" d="M350.5 218.5v1c-4.685 1.864-7.352 5.364-8 10.5.712 7.732 3.378 8.566 8 2.5 1.843 3.687 2.51 7.687 2 12a467.073 467.073 0 01-2-9c-4.922 2.492-7.922 6.492-9 12 .47 3.05 1.303 3.383 2.5 1 1 3.667 2.667 4 5 1l-8 8c-3.785 4.215-3.285 7.715 1.5 10.5-10.821 6.904-10.154 10.071 2 9.5h40v12c21.409-.333 42.076.001 62 1h-62v43c-.667 0-1-.333-1-1v-54h-268v-1h38a31.116 31.116 0 0011-1c-2.488-5.155-6.488-8.488-12-10a44.093 44.093 0 01-2 3c.582-2.498.582-4.831 0-7a18.196 18.196 0 006 4 4.933 4.933 0 002.5-1c.51-5.647-1.657-9.981-6.5-13 .283-.789.783-1.456 1.5-2 1 1.333 2 1.333 3 0 .78-1.887.613-3.554-.5-5-.894-3.457-2.56-6.457-5-9 3.582 1.661 5.248.327 5-4 .081-4.173-1.252-7.839-4-11 .733-.587 1.733-.587 3 0 .996.086 1.829-.248 2.5-1 1.287 2.645 3.453 3.645 6.5 3-3.036 2.743-5.036 6.076-6 10-1.153.813-1.153 1.813 0 3 1.96 1.019 3.96 1.019 6 0-2.44 2.543-4.106 5.543-5 9-1.113 1.446-1.28 3.113-.5 5 1.802 1.104 3.969 1.104 6.5 0a22.581 22.581 0 00-4 8c-2.05 5.871-.05 7.871 6 6-1.643 3.8-2.31 7.8-2 12 1.804.662 3.804.995 6 1 2.452-.039 4.452-.706 6-2 5.37 1.879 11.037 2.545 17 2h107a96.254 96.254 0 0019-1c3.292.353 6.625.687 10 1 2.468-4.264 2.468-8.598 0-13v-1c1.629-1.56 2.796-1.227 3.5 1a22.981 22.981 0 012-5l1 3c.545-4.237-.622-7.903-3.5-11 7.633-.177 8.966-3.51 4-10l-2-3c4.688-.484 6.021-2.817 4-7-1.225-3.888-3.559-6.888-7-9 2.434.914 4.6.914 6.5 0 .635-2.135.301-4.135-1-6l-5.5-5.5c-2.685-1.9-5.019-1.734-7 .5-.067-1.459.266-2.792 1-4a21.213 21.213 0 007 2c2.424.352 3.924-.648 4.5-3 1.628.597 3.295.263 5-1-.032 2.098-.699 4.098-2 6a12.494 12.494 0 000 7l1-3a22.226 22.226 0 002.5 6c1.571-1.915 3.571-2.915 6-3z" opacity=".977"/><path fill="#b57046" d="M173.5 262.5c.503 3.346 1.17 6.679 2 10 1.419.505 2.085 1.505 2 3-1.548 1.294-3.548 1.961-6 2-2.196-.005-4.196-.338-6-1 .79-1.109 1.29-2.442 1.5-4 .974 2.378 1.641 2.044 2-1l1 4c.893 1.211 1.726 1.211 2.5 0 .798-4.493 1.131-8.826 1-13z"/><path fill="#dd945b" d="M330.5 264.5c2.468 4.402 2.468 8.736 0 13 .043-4.393-.457-4.726-1.5-1-.324-2.069-1.158-2.402-2.5-1-2.582-4.614-2.082-8.948 1.5-13 .417 1.256 1.25 1.923 2.5 2z"/><path fill="#aa6543" d="M161.5 258.5a42.47 42.47 0 001.5 5c.359-3.044 1.026-3.378 2-1 2.43-.117 4.93-.784 7.5-2v1a11.743 11.743 0 00-5 3c-6.05 1.871-8.05-.129-6-6z"/><path fill="#bd764a" d="M337.5 241.5c4.966 6.49 3.633 9.823-4 10-3.465-1.405-5.131-.072-5 4 1.291 2.769 1.958 5.436 2 8v1c-1.25-.077-2.083-.744-2.5-2-3.582 4.052-4.082 8.386-1.5 13 1.342-1.402 2.176-1.069 2.5 1 1.043-3.726 1.543-3.393 1.5 1a700.494 700.494 0 01-10-1 2327.245 2327.245 0 006.5-17c.076-4.296.909-8.296 2.5-12 .617-.111 1.117-.444 1.5-1 1.83 3.644 3.497 3.31 5-1l1 1c-.476-1.82-.309-3.487.5-5z"/><path fill="#db925a" d="M172.5 261.5c.667 0 1 .333 1 1 .131 4.174-.202 8.507-1 13-.774 1.211-1.607 1.211-2.5 0l-1-4c-.359 3.044-1.026 3.378-2 1-.21 1.558-.71 2.891-1.5 4-.31-4.2.357-8.2 2-12a11.743 11.743 0 015-3zm161-10c2.878 3.097 4.045 6.763 3.5 11l-1-3a22.981 22.981 0 00-2 5c-.704-2.227-1.871-2.56-3.5-1-.042-2.564-.709-5.231-2-8-.131-4.072 1.535-5.405 5-4z"/><path fill="#d78f57" d="M170.5 250.5a192.974 192.974 0 012 10c-2.57 1.216-5.07 1.883-7.5 2-.974-2.378-1.641-2.044-2 1a42.47 42.47 0 01-1.5-5 22.581 22.581 0 014-8c2.273-2.898 3.773-2.564 4.5 1 .399-.228.565-.562.5-1z"/><path fill="#b46e47" d="M159.5 245.5a30.66 30.66 0 003.5 3c1.016-1.134 1.683-.801 2 1 1.11-1.537 2.61-2.203 4.5-2 .904.709 1.237 1.709 1 3 .065.438-.101.772-.5 1-.727-3.564-2.227-3.898-4.5-1-2.531 1.104-4.698 1.104-6.5 0-.78-1.887-.613-3.554.5-5z"/><path fill="#db8f65" d="M247.5 241.5a121.33 121.33 0 0113 7c-5.096-1.046-9.429-3.379-13-7z"/><path fill="#da8042" d="M244.5 243.5a60.364 60.364 0 018 5.5 39.63 39.63 0 019.5 3.5c2.278-1.12 3.778-.287 4.5 2.5a8.43 8.43 0 004 .5c-.023 2.1.644 3.933 2 5.5-.654 1.987-1.987 3.32-4 4a36.556 36.556 0 01-9.5 1.5c-8.924-1.638-17.758-1.305-26.5 1-5.153-.941-7.153-3.774-6-8.5a41.588 41.588 0 017-4.5c.886-.825 1.219-1.825 1-3a8.43 8.43 0 004-.5c2.602-2.093 4.602-4.593 6-7.5z"/><path fill="#d89058" d="M164.5 236.5h4c-.306 2.885.027 5.552 1 8-1.333 1-1.333 2 0 3-1.89-.203-3.39.463-4.5 2-.317-1.801-.984-2.134-2-1a30.66 30.66 0 01-3.5-3c.894-3.457 2.56-6.457 5-9z"/><path fill="#b0562d" d="M317.5 241.5a50.464 50.464 0 01-.5 10c-3.389 9.787-8.556 18.454-15.5 26h-24c3.36-5.388 8.027-8.722 14-10h1c1.89.203 3.39-.463 4.5-2l4.5-9a45.174 45.174 0 017.5-3 39.444 39.444 0 013.5-10c1.35-1.45 3.016-2.117 5-2z"/><path fill="#af6943" d="M168.5 231.5a52.392 52.392 0 011 13c-.973-2.448-1.306-5.115-1-8h-4c-2.04 1.019-4.04 1.019-6 0-1.153-1.187-1.153-2.187 0-3 .958.453 1.792 1.119 2.5 2h4c1.405-1.231 2.571-2.564 3.5-4z"/><path fill="#dc945a" d="M335.5 238.5l2 3c-.809 1.513-.976 3.18-.5 5l-1-1c-1.503 4.31-3.17 4.644-5 1-.383.556-.883.889-1.5 1v-2c.821-3.141 1.321-6.475 1.5-10a30.786 30.786 0 014.5 3z"/><path fill="#af552c" d="M180.5 232.5h4c-1.729 4.17-2.229 8.503-1.5 13l3 3c-.6 5.841 1.9 9.174 7.5 10a26.793 26.793 0 003 6.5 77.6 77.6 0 0010 0 44.844 44.844 0 005 11c2.667.667 5.333.667 8 0a43.89 43.89 0 0111-2.5c3.318-.341 5.652.992 7 4h-43a133.234 133.234 0 00-9.5-10 25.471 25.471 0 01-4-9c-1.703-8.69-1.869-17.357-.5-26z"/><path fill="#b1572f" d="M262.5 228.5a519.762 519.762 0 0020.5 17l9 14c.808 2.079.641 4.079-.5 6-8.146-12.481-18.813-22.148-32-29-1.083-.865-1.249-1.865-.5-3a27.241 27.241 0 013.5-5z"/><path fill="#d97f42" d="M224.5 227.5a14.828 14.828 0 01-6.5-2l-.5 1a128.998 128.998 0 019.5 5c2 3.333 2 6.667 0 10-5.064 6.115-11.564 9.449-19.5 10-5.31-.589-7.143-3.589-5.5-9 2.92-6.42 7.42-11.42 13.5-15-.733-.587-1.733-.587-3 0a32.6 32.6 0 014.5-4 89.856 89.856 0 017.5 4z"/><path fill="#da8043" d="M276.5 237.5c-1.75-3.256-4.083-6.089-7-8.5 7.553-6.275 14.719-5.775 21.5 1.5 2.167 2.932 4.834 6.266 8 10 1.913 5.594.08 7.761-5.5 6.5a124.988 124.988 0 01-15.5-10.5c-.383.556-.883.889-1.5 1z"/><path fill="#db925a" d="M332.5 222.5c3.441 2.112 5.775 5.112 7 9-1.058 1.1-1.892 2.434-2.5 4l-2-2c-.718.951-1.551 1.117-2.5.5-2.012-3.548-3.012-7.381-3-11.5h3z"/><path fill="#b65e36" d="M207.5 231.5c-2.327 2.592-5.161 4.592-8.5 6l-.5-1.5a60.856 60.856 0 005.5-11.5 14.698 14.698 0 013.5-3c2.18-1.355 4.18-1.189 6 .5a63.726 63.726 0 00-10 9 8.43 8.43 0 004 .5z"/><path fill="#ffefdb" d="M365.5 273.5v4h-2c.489-1.495 1.155-2.829 2-4z" opacity=".008"/><path fill="#fef5e9" d="M114.5 291.5c-.167 14.004 0 28.004.5 42 .996 2.16 2.496 3.827 4.5 5a11.743 11.743 0 003 5h-3c-.333-2.667-.667-2.667-1 0a992.735 992.735 0 01-63-1 734.831 734.831 0 0021-24.5 16.23 16.23 0 00-1.5-3.5 217.302 217.302 0 00-15.5-16 17.91 17.91 0 00-4-6 871.15 871.15 0 0159-1z" opacity=".991"/><path fill="#fdf4e8" d="M444.5 290.5a4464.252 4464.252 0 00-9 12 75.194 75.194 0 00-14 15 45.408 45.408 0 008 8 280.536 280.536 0 0014 17c-22.16.997-44.494 1.331-67 1a57.487 57.487 0 018-10v-43h60z" opacity=".995"/><path fill="#9e695c" d="M444.5 290.5h2a47.06 47.06 0 01-11 12c2.976-3.982 5.976-7.982 9-12z" opacity=".79"/><path fill="#a06c60" d="M435.5 302.5a4744.388 4744.388 0 01-12 15c2.434 2.421 4.434 5.088 6 8a45.408 45.408 0 01-8-8 75.194 75.194 0 0114-15z" opacity=".851"/><path fill="#a26e61" d="M59.5 298.5a217.302 217.302 0 0115.5 16 16.23 16.23 0 011.5 3.5 734.831 734.831 0 01-21 24.5c-.838.342-1.172 1.008-1 2h-2a284.54 284.54 0 0123-26.5 146.176 146.176 0 01-16-19.5z" opacity=".869"/><path fill="#dfc8bb" d="M115.5 278.5h268v54h-268v-54z"/><path fill="#fcf3e7" d="M116.5 279.5h266v52h-266v-52z"/><path fill="#693f2f" d="M161.5 292.5a9.86 9.86 0 016 1c-1.446 2.118-2.113 4.451-2 7 2.544-.396 4.711.271 6.5 2 .456 3.072.456 6.072 0 9a147.054 147.054 0 007.5-9.5c8.284-2.87 11.951-.036 11 8.5 3.811-3.424 5.478-7.757 5-13h4c.643 2.825 1.977 5.325 4 7.5a43.286 43.286 0 00-3 5.5c3.247 1.466 5.58.466 7-3l1 1c-2.646 5.675-6.813 7.342-12.5 5-.667-1.667-.667-3.333 0-5 1.788-1.504 2.288-3.171 1.5-5a39.986 39.986 0 01-6 8.5c-2.452.29-4.785.956-7 2-3.774 1.183-6.941.349-9.5-2.5a95.668 95.668 0 00-11 3c-2.738.214-4.904-.786-6.5-3-2.078 2.486-4.745 3.486-8 3 .057-3.633-.943-3.8-3-.5-5.5 1.167-7.667-1-6.5-6.5 4.161-7.493 9.661-8.826 16.5-4-2.945-.027-5.945.307-9 1-2.707 1.836-3.374 4.169-2 7 1.688-1.529 3.021-3.363 4-5.5a8.43 8.43 0 014-.5 9.86 9.86 0 001 6 7.248 7.248 0 002.5-2 319.21 319.21 0 014.5-17z"/><path fill="#e4d4c7" d="M182.5 303.5c1.752-.082 2.752.751 3 2.5-.444 3.118-2.111 4.951-5 5.5.084-2.827.75-5.494 2-8z"/><path fill="#f4e8dc" d="M164.5 303.5h3c.68 4.291-.986 6.957-5 8-.217-2.921.449-5.587 2-8z"/><path fill="#693f2f" d="M312.5 292.5c4.302-.649 5.635.851 4 4.5a27.23 27.23 0 012 5.5c-1.478-.262-2.811.071-4 1a19.372 19.372 0 00-1 8 4.934 4.934 0 003-.5l6-8c4.549-3.464 8.882-3.297 13 .5-5.972-1.624-9.972.543-12 6.5.35 1.257 1.017 1.591 2 1a10.94 10.94 0 003-4.5c1.667-1.333 3.333-1.333 5 0-1.181 1.698-1.181 3.365 0 5a294.702 294.702 0 0110-11.5 12.93 12.93 0 015-.5c.073 13.543 2.407 14.21 7 2 1.545-.952 3.212-1.285 5-1a103.216 103.216 0 01-3 9.5l1 1.5c2.534-4.212 5.867-7.712 10-10.5 3.874-.972 7.207-.138 10 2.5-2.945-.027-5.945.307-9 1-2.707 1.836-3.374 4.169-2 7 1.688-1.529 3.021-3.363 4-5.5a8.43 8.43 0 014-.5c-.638 5.959.862 6.959 4.5 3-.928 4.399-3.761 6.399-8.5 6a4.934 4.934 0 00-.5-3c-3.333 4-6.667 4-10 0-3.182 3.924-6.182 3.924-9 0-3.809 2.592-7.976 3.425-12.5 2.5-1.102-3.06-.102-3.893 3-2.5 1.494-11.166-.34-11.166-5.5 0-3.269 3.774-6.269 3.774-9 0-2.838 3.535-6.005 3.868-9.5 1-3.818 2.891-7.318 2.557-10.5-1-2.317 2.597-5.15 3.43-8.5 2.5a42.195 42.195 0 01-1-9.5c-2.835 2.62-4.168 5.953-4 10-2.266.359-4.099-.308-5.5-2-2.747 2.534-5.413 2.534-8 0-7.074 4.031-9.741 2.031-8-6 4.47-6.382 9.97-7.548 16.5-3.5-.608.87-1.441 1.37-2.5 1.5-6.709-2.115-9.543.218-8.5 7 1.688-1.529 3.021-3.363 4-5.5a8.43 8.43 0 014-.5l-1 6c1.322.17 2.489-.163 3.5-1a147.393 147.393 0 003.5-9c2.174-1.393 4.007-1.06 5.5 1 3.237-2.995 5.737-2.662 7.5 1l-2 6c.233 1.432.9 1.932 2 1.5 2.858-2.896 3.858-6.229 3-10a28.187 28.187 0 004-8.5z"/><path fill="#764e3e" d="M359.5 293.5c1.175-.219 2.175.114 3 1-1.258 3-3.258 4-6 3a514.367 514.367 0 003-4z"/><path fill="#6b4131" d="M227.5 292.5a9.86 9.86 0 016 1 82.75 82.75 0 00-5 17c1.644.214 3.144-.12 4.5-1 1.998-5.322 3.998-10.655 6-16 1.356-.88 2.856-1.214 4.5-1a114.813 114.813 0 01-6 20c.502 1.021 1.168 1.188 2 .5a18.778 18.778 0 004.5-5.5c-.672 4.038-3.005 7.038-7 9-1.043 6.054-4.543 8.554-10.5 7.5-2.863-5.693-.863-8.526 6-8.5.249-3.075-1.085-3.742-4-2-1.874.11-3.374-.556-4.5-2-.883-4.648-.05-8.981 2.5-13-4.428-1.552-6.095.114-5 5-4.009.486-5.842-1.18-5.5-5a661.884 661.884 0 0111.5-6z"/><path fill="#ede0d3" d="M230.5 317.5c1.188 1.996.521 2.829-2 2.5.881-.708 1.547-1.542 2-2.5z"/><path fill="#6a4131" d="M268.5 291.5c1.788-.285 3.455.048 5 1-2.608 4.456-3.275 9.123-2 14-2.846.309-4.346 1.975-4.5 5-3.807 3.452-7.807 3.785-12 1-1.45-5.385.383-7.052 5.5-5-1.145 1.391-1.145 2.724 0 4 2.31-1.923 2.977-4.256 2-7 6.073-6.086 5.073-8.586-3-7.5a3.647 3.647 0 00-1 1.5c5.209 1.659 5.042 2.992-.5 4-4.271-.726-5.437-3.059-3.5-7a4.457 4.457 0 012-1.5l11-1c.556-.383.889-.883 1-1.5z"/><path fill="#693f30" d="M130.5 291.5c5.688-.969 8.688 1.364 9 7h-4c.278-1.846-.389-3.18-2-4-1.381.5-2.047 1.5-2 3a54.114 54.114 0 005.5 8c1.383 6.124-1.117 9.124-7.5 9-6.369.255-8.702-2.745-7-9h4c-1.008 5.167.825 6.834 5.5 5 .566-3.479-.767-6.145-4-8-2.572-4.611-1.739-8.278 2.5-11z"/><path fill="#fcb965" d="M154.5 333.5h15c1.295.988 2.628 1.988 4 3 .992-.172 1.658.162 2 1 .473 1.406 1.473 2.073 3 2 13.742 9.249 28.742 15.583 45 19 4.75 1.531 9.75 2.198 15 2h18c5.614.427 10.947-.24 16-2 19.004-3.505 36.337-10.839 52-22a308.607 308.607 0 004-3h16c-33.086 30.302-72.086 42.469-117 36.5-28.241-4.787-52.574-16.954-73-36.5zm25 1c46.313 29.329 92.647 29.329 139 0 2.582-.475 4.582.192 6 2-15.663 11.161-32.996 18.495-52 22a139.422 139.422 0 00-16 2h-18c-4.769-1.389-9.769-2.056-15-2-16.258-3.417-31.258-9.751-45-19-.473-1.406-1.473-2.073-3-2-.342-.838-1.008-1.172-2-1 1.49-1.78 3.49-2.446 6-2zm103 4c.577-1.273 1.243-1.273 2 0-.47.963-1.137.963-2 0zm-65 1c.577-1.273 1.243-1.273 2 0-.47.963-1.137.963-2 0zm57 0c1.837.139 2.17.806 1 2-.798-.457-1.131-1.124-1-2zm-40 2c1.273.577 1.273 1.243 0 2-.963-.47-.963-1.137 0-2zm32 1c.577-1.273 1.243-1.273 2 0-.47.963-1.137.963-2 0zm-24 0c1.837.139 2.17.806 1 2-.798-.457-1.131-1.124-1-2zm8 0c1.837.139 2.17.806 1 2-.798-.457-1.131-1.124-1-2zm8 1c.577-1.273 1.243-1.273 2 0-.47.963-1.137.963-2 0z"/><path fill="#fff1e0" d="M169.5 333.5h10v1c-2.51-.446-4.51.22-6 2a308.607 308.607 0 01-4-3z" opacity=".062"/><path fill="#fcb861" d="M179.5 333.5h23c.667 2.667 1.333 2.667 2 0h86c.667 4 1.333 4 2 0h26v1c-46.353 29.329-92.687 29.329-139 0v-1zm103 5c.863.963 1.53.963 2 0-.757-1.273-1.423-1.273-2 0zm-65 1c.863.963 1.53.963 2 0-.757-1.273-1.423-1.273-2 0zm57 0c-.131.876.202 1.543 1 2 1.17-1.194.837-1.861-1-2zm-40 2c-.963.863-.963 1.53 0 2 1.273-.757 1.273-1.423 0-2zm32 1c.863.963 1.53.963 2 0-.757-1.273-1.423-1.273-2 0zm-24 0c-.131.876.202 1.543 1 2 1.17-1.194.837-1.861-1-2zm8 0c-.131.876.202 1.543 1 2 1.17-1.194.837-1.861-1-2zm8 1c.863.963 1.53.963 2 0-.757-1.273-1.423-1.273-2 0z"/><path fill="#fff2e2" d="M318.5 334.5v-1h10a308.607 308.607 0 01-4 3c-1.418-1.808-3.418-2.475-6-2z" opacity=".062"/><path fill="#fee6c8" d="M202.5 333.5h2c-.667 2.667-1.333 2.667-2 0z" opacity=".522"/><path fill="#ffedd7" d="M290.5 333.5h2c-.667 4-1.333 4-2 0z" opacity=".109"/><path fill="#a06757" d="M115.5 277.5v55h230v1h-221a49.369 49.369 0 011 11l-2-1h-1a11.743 11.743 0 01-3-5c-2.004-1.173-3.504-2.84-4.5-5a881.746 881.746 0 01-.5-42c-19.837-1.328-39.837-1.328-60 0 .124.607.457.94 1 1a17.91 17.91 0 014 6 45.425 45.425 0 01-8-8c20.99-1 41.99-1.333 63-1-.317-4.202.017-8.202 1-12zm4 59c.751-1.073 1.751-1.24 3-.5-.852 1.728-1.852 1.895-3 .5z" opacity=".851"/><path fill="#dfc8bb" d="M114.5 291.5a871.15 871.15 0 00-59 1c-.543-.06-.876-.393-1-1 20.163-1.328 40.163-1.328 60 0z" opacity=".995"/><path fill="#f7ebdf" d="M119.5 338.5v-2a10.515 10.515 0 01-3-2.5 24.935 24.935 0 017-.5 32.462 32.462 0 01-.5 8 14.698 14.698 0 00-3.5-3zm0-2c1.148 1.395 2.148 1.228 3-.5-1.249-.74-2.249-.573-3 .5z" opacity=".068"/><path fill="#ffebd3" d="M210.5 337.5c-.543-.06-.876-.393-1-1 .825-.886 1.825-1.219 3-1 .219 1.175-.114 2.175-1 3-.607-.124-.94-.457-1-1z" opacity=".063"/><path fill="#fef2e1" d="M175.5 337.5c1.527-.073 2.527.594 3 2-1.527.073-2.527-.594-3-2z" opacity=".004"/><path fill="#dfc8bb" d="M55.5 342.5a992.735 992.735 0 0063 1h5a1190.256 1190.256 0 01-69 1c-.172-.992.162-1.658 1-2z" opacity=".937"/><path fill="#813e30" d="M123.5 343.5l2 1c-24.903 1.327-49.236 1.327-73 0h2c23.173.331 46.173-.002 69-1z" opacity=".897"/><path fill="#a16d62" d="M429.5 325.5a507.306 507.306 0 0118 19.5c-24.664.5-49.331.667-74 .5v-12h-28v-1h38c0 .667.333 1 1 1a57.487 57.487 0 00-8 10c10.425.677 21.592 1.011 33.5 1l34.5-1c-.124-.607-.457-.94-1-1a280.536 280.536 0 01-14-17zm-50 11c0 .667-.333 1-1 1a5.727 5.727 0 01-3-1v-1c1.763-1.454 3.097-1.12 4 1z" opacity=".853"/><path fill="#dfc8bb" d="M443.5 342.5c.543.06.876.393 1 1l-34.5 1c-11.908.011-23.075-.323-33.5-1 22.506.331 44.84-.003 67-1z" opacity=".979"/><path fill="#f1e2d5" d="M375.5 336.5c.891.61 1.891.943 3 1-3.631 6.972-4.631 6.639-3-1z" opacity=".129"/><path fill="#fbf1e5" d="M379.5 336.5c-.903-2.12-2.237-2.454-4-1 .652-1.225 1.819-1.892 3.5-2 4.272-.06 4.439.94.5 3z" opacity=".054"/><path fill="#ffeacf" d="M223.5 358.5c5.231-.056 10.231.611 15 2-5.25.198-10.25-.469-15-2z" opacity=".021"/><path fill="#ffdfb8" d="M272.5 358.5c-5.053 1.76-10.386 2.427-16 2a139.422 139.422 0 0116-2z" opacity=".961"/></svg>