<svg xmlns="http://www.w3.org/2000/svg" xmlns:xlink="http://www.w3.org/1999/xlink" version="1.1" style="shape-rendering:geometricPrecision; text-rendering:geometricPrecision; image-rendering:optimizeQuality; fill-rule:evenodd; clip-rule:evenodd" viewBox="51.5 92.97 396 278.5">
<g><path style="opacity:1" fill="#fcb965" d="M 381.5,277.5 C 377.167,277.5 372.833,277.5 368.5,277.5C 386.994,221.148 374.328,172.981 330.5,133C 286.068,100.287 238.734,95.6202 188.5,119C 139.178,148.474 117.012,191.974 122,249.5C 123.541,258.998 125.708,268.331 128.5,277.5C 124.833,277.5 121.167,277.5 117.5,277.5C 99.9846,216.375 114.985,164.875 162.5,123C 207.056,90.3089 255.056,84.3089 306.5,105C 351.036,126.55 377.869,161.717 387,210.5C 390.267,233.278 388.434,255.611 381.5,277.5 Z M 368.5,277.5 C 367.5,277.5 366.5,277.5 365.5,277.5C 365.5,276.167 365.5,274.833 365.5,273.5C 380.787,222.813 369.787,178.646 332.5,141C 297.625,111.367 257.958,102.367 213.5,114C 175.865,125.969 149.365,150.135 134,186.5C 122.858,216.795 122.692,247.128 133.5,277.5C 131.833,277.5 130.167,277.5 128.5,277.5C 125.708,268.331 123.541,258.998 122,249.5C 117.012,191.974 139.178,148.474 188.5,119C 238.734,95.6202 286.068,100.287 330.5,133C 374.328,172.981 386.994,221.148 368.5,277.5 Z M 242.5,119.5 C 243.573,120.251 243.74,121.251 243,122.5C 241.272,121.648 241.105,120.648 242.5,119.5 Z M 250.5,119.5 C 252.76,120.238 252.927,121.238 251,122.5C 250.517,121.552 250.351,120.552 250.5,119.5 Z M 234.5,120.5 C 235.773,121.077 235.773,121.743 234.5,122.5C 233.537,122.03 233.537,121.363 234.5,120.5 Z M 258.5,120.5 C 260.337,120.639 260.67,121.306 259.5,122.5C 258.702,122.043 258.369,121.376 258.5,120.5 Z M 266.5,121.5 C 268.337,121.639 268.67,122.306 267.5,123.5C 266.702,123.043 266.369,122.376 266.5,121.5 Z M 225.5,123.5 C 226.077,122.227 226.743,122.227 227.5,123.5C 227.03,124.463 226.363,124.463 225.5,123.5 Z M 217.5,125.5 C 218.077,124.227 218.743,124.227 219.5,125.5C 219.03,126.463 218.363,126.463 217.5,125.5 Z M 282.5,125.5 C 284.337,125.639 284.67,126.306 283.5,127.5C 282.702,127.043 282.369,126.376 282.5,125.5 Z M 210.5,126.5 C 211.773,127.077 211.773,127.743 210.5,128.5C 209.537,128.03 209.537,127.363 210.5,126.5 Z M 290.5,128.5 C 293.001,128.511 293.168,129.178 291,130.5C 290.536,129.906 290.369,129.239 290.5,128.5 Z M 202.5,129.5 C 203.289,129.783 203.956,130.283 204.5,131C 203.184,131.528 202.517,131.028 202.5,129.5 Z M 297.5,131.5 C 299.337,131.639 299.67,132.306 298.5,133.5C 297.702,133.043 297.369,132.376 297.5,131.5 Z M 194.5,133.5 C 196.337,133.639 196.67,134.306 195.5,135.5C 194.702,135.043 194.369,134.376 194.5,133.5 Z M 188.5,137.5 C 189.773,138.077 189.773,138.743 188.5,139.5C 187.537,139.03 187.537,138.363 188.5,137.5 Z M 181.5,142.5 C 184.001,142.511 184.168,143.178 182,144.5C 181.536,143.906 181.369,143.239 181.5,142.5 Z M 318.5,144.5 C 319.289,144.783 319.956,145.283 320.5,146C 319.184,146.528 318.517,146.028 318.5,144.5 Z M 174.5,147.5 C 176.337,147.639 176.67,148.306 175.5,149.5C 174.702,149.043 174.369,148.376 174.5,147.5 Z M 324.5,151.5 C 325.077,150.227 325.743,150.227 326.5,151.5C 326.03,152.463 325.363,152.463 324.5,151.5 Z M 168.5,153.5 C 170.337,153.639 170.67,154.306 169.5,155.5C 168.702,155.043 168.369,154.376 168.5,153.5 Z M 163.5,159.5 C 165.337,159.639 165.67,160.306 164.5,161.5C 163.702,161.043 163.369,160.376 163.5,159.5 Z M 335.5,163.5 C 336.077,162.227 336.743,162.227 337.5,163.5C 337.03,164.463 336.363,164.463 335.5,163.5 Z M 158.5,165.5 C 159.289,165.783 159.956,166.283 160.5,167C 159.184,167.528 158.517,167.028 158.5,165.5 Z M 341.5,168.5 C 342.573,169.251 342.74,170.251 342,171.5C 340.272,170.648 340.105,169.648 341.5,168.5 Z M 153.5,172.5 C 155.337,172.639 155.67,173.306 154.5,174.5C 153.702,174.043 153.369,173.376 153.5,172.5 Z M 345.5,175.5 C 346.573,176.251 346.74,177.251 346,178.5C 344.272,177.648 344.105,176.648 345.5,175.5 Z M 149.5,179.5 C 151.337,179.639 151.67,180.306 150.5,181.5C 149.702,181.043 149.369,180.376 149.5,179.5 Z M 348.5,184.5 C 349.077,183.227 349.743,183.227 350.5,184.5C 350.03,185.463 349.363,185.463 348.5,184.5 Z M 146.5,187.5 C 147.338,187.842 147.672,188.508 147.5,189.5C 145.895,188.994 145.561,188.327 146.5,187.5 Z M 352.5,190.5 C 353.289,190.783 353.956,191.283 354.5,192C 353.184,192.528 352.517,192.028 352.5,190.5 Z M 143.5,194.5 C 144.573,195.251 144.74,196.251 144,197.5C 142.272,196.648 142.105,195.648 143.5,194.5 Z M 355.5,198.5 C 356.773,199.077 356.773,199.743 355.5,200.5C 354.537,200.03 354.537,199.363 355.5,198.5 Z M 141.5,202.5 C 142.773,203.077 142.773,203.743 141.5,204.5C 140.537,204.03 140.537,203.363 141.5,202.5 Z M 140.5,210.5 C 140.5,211.833 139.833,212.5 138.5,212.5C 138.833,211.5 139.5,210.833 140.5,210.5 Z M 358.5,214.5 C 360.337,214.639 360.67,215.306 359.5,216.5C 358.702,216.043 358.369,215.376 358.5,214.5 Z M 137.5,219.5 C 139.337,219.639 139.67,220.306 138.5,221.5C 137.702,221.043 137.369,220.376 137.5,219.5 Z M 359.5,222.5 C 360.289,222.783 360.956,223.283 361.5,224C 360.184,224.528 359.517,224.028 359.5,222.5 Z M 136.5,228.5 C 137.251,227.427 138.251,227.26 139.5,228C 138.648,229.728 137.648,229.895 136.5,228.5 Z M 359.5,231.5 C 361.337,231.639 361.67,232.306 360.5,233.5C 359.702,233.043 359.369,232.376 359.5,231.5 Z M 359.5,239.5 C 361.337,239.639 361.67,240.306 360.5,241.5C 359.702,241.043 359.369,240.376 359.5,239.5 Z M 137.5,243.5 C 139.337,243.639 139.67,244.306 138.5,245.5C 137.702,245.043 137.369,244.376 137.5,243.5 Z M 358.5,247.5 C 359.289,247.783 359.956,248.283 360.5,249C 359.184,249.528 358.517,249.028 358.5,247.5 Z M 139.5,251.5 C 140.773,252.077 140.773,252.743 139.5,253.5C 138.537,253.03 138.537,252.363 139.5,251.5 Z"/></g>
<g><path style="opacity:1" fill="#fbb65e" d="M 365.5,273.5 C 364.655,274.671 363.989,276.005 363.5,277.5C 357.167,277.5 350.833,277.5 344.5,277.5C 347.282,273.676 348.282,269.51 347.5,265C 350.897,260.086 351.897,254.753 350.5,249C 351.044,247.415 351.711,245.915 352.5,244.5C 353.01,240.187 352.343,236.187 350.5,232.5C 351.997,230.71 352.664,228.544 352.5,226C 352.664,223.456 351.997,221.29 350.5,219.5C 350.5,219.167 350.5,218.833 350.5,218.5C 350.891,214.559 350.391,210.559 349,206.5C 346.547,201.968 344.714,197.301 343.5,192.5C 343.672,191.508 343.338,190.842 342.5,190.5C 341.206,188.672 340.206,186.672 339.5,184.5C 339.245,181.984 338.411,179.65 337,177.5C 332.053,169.555 326.72,161.889 321,154.5C 319.316,152.649 317.483,150.982 315.5,149.5C 314.21,151.657 313.376,153.99 313,156.5C 312.623,155.058 311.79,154.058 310.5,153.5C 307.367,149.933 303.367,147.933 298.5,147.5C 298.278,151.842 299.611,155.509 302.5,158.5C 303.29,159.794 304.29,160.961 305.5,162C 303.122,162.511 300.788,163.178 298.5,164C 304.394,169.897 309.561,176.397 314,183.5C 315.355,188.38 317.855,192.547 321.5,196C 321.05,200.614 322.716,204.447 326.5,207.5C 325.766,208.708 325.433,210.041 325.5,211.5C 326.508,214.844 327.508,218.177 328.5,221.5C 328.15,225.546 328.817,229.38 330.5,233C 329.536,237.066 329.203,241.233 329.5,245.5C 329.5,246.167 329.5,246.833 329.5,247.5C 327.909,251.204 327.076,255.204 327,259.5C 324.835,265.229 322.668,270.896 320.5,276.5C 314.256,277.458 307.923,277.791 301.5,277.5C 308.444,269.954 313.611,261.287 317,251.5C 317.498,248.183 317.665,244.85 317.5,241.5C 318.167,227.839 313.167,216.839 302.5,208.5C 302.5,207.833 302.167,207.5 301.5,207.5C 300.109,205.11 298.109,203.443 295.5,202.5C 294.564,201.026 293.23,200.026 291.5,199.5C 288.582,195.043 284.582,192.043 279.5,190.5C 279.082,189.778 278.416,189.278 277.5,189C 274.183,188.502 270.85,188.335 267.5,188.5C 262.664,185.624 257.331,184.291 251.5,184.5C 247.756,182.848 243.756,182.348 239.5,183C 224.077,187.024 209.744,193.357 196.5,202C 193.8,204.588 191.467,207.421 189.5,210.5C 186.677,211.992 185.01,214.326 184.5,217.5C 183.662,217.842 183.328,218.508 183.5,219.5C 181.425,223.474 180.425,227.808 180.5,232.5C 179.131,241.143 179.297,249.81 181,258.5C 181.759,261.785 183.092,264.785 185,267.5C 188.371,270.703 191.538,274.036 194.5,277.5C 188.537,278.045 182.87,277.379 177.5,275.5C 177.585,274.005 176.919,273.005 175.5,272.5C 174.67,269.179 174.003,265.846 173.5,262.5C 173.5,261.833 173.167,261.5 172.5,261.5C 172.5,261.167 172.5,260.833 172.5,260.5C 171.903,257.059 171.237,253.725 170.5,250.5C 170.737,249.209 170.404,248.209 169.5,247.5C 168.167,246.5 168.167,245.5 169.5,244.5C 169.706,240.102 169.373,235.768 168.5,231.5C 169.997,229.71 170.664,227.544 170.5,225C 170.456,223.236 170.122,221.569 169.5,220C 171.697,217.579 173.03,214.745 173.5,211.5C 173.567,210.041 173.234,208.708 172.5,207.5C 176.23,204.041 178.396,199.708 179,194.5C 181.584,192.326 183.418,189.659 184.5,186.5C 184.5,185.5 184.5,184.5 184.5,183.5C 186.371,183.141 187.871,182.141 189,180.5C 192.252,174.748 196.085,169.415 200.5,164.5C 198.78,163.066 196.78,162.233 194.5,162C 198.553,158.394 200.886,153.894 201.5,148.5C 195.456,148.272 190.623,150.605 187,155.5C 186.185,153.377 185.185,151.377 184,149.5C 179.857,152.8 176.691,156.8 174.5,161.5C 173.5,161.833 172.833,162.5 172.5,163.5C 170.478,165.531 168.811,167.865 167.5,170.5C 167.279,172.664 166.279,174.33 164.5,175.5C 161.113,180.164 158.446,185.164 156.5,190.5C 155.442,191.6 154.608,192.934 154,194.5C 153.886,199.2 152.719,203.534 150.5,207.5C 150.182,213.688 148.848,219.855 146.5,226C 146.336,228.544 147.003,230.71 148.5,232.5C 147.298,234.723 146.631,237.223 146.5,240C 146.307,243.243 146.973,246.243 148.5,249C 147.556,251.719 147.223,254.552 147.5,257.5C 147.953,259.565 148.953,261.232 150.5,262.5C 151.082,264.669 151.082,267.002 150.5,269.5C 151.499,272.162 152.499,274.828 153.5,277.5C 151.5,277.5 149.5,277.5 147.5,277.5C 147.167,274.833 146.833,274.833 146.5,277.5C 142.167,277.5 137.833,277.5 133.5,277.5C 122.692,247.128 122.858,216.795 134,186.5C 149.365,150.135 175.865,125.969 213.5,114C 257.958,102.367 297.625,111.367 332.5,141C 369.787,178.646 380.787,222.813 365.5,273.5 Z M 242.5,119.5 C 241.105,120.648 241.272,121.648 243,122.5C 243.74,121.251 243.573,120.251 242.5,119.5 Z M 250.5,119.5 C 250.351,120.552 250.517,121.552 251,122.5C 252.927,121.238 252.76,120.238 250.5,119.5 Z M 234.5,120.5 C 233.537,121.363 233.537,122.03 234.5,122.5C 235.773,121.743 235.773,121.077 234.5,120.5 Z M 258.5,120.5 C 258.369,121.376 258.702,122.043 259.5,122.5C 260.67,121.306 260.337,120.639 258.5,120.5 Z M 266.5,121.5 C 266.369,122.376 266.702,123.043 267.5,123.5C 268.67,122.306 268.337,121.639 266.5,121.5 Z M 225.5,123.5 C 226.363,124.463 227.03,124.463 227.5,123.5C 226.743,122.227 226.077,122.227 225.5,123.5 Z M 217.5,125.5 C 218.363,126.463 219.03,126.463 219.5,125.5C 218.743,124.227 218.077,124.227 217.5,125.5 Z M 282.5,125.5 C 282.369,126.376 282.702,127.043 283.5,127.5C 284.67,126.306 284.337,125.639 282.5,125.5 Z M 210.5,126.5 C 209.537,127.363 209.537,128.03 210.5,128.5C 211.773,127.743 211.773,127.077 210.5,126.5 Z M 290.5,128.5 C 290.369,129.239 290.536,129.906 291,130.5C 293.168,129.178 293.001,128.511 290.5,128.5 Z M 202.5,129.5 C 202.517,131.028 203.184,131.528 204.5,131C 203.956,130.283 203.289,129.783 202.5,129.5 Z M 297.5,131.5 C 297.369,132.376 297.702,133.043 298.5,133.5C 299.67,132.306 299.337,131.639 297.5,131.5 Z M 194.5,133.5 C 194.369,134.376 194.702,135.043 195.5,135.5C 196.67,134.306 196.337,133.639 194.5,133.5 Z M 188.5,137.5 C 187.537,138.363 187.537,139.03 188.5,139.5C 189.773,138.743 189.773,138.077 188.5,137.5 Z M 181.5,142.5 C 181.369,143.239 181.536,143.906 182,144.5C 184.168,143.178 184.001,142.511 181.5,142.5 Z M 318.5,144.5 C 318.517,146.028 319.184,146.528 320.5,146C 319.956,145.283 319.289,144.783 318.5,144.5 Z M 174.5,147.5 C 174.369,148.376 174.702,149.043 175.5,149.5C 176.67,148.306 176.337,147.639 174.5,147.5 Z M 324.5,151.5 C 325.363,152.463 326.03,152.463 326.5,151.5C 325.743,150.227 325.077,150.227 324.5,151.5 Z M 168.5,153.5 C 168.369,154.376 168.702,155.043 169.5,155.5C 170.67,154.306 170.337,153.639 168.5,153.5 Z M 163.5,159.5 C 163.369,160.376 163.702,161.043 164.5,161.5C 165.67,160.306 165.337,159.639 163.5,159.5 Z M 335.5,163.5 C 336.363,164.463 337.03,164.463 337.5,163.5C 336.743,162.227 336.077,162.227 335.5,163.5 Z M 158.5,165.5 C 158.517,167.028 159.184,167.528 160.5,167C 159.956,166.283 159.289,165.783 158.5,165.5 Z M 341.5,168.5 C 340.105,169.648 340.272,170.648 342,171.5C 342.74,170.251 342.573,169.251 341.5,168.5 Z M 153.5,172.5 C 153.369,173.376 153.702,174.043 154.5,174.5C 155.67,173.306 155.337,172.639 153.5,172.5 Z M 345.5,175.5 C 344.105,176.648 344.272,177.648 346,178.5C 346.74,177.251 346.573,176.251 345.5,175.5 Z M 149.5,179.5 C 149.369,180.376 149.702,181.043 150.5,181.5C 151.67,180.306 151.337,179.639 149.5,179.5 Z M 348.5,184.5 C 349.363,185.463 350.03,185.463 350.5,184.5C 349.743,183.227 349.077,183.227 348.5,184.5 Z M 146.5,187.5 C 147.338,187.842 147.672,188.508 147.5,189.5C 145.895,188.994 145.561,188.327 146.5,187.5 Z M 352.5,190.5 C 352.517,192.028 353.184,192.528 354.5,192C 353.956,191.283 353.289,190.783 352.5,190.5 Z M 143.5,194.5 C 142.105,195.648 142.272,196.648 144,197.5C 144.74,196.251 144.573,195.251 143.5,194.5 Z M 355.5,198.5 C 354.537,199.363 354.537,200.03 355.5,200.5C 356.773,199.743 356.773,199.077 355.5,198.5 Z M 141.5,202.5 C 140.537,203.363 140.537,204.03 141.5,204.5C 142.773,203.743 142.773,203.077 141.5,202.5 Z M 140.5,210.5 C 140.5,211.833 139.833,212.5 138.5,212.5C 138.833,211.5 139.5,210.833 140.5,210.5 Z M 358.5,214.5 C 358.369,215.376 358.702,216.043 359.5,216.5C 360.67,215.306 360.337,214.639 358.5,214.5 Z M 137.5,219.5 C 137.369,220.376 137.702,221.043 138.5,221.5C 139.67,220.306 139.337,219.639 137.5,219.5 Z M 359.5,222.5 C 359.517,224.028 360.184,224.528 361.5,224C 360.956,223.283 360.289,222.783 359.5,222.5 Z M 136.5,228.5 C 137.648,229.895 138.648,229.728 139.5,228C 138.251,227.26 137.251,227.427 136.5,228.5 Z M 359.5,231.5 C 359.369,232.376 359.702,233.043 360.5,233.5C 361.67,232.306 361.337,231.639 359.5,231.5 Z M 359.5,239.5 C 359.369,240.376 359.702,241.043 360.5,241.5C 361.67,240.306 361.337,239.639 359.5,239.5 Z M 137.5,243.5 C 137.369,244.376 137.702,245.043 138.5,245.5C 139.67,244.306 139.337,243.639 137.5,243.5 Z M 358.5,247.5 C 358.517,249.028 359.184,249.528 360.5,249C 359.956,248.283 359.289,247.783 358.5,247.5 Z M 139.5,251.5 C 138.537,252.363 138.537,253.03 139.5,253.5C 140.773,252.743 140.773,252.077 139.5,251.5 Z"/></g>
<g><path style="opacity:1" fill="#854434" d="M 246.5,133.5 C 249.31,135.742 252.31,137.742 255.5,139.5C 253.233,142.029 251.899,145.029 251.5,148.5C 250.167,147.833 248.833,147.167 247.5,146.5C 243.463,149.292 241.63,147.958 242,142.5C 238.466,139.055 239.299,137.221 244.5,137C 245.305,135.887 245.972,134.721 246.5,133.5 Z"/></g>
<g><path style="opacity:0.259" fill="#ffe3c2" d="M 312.5,139.5 C 312.833,142.167 313.167,142.167 313.5,139.5C 314.404,140.209 314.737,141.209 314.5,142.5C 313.5,142.5 312.5,142.5 311.5,142.5C 311.263,141.209 311.596,140.209 312.5,139.5 Z"/></g>
<g><path style="opacity:1" fill="#874635" d="M 268.5,137.5 C 269.496,137.414 270.329,137.748 271,138.5C 271.333,139.833 271.667,141.167 272,142.5C 276.716,145.107 276.382,147.107 271,148.5C 270.51,149.793 270.343,151.127 270.5,152.5C 267.118,151.237 263.618,150.237 260,149.5C 260.112,147.822 260.612,146.155 261.5,144.5C 260.954,142.865 260.62,141.199 260.5,139.5C 263.553,139.889 266.22,139.223 268.5,137.5 Z"/></g>
<g><path style="opacity:1" fill="#874635" d="M 224.5,137.5 C 226.929,137.585 228.929,138.585 230.5,140.5C 231.736,139.754 233.07,139.421 234.5,139.5C 233.167,143.167 233.167,146.833 234.5,150.5C 230.744,150.533 227.411,151.533 224.5,153.5C 224.785,151.712 224.452,150.045 223.5,148.5C 218.458,146.777 218.292,144.777 223,142.5C 223.352,140.753 223.852,139.086 224.5,137.5 Z"/></g>
<g><path style="opacity:1" fill="#d68e56" d="M 310.5,153.5 C 312.814,162.741 310.647,163.741 304,156.5C 303.722,157.416 303.222,158.082 302.5,158.5C 299.611,155.509 298.278,151.842 298.5,147.5C 303.367,147.933 307.367,149.933 310.5,153.5 Z"/></g>
<g><path style="opacity:1" fill="#d28a54" d="M 184.5,183.5 C 181.236,184.324 177.902,184.658 174.5,184.5C 174.66,182.801 174.494,181.134 174,179.5C 172.667,182.167 171.333,182.167 170,179.5C 169.027,176.421 168.194,173.421 167.5,170.5C 168.811,167.865 170.478,165.531 172.5,163.5C 173.496,163.586 174.329,163.252 175,162.5C 175.927,166.013 176.761,169.513 177.5,173C 182.047,174.545 186.713,174.879 191.5,174C 188.833,173.667 186.167,173.333 183.5,173C 182.773,171.601 182.273,170.101 182,168.5C 180.951,169.517 179.784,169.684 178.5,169C 177.684,167.077 177.017,165.077 176.5,163C 176.164,161.97 175.497,161.47 174.5,161.5C 176.691,156.8 179.857,152.8 184,149.5C 185.185,151.377 186.185,153.377 187,155.5C 190.623,150.605 195.456,148.272 201.5,148.5C 200.886,153.894 198.553,158.394 194.5,162C 196.78,162.233 198.78,163.066 200.5,164.5C 196.085,169.415 192.252,174.748 189,180.5C 187.871,182.141 186.371,183.141 184.5,183.5 Z"/></g>
<g><path style="opacity:1" fill="#854231" d="M 185.5,158.5 C 186.29,159.609 186.79,160.942 187,162.5C 188.067,163.191 189.234,163.691 190.5,164C 188.833,164.833 187.167,165.667 185.5,166.5C 184.795,163.911 184.795,161.244 185.5,158.5 Z"/></g>
<g><path style="opacity:1" fill="#8e4a35" d="M 174.5,161.5 C 175.497,161.47 176.164,161.97 176.5,163C 177.017,165.077 177.684,167.077 178.5,169C 179.784,169.684 180.951,169.517 182,168.5C 182.273,170.101 182.773,171.601 183.5,173C 186.167,173.333 188.833,173.667 191.5,174C 186.713,174.879 182.047,174.545 177.5,173C 176.761,169.513 175.927,166.013 175,162.5C 174.329,163.252 173.496,163.586 172.5,163.5C 172.833,162.5 173.5,161.833 174.5,161.5 Z"/></g>
<g><path style="opacity:1" fill="#8f4b35" d="M 167.5,170.5 C 168.194,173.421 169.027,176.421 170,179.5C 171.333,182.167 172.667,182.167 174,179.5C 174.494,181.134 174.66,182.801 174.5,184.5C 177.902,184.658 181.236,184.324 184.5,183.5C 184.5,184.5 184.5,185.5 184.5,186.5C 179.595,185.555 174.595,185.221 169.5,185.5C 168.833,182.167 168.167,178.833 167.5,175.5C 166.5,175.5 165.5,175.5 164.5,175.5C 166.279,174.33 167.279,172.664 167.5,170.5 Z"/></g>
<g><path style="opacity:1" fill="#cd6824" d="M 251.5,184.5 C 246.353,186.312 242.02,189.312 238.5,193.5C 232.886,192.379 227.22,192.212 221.5,193C 219.277,193.566 217.277,194.4 215.5,195.5C 218.977,196.323 222.644,196.823 226.5,197C 227.416,197.278 228.082,197.778 228.5,198.5C 224.363,201.805 220.697,205.638 217.5,210C 213.649,210.54 209.815,210.374 206,209.5C 201.574,210.19 197.241,211.19 193,212.5C 191.319,212.392 190.152,211.725 189.5,210.5C 191.467,207.421 193.8,204.588 196.5,202C 209.744,193.357 224.077,187.024 239.5,183C 243.756,182.348 247.756,182.848 251.5,184.5 Z"/></g>
<g><path style="opacity:1" fill="#b2572f" d="M 251.5,184.5 C 257.331,184.291 262.664,185.624 267.5,188.5C 267.5,189.167 267.167,189.5 266.5,189.5C 259.481,188.911 253.481,191.411 248.5,197C 246.361,198.404 244.028,199.237 241.5,199.5C 236.954,197.978 232.454,196.311 228,194.5C 223.874,195.329 219.707,195.663 215.5,195.5C 217.277,194.4 219.277,193.566 221.5,193C 227.22,192.212 232.886,192.379 238.5,193.5C 242.02,189.312 246.353,186.312 251.5,184.5 Z"/></g>
<g><path style="opacity:0.259" fill="#fee2be" d="M 146.5,187.5 C 147.302,186.115 147.969,186.282 148.5,188C 148.43,188.765 148.097,189.265 147.5,189.5C 147.672,188.508 147.338,187.842 146.5,187.5 Z"/></g>
<g><path style="opacity:1" fill="#9c441f" d="M 266.5,189.5 C 264.77,190.026 263.436,191.026 262.5,192.5C 259.37,193.572 256.704,195.406 254.5,198C 258.943,198.528 263.277,199.528 267.5,201C 269.584,201.697 271.251,202.864 272.5,204.5C 268.367,202.511 264.033,201.011 259.5,200C 256.621,199.126 253.955,199.46 251.5,201C 260.234,202.534 267.234,206.867 272.5,214C 273.609,214.638 274.775,215.138 276,215.5C 280.155,212.013 284.322,208.513 288.5,205C 290.65,203.589 292.984,202.755 295.5,202.5C 298.109,203.443 300.109,205.11 301.5,207.5C 301.586,208.496 301.252,209.329 300.5,210C 295.531,211.46 290.531,212.794 285.5,214C 284.5,215 283.5,216 282.5,217C 288.553,218.774 293.72,221.941 298,226.5C 299.411,228.65 300.245,230.984 300.5,233.5C 296.53,230.509 292.53,227.509 288.5,224.5C 280.441,220.664 272.775,221.498 265.5,227C 268.398,231.4 272.065,234.9 276.5,237.5C 278.64,240.165 281.14,242.498 284,244.5C 285.944,248.11 288.277,251.443 291,254.5C 293.559,258.637 294.059,262.97 292.5,267.5C 292.167,267.5 291.833,267.5 291.5,267.5C 288.311,263.149 284.311,259.649 279.5,257C 274.055,255.112 269.055,252.445 264.5,249C 263.207,248.51 261.873,248.343 260.5,248.5C 256.334,245.916 252,243.583 247.5,241.5C 245.565,240.291 243.565,240.458 241.5,242C 235.057,247.776 228.057,252.776 220.5,257C 218.962,258.932 217.795,261.099 217,263.5C 214.881,259.655 215.214,255.988 218,252.5C 224.495,247.004 230.662,241.171 236.5,235C 233.239,231.209 229.239,228.709 224.5,227.5C 222.133,226.086 219.633,224.752 217,223.5C 215.333,224.733 213.833,226.067 212.5,227.5C 210.251,228.08 208.585,229.413 207.5,231.5C 206.127,231.657 204.793,231.49 203.5,231C 206.535,227.63 209.868,224.63 213.5,222C 211.68,220.311 209.68,220.145 207.5,221.5C 207.953,220.542 208.619,219.708 209.5,219C 206.347,216.843 202.847,215.676 199,215.5C 193.543,215.989 188.376,217.322 183.5,219.5C 183.328,218.508 183.662,217.842 184.5,217.5C 189.406,215.255 194.573,213.922 200,213.5C 205.941,214.313 211.775,215.646 217.5,217.5C 218.5,217.167 219.5,216.833 220.5,216.5C 224.565,211.432 229.232,207.098 234.5,203.5C 233.069,201.062 231.069,199.396 228.5,198.5C 228.082,197.778 227.416,197.278 226.5,197C 222.644,196.823 218.977,196.323 215.5,195.5C 219.707,195.663 223.874,195.329 228,194.5C 232.454,196.311 236.954,197.978 241.5,199.5C 244.028,199.237 246.361,198.404 248.5,197C 253.481,191.411 259.481,188.911 266.5,189.5 Z"/></g>
<g><path style="opacity:1" fill="#d38b54" d="M 164.5,175.5 C 165.5,175.5 166.5,175.5 167.5,175.5C 168.167,178.833 168.833,182.167 169.5,185.5C 174.595,185.221 179.595,185.555 184.5,186.5C 183.418,189.659 181.584,192.326 179,194.5C 178.396,199.708 176.23,204.041 172.5,207.5C 169.37,209.023 166.037,209.689 162.5,209.5C 162.66,207.801 162.494,206.134 162,204.5C 161.632,205.91 160.799,206.91 159.5,207.5C 155.259,205.012 153.759,201.345 155,196.5C 155.318,194.939 156.151,193.772 157.5,193C 156.748,192.329 156.414,191.496 156.5,190.5C 158.446,185.164 161.113,180.164 164.5,175.5 Z"/></g>
<g><path style="opacity:1" fill="#d4793a" d="M 267.5,188.5 C 270.85,188.335 274.183,188.502 277.5,189C 278.416,189.278 279.082,189.778 279.5,190.5C 279.062,190.435 278.728,190.601 278.5,191C 281.986,192.46 283.819,194.96 284,198.5C 283.667,198.167 283.333,197.833 283,197.5C 280.379,198.613 277.879,199.946 275.5,201.5C 270.678,200.464 266.012,199.13 261.5,197.5C 261.629,195.784 261.962,194.117 262.5,192.5C 263.436,191.026 264.77,190.026 266.5,189.5C 267.167,189.5 267.5,189.167 267.5,188.5 Z"/></g>
<g><path style="opacity:1" fill="#dc945a" d="M 342.5,190.5 C 343.338,190.842 343.672,191.508 343.5,192.5C 344.553,195.852 344.553,199.185 343.5,202.5C 342.808,201.975 342.308,201.308 342,200.5C 341.131,205.508 340.464,205.175 340,199.5C 339.536,205.175 338.869,205.508 338,200.5C 337.667,200.833 337.333,201.167 337,201.5C 336.506,199.866 336.34,198.199 336.5,196.5C 337.228,194.488 338.062,192.488 339,190.5C 340.145,189.316 341.312,189.316 342.5,190.5 Z"/></g>
<g><path style="opacity:1" fill="#cb6622" d="M 279.5,190.5 C 284.582,192.043 288.582,195.043 291.5,199.5C 285.056,199.065 279.89,201.399 276,206.5C 275.184,205.177 274.017,204.511 272.5,204.5C 271.251,202.864 269.584,201.697 267.5,201C 263.277,199.528 258.943,198.528 254.5,198C 256.704,195.406 259.37,193.572 262.5,192.5C 261.962,194.117 261.629,195.784 261.5,197.5C 266.012,199.13 270.678,200.464 275.5,201.5C 277.879,199.946 280.379,198.613 283,197.5C 283.333,197.833 283.667,198.167 284,198.5C 283.819,194.96 281.986,192.46 278.5,191C 278.728,190.601 279.062,190.435 279.5,190.5 Z"/></g>
<g><path style="opacity:1" fill="#884532" d="M 167.5,190.5 C 167.929,191.953 168.096,193.619 168,195.5C 169.734,196.249 171.567,196.749 173.5,197C 169.909,197.789 166.409,197.622 163,196.5C 161.813,194.956 161.48,193.289 162,191.5C 163.398,192.051 164.732,192.384 166,192.5C 166.717,191.956 167.217,191.289 167.5,190.5 Z"/></g>
<g><path style="opacity:1" fill="#8c4834" d="M 339.5,184.5 C 340.206,186.672 341.206,188.672 342.5,190.5C 341.312,189.316 340.145,189.316 339,190.5C 338.062,192.488 337.228,194.488 336.5,196.5C 327.33,197.563 325.663,197.563 331.5,196.5C 331.34,194.801 331.506,193.134 332,191.5C 333.402,193.973 334.902,193.973 336.5,191.5C 337.869,189.236 338.869,186.903 339.5,184.5 Z"/></g>
<g><path style="opacity:1" fill="#d08953" d="M 339.5,184.5 C 338.869,186.903 337.869,189.236 336.5,191.5C 334.902,193.973 333.402,193.973 332,191.5C 331.506,193.134 331.34,194.801 331.5,196.5C 325.663,197.563 327.33,197.563 336.5,196.5C 336.34,198.199 336.506,199.866 337,201.5C 337.333,201.167 337.667,200.833 338,200.5C 338.869,205.508 339.536,205.175 340,199.5C 340.464,205.175 341.131,205.508 342,200.5C 342.308,201.308 342.808,201.975 343.5,202.5C 344.553,199.185 344.553,195.852 343.5,192.5C 344.714,197.301 346.547,201.968 349,206.5C 350.391,210.559 350.891,214.559 350.5,218.5C 348.071,218.585 346.071,219.585 344.5,221.5C 343.376,219.631 342.543,217.631 342,215.5C 341.667,216.5 341.333,217.5 341,218.5C 340.333,216.167 340.333,213.833 341,211.5C 342.301,209.598 342.968,207.598 343,205.5C 341.295,206.763 339.628,207.097 338,206.5C 337.424,208.852 335.924,209.852 333.5,209.5C 331.022,209.228 328.689,208.562 326.5,207.5C 322.716,204.447 321.05,200.614 321.5,196C 317.855,192.547 315.355,188.38 314,183.5C 309.561,176.397 304.394,169.897 298.5,164C 300.788,163.178 303.122,162.511 305.5,162C 304.29,160.961 303.29,159.794 302.5,158.5C 303.222,158.082 303.722,157.416 304,156.5C 310.647,163.741 312.814,162.741 310.5,153.5C 311.79,154.058 312.623,155.058 313,156.5C 313.376,153.99 314.21,151.657 315.5,149.5C 317.483,150.982 319.316,152.649 321,154.5C 326.72,161.889 332.053,169.555 337,177.5C 338.411,179.65 339.245,181.984 339.5,184.5 Z"/></g>
<g><path style="opacity:1" fill="#874332" d="M 330.5,176.5 C 331.097,176.735 331.43,177.235 331.5,178C 330.956,180.4 330.289,182.733 329.5,185C 325.167,185.667 320.833,185.667 316.5,185C 319.167,184.667 321.833,184.333 324.5,184C 325.337,182.989 325.67,181.822 325.5,180.5C 328.546,180.817 330.213,179.484 330.5,176.5 Z"/></g>
<g><path style="opacity:1" fill="#894533" d="M 316.5,167.5 C 318.456,169.897 320.29,169.897 322,167.5C 322.687,169.568 322.52,171.568 321.5,173.5C 317.205,174.661 312.871,174.828 308.5,174C 311.167,173.667 313.833,173.333 316.5,173C 317.536,171.224 317.536,169.391 316.5,167.5 Z"/></g>
<g><path style="opacity:1" fill="#864332" d="M 313.5,160.5 C 316.583,166.485 315.249,167.652 309.5,164C 311.55,163.584 312.884,162.417 313.5,160.5 Z"/></g>
<g><path style="opacity:1" fill="#d67c3d" d="M 208.5,198.5 C 213.167,198.5 217.833,198.5 222.5,198.5C 221.242,205.238 217.075,208.571 210,208.5C 209.261,207.426 208.261,206.759 207,206.5C 203.124,206.339 199.291,206.839 195.5,208C 199.446,204.208 203.78,201.041 208.5,198.5 Z"/></g>
<g><path style="opacity:1" fill="#b1562f" d="M 272.5,204.5 C 274.017,204.511 275.184,205.177 276,206.5C 279.89,201.399 285.056,199.065 291.5,199.5C 293.23,200.026 294.564,201.026 295.5,202.5C 292.984,202.755 290.65,203.589 288.5,205C 284.322,208.513 280.155,212.013 276,215.5C 274.775,215.138 273.609,214.638 272.5,214C 267.234,206.867 260.234,202.534 251.5,201C 253.955,199.46 256.621,199.126 259.5,200C 264.033,201.011 268.367,202.511 272.5,204.5 Z"/></g>
<g><path style="opacity:1" fill="#d68e57" d="M 155.5,221.5 C 154.233,220.913 153.233,220.913 152.5,221.5C 155.248,224.661 156.581,228.327 156.5,232.5C 155.778,232.918 155.278,233.584 155,234.5C 154.333,231.833 153.667,231.833 153,234.5C 152.667,233.833 152.333,233.167 152,232.5C 150.855,233.684 149.688,233.684 148.5,232.5C 147.003,230.71 146.336,228.544 146.5,226C 148.848,219.855 150.182,213.688 150.5,207.5C 151.558,206.4 152.392,205.066 153,203.5C 157.462,207.553 159.129,212.553 158,218.5C 157.667,217.5 157.333,216.5 157,215.5C 156.187,217.436 155.687,219.436 155.5,221.5 Z"/></g>
<g><path style="opacity:1" fill="#d06f32" d="M 264.5,214.5 C 264.586,215.496 264.252,216.329 263.5,217C 261.942,217.21 260.609,217.71 259.5,218.5C 258.246,216.643 258.246,214.643 259.5,212.5C 252.74,206.803 245.573,206.137 238,210.5C 238.266,213.901 236.766,215.567 233.5,215.5C 232.5,214.833 231.5,214.167 230.5,213.5C 234.985,209.196 240.151,205.862 246,203.5C 253.556,205.02 259.722,208.687 264.5,214.5 Z"/></g>
<g><path style="opacity:1" fill="#945038" d="M 156.5,190.5 C 156.414,191.496 156.748,192.329 157.5,193C 156.151,193.772 155.318,194.939 155,196.5C 153.759,201.345 155.259,205.012 159.5,207.5C 160.799,206.91 161.632,205.91 162,204.5C 162.494,206.134 162.66,207.801 162.5,209.5C 166.037,209.689 169.37,209.023 172.5,207.5C 173.234,208.708 173.567,210.041 173.5,211.5C 172.527,210.016 171.193,209.516 169.5,210C 163.61,211.865 160.443,215.698 160,221.5C 161.714,222.925 163.047,222.592 164,220.5C 164.5,221.667 165.333,222.5 166.5,223C 165.906,223.464 165.239,223.631 164.5,223.5C 161.453,224.145 159.287,223.145 158,220.5C 157.329,221.252 156.496,221.586 155.5,221.5C 155.687,219.436 156.187,217.436 157,215.5C 157.333,216.5 157.667,217.5 158,218.5C 159.129,212.553 157.462,207.553 153,203.5C 152.392,205.066 151.558,206.4 150.5,207.5C 152.719,203.534 153.886,199.2 154,194.5C 154.608,192.934 155.442,191.6 156.5,190.5 Z"/></g>
<g><path style="opacity:1" fill="#d87e3f" d="M 259.5,218.5 C 258.129,220.867 256.129,222.533 253.5,223.5C 246.735,220.773 240.068,218.107 233.5,215.5C 236.766,215.567 238.266,213.901 238,210.5C 245.573,206.137 252.74,206.803 259.5,212.5C 258.246,214.643 258.246,216.643 259.5,218.5 Z"/></g>
<g><path style="opacity:1" fill="#cd6723" d="M 302.5,208.5 C 313.167,216.839 318.167,227.839 317.5,241.5C 315.516,241.383 313.85,242.05 312.5,243.5C 310.901,246.627 309.734,249.96 309,253.5C 306.423,254.271 303.923,255.271 301.5,256.5C 300,259.5 298.5,262.5 297,265.5C 295.89,267.037 294.39,267.703 292.5,267.5C 294.059,262.97 293.559,258.637 291,254.5C 288.277,251.443 285.944,248.11 284,244.5C 281.14,242.498 278.64,240.165 276.5,237.5C 272.065,234.9 268.398,231.4 265.5,227C 272.775,221.498 280.441,220.664 288.5,224.5C 292.53,227.509 296.53,230.509 300.5,233.5C 301.636,231.971 301.802,229.638 301,226.5C 298.252,221.748 294.752,217.581 290.5,214C 293.529,213.461 296.529,212.794 299.5,212C 301.426,211.578 302.426,210.411 302.5,208.5 Z"/></g>
<g><path style="opacity:1" fill="#d38b55" d="M 173.5,211.5 C 173.03,214.745 171.697,217.579 169.5,220C 170.122,221.569 170.456,223.236 170.5,225C 170.664,227.544 169.997,229.71 168.5,231.5C 167.571,232.936 166.405,234.269 165,235.5C 163.667,235.5 162.333,235.5 161,235.5C 160.292,234.619 159.458,233.953 158.5,233.5C 159.464,229.576 161.464,226.243 164.5,223.5C 165.239,223.631 165.906,223.464 166.5,223C 165.333,222.5 164.5,221.667 164,220.5C 163.047,222.592 161.714,222.925 160,221.5C 160.443,215.698 163.61,211.865 169.5,210C 171.193,209.516 172.527,210.016 173.5,211.5 Z"/></g>
<g><path style="opacity:1" fill="#b75c34" d="M 228.5,198.5 C 231.069,199.396 233.069,201.062 234.5,203.5C 229.232,207.098 224.565,211.432 220.5,216.5C 219.5,216.833 218.5,217.167 217.5,217.5C 211.775,215.646 205.941,214.313 200,213.5C 194.573,213.922 189.406,215.255 184.5,217.5C 185.01,214.326 186.677,211.992 189.5,210.5C 190.152,211.725 191.319,212.392 193,212.5C 197.241,211.19 201.574,210.19 206,209.5C 209.815,210.374 213.649,210.54 217.5,210C 220.697,205.638 224.363,201.805 228.5,198.5 Z"/></g>
<g><path style="opacity:1" fill="#d48c56" d="M 332.5,222.5 C 331.292,219.478 329.958,219.145 328.5,221.5C 327.508,218.177 326.508,214.844 325.5,211.5C 327.481,209.266 329.815,209.1 332.5,211C 334.333,212.833 336.167,214.667 338,216.5C 339.301,218.365 339.635,220.365 339,222.5C 337.1,223.414 334.934,223.414 332.5,222.5 Z"/></g>
<g><path style="opacity:0.075" fill="#fee3c1" d="M 140.5,210.5 C 141.404,211.209 141.737,212.209 141.5,213.5C 140.209,213.737 139.209,213.404 138.5,212.5C 139.833,212.5 140.5,211.833 140.5,210.5 Z"/></g>
<g><path style="opacity:1" fill="#be643b" d="M 301.5,207.5 C 302.167,207.5 302.5,207.833 302.5,208.5C 302.426,210.411 301.426,211.578 299.5,212C 296.529,212.794 293.529,213.461 290.5,214C 294.752,217.581 298.252,221.748 301,226.5C 301.802,229.638 301.636,231.971 300.5,233.5C 300.245,230.984 299.411,228.65 298,226.5C 293.72,221.941 288.553,218.774 282.5,217C 283.5,216 284.5,215 285.5,214C 290.531,212.794 295.531,211.46 300.5,210C 301.252,209.329 301.586,208.496 301.5,207.5 Z"/></g>
<g><path style="opacity:1" fill="#b25932" d="M 230.5,213.5 C 231.5,214.167 232.5,214.833 233.5,215.5C 240.068,218.107 246.735,220.773 253.5,223.5C 256.129,222.533 258.129,220.867 259.5,218.5C 260.609,217.71 261.942,217.21 263.5,217C 264.252,216.329 264.586,215.496 264.5,214.5C 265.977,216.807 267.977,218.64 270.5,220C 266.993,222.254 263.327,224.254 259.5,226C 257.284,228.553 254.784,230.72 252,232.5C 242.59,228.544 233.424,224.21 224.5,219.5C 224.808,218.692 225.308,218.025 226,217.5C 229.476,220.186 229.976,219.853 227.5,216.5C 228.548,215.452 229.548,214.452 230.5,213.5 Z"/></g>
<g><path style="opacity:1" fill="#cc6724" d="M 207.5,221.5 C 206.206,222.29 205.039,223.29 204,224.5C 202.555,228.555 200.722,232.389 198.5,236C 198.667,236.5 198.833,237 199,237.5C 202.339,236.092 205.173,234.092 207.5,231.5C 208.585,229.413 210.251,228.08 212.5,227.5C 213.767,226.913 214.767,226.913 215.5,227.5C 209.42,231.08 204.92,236.08 202,242.5C 200.357,247.911 202.19,250.911 207.5,251.5C 215.436,250.949 221.936,247.615 227,241.5C 229,238.167 229,234.833 227,231.5C 223.903,229.702 220.737,228.035 217.5,226.5C 217.667,226.167 217.833,225.833 218,225.5C 220.007,226.669 222.173,227.335 224.5,227.5C 229.239,228.709 233.239,231.209 236.5,235C 230.662,241.171 224.495,247.004 218,252.5C 215.214,255.988 214.881,259.655 217,263.5C 217.795,261.099 218.962,258.932 220.5,257C 228.057,252.776 235.057,247.776 241.5,242C 243.565,240.458 245.565,240.291 247.5,241.5C 251.071,245.121 255.404,247.454 260.5,248.5C 261.873,248.343 263.207,248.51 264.5,249C 269.055,252.445 274.055,255.112 279.5,257C 284.311,259.649 288.311,263.149 291.5,267.5C 285.527,268.778 280.86,272.112 277.5,277.5C 264.167,277.5 250.833,277.5 237.5,277.5C 236.152,274.492 233.818,273.159 230.5,273.5C 226.727,273.86 223.061,274.693 219.5,276C 216.833,276.667 214.167,276.667 211.5,276C 209.344,272.575 207.678,268.908 206.5,265C 203.189,265.215 199.856,265.215 196.5,265C 195.214,262.978 194.214,260.811 193.5,258.5C 187.9,257.674 185.4,254.341 186,248.5C 185,247.5 184,246.5 183,245.5C 182.271,241.003 182.771,236.67 184.5,232.5C 183.167,232.5 181.833,232.5 180.5,232.5C 180.425,227.808 181.425,223.474 183.5,219.5C 188.376,217.322 193.543,215.989 199,215.5C 202.847,215.676 206.347,216.843 209.5,219C 208.619,219.708 207.953,220.542 207.5,221.5 Z"/></g>
<g><path style="opacity:1" fill="#da8143" d="M 193.5,217.5 C 197.034,217.032 200.034,218.032 202.5,220.5C 199.419,226.828 196.753,233.328 194.5,240C 191.783,241.033 189.949,240.2 189,237.5C 187.334,231.522 187.168,225.522 188.5,219.5C 190.553,219.598 192.22,218.931 193.5,217.5 Z"/></g>
<g><path style="opacity:1" fill="#d58d56" d="M 350.5,219.5 C 351.997,221.29 352.664,223.456 352.5,226C 352.664,228.544 351.997,230.71 350.5,232.5C 345.878,238.566 343.212,237.732 342.5,230C 343.148,224.864 345.815,221.364 350.5,219.5 Z"/></g>
<g><path style="opacity:1" fill="#d99159" d="M 151.5,236.5 C 153.94,239.043 155.606,242.043 156.5,245.5C 155.841,248.408 155.007,248.742 154,246.5C 152.521,251.665 150.688,251.832 148.5,247C 148.833,246.667 149.167,246.333 149.5,246C 148.267,244.302 147.6,242.302 147.5,240C 147.667,238.167 147.833,236.333 148,234.5C 148.816,235.823 149.983,236.489 151.5,236.5 Z"/></g>
<g><path style="opacity:1" fill="#b16c44" d="M 332.5,222.5 C 331.5,222.5 330.5,222.5 329.5,222.5C 329.488,226.619 330.488,230.452 332.5,234C 333.449,234.617 334.282,234.451 335,233.5C 335.667,234.167 336.333,234.833 337,235.5C 337.608,233.934 338.442,232.6 339.5,231.5C 341.521,235.683 340.188,238.016 335.5,238.5C 334.115,237.386 332.615,236.386 331,235.5C 330.821,239.025 330.321,242.359 329.5,245.5C 329.203,241.233 329.536,237.066 330.5,233C 328.817,229.38 328.15,225.546 328.5,221.5C 329.958,219.145 331.292,219.478 332.5,222.5 Z"/></g>
<g><path style="opacity:1" fill="#ad6843" d="M 148.5,232.5 C 149.688,233.684 150.855,233.684 152,232.5C 152.333,233.167 152.667,233.833 153,234.5C 153.667,231.833 154.333,231.833 155,234.5C 155.278,233.584 155.778,232.918 156.5,232.5C 156.748,236.827 155.082,238.161 151.5,236.5C 149.983,236.489 148.816,235.823 148,234.5C 147.833,236.333 147.667,238.167 147.5,240C 147.6,242.302 148.267,244.302 149.5,246C 149.167,246.333 148.833,246.667 148.5,247C 150.688,251.832 152.521,251.665 154,246.5C 155.007,248.742 155.841,248.408 156.5,245.5C 157.613,246.946 157.78,248.613 157,250.5C 156,251.833 155,251.833 154,250.5C 153.283,251.044 152.783,251.711 152.5,252.5C 151.279,251.972 150.113,251.305 149,250.5C 148.814,253.036 148.314,255.369 147.5,257.5C 147.223,254.552 147.556,251.719 148.5,249C 146.973,246.243 146.307,243.243 146.5,240C 146.631,237.223 147.298,234.723 148.5,232.5 Z"/></g>
<g><path style="opacity:1" fill="#d48c56" d="M 152.5,252.5 C 157.343,255.519 159.51,259.853 159,265.5C 158.275,266.059 157.442,266.392 156.5,266.5C 154.235,265.568 152.235,264.235 150.5,262.5C 148.953,261.232 147.953,259.565 147.5,257.5C 148.314,255.369 148.814,253.036 149,250.5C 150.113,251.305 151.279,251.972 152.5,252.5 Z"/></g>
<g><path style="opacity:0.259" fill="#ffe3c2" d="M 357.5,255.5 C 357.833,258.167 358.167,258.167 358.5,255.5C 359.404,256.209 359.737,257.209 359.5,258.5C 358.5,258.5 357.5,258.5 356.5,258.5C 356.263,257.209 356.596,256.209 357.5,255.5 Z"/></g>
<g><path style="opacity:0.114" fill="#feefdc" d="M 354.5,264.5 C 355.386,263.224 356.386,263.224 357.5,264.5C 357.376,265.107 357.043,265.44 356.5,265.5C 356.158,264.662 355.492,264.328 354.5,264.5 Z"/></g>
<g><path style="opacity:1" fill="#d89058" d="M 153.5,277.5 C 152.499,274.828 151.499,272.162 150.5,269.5C 151.158,268.602 151.824,267.602 152.5,266.5C 158.012,268.012 162.012,271.345 164.5,276.5C 160.893,277.489 157.226,277.823 153.5,277.5 Z"/></g>
<g><path style="opacity:0.082" fill="#ffe9cf" d="M 143.5,269.5 C 142.957,269.44 142.624,269.107 142.5,268.5C 143.325,267.614 144.325,267.281 145.5,267.5C 145.719,268.675 145.386,269.675 144.5,270.5C 143.893,270.376 143.56,270.043 143.5,269.5 Z"/></g>
<g><path style="opacity:1" fill="#d28a55" d="M 352.5,244.5 C 351.711,245.915 351.044,247.415 350.5,249C 351.897,254.753 350.897,260.086 347.5,265C 348.282,269.51 347.282,273.676 344.5,277.5C 332.346,278.071 331.679,274.904 342.5,268C 337.715,265.215 337.215,261.715 341,257.5C 343.887,254.613 346.554,251.946 349,249.5C 346.667,252.5 345,252.167 344,248.5C 342.803,250.883 341.97,250.55 341.5,247.5C 342.578,241.992 345.578,237.992 350.5,235.5C 351.167,238.642 351.834,241.642 352.5,244.5 Z"/></g>
<g><path style="opacity:0.977" fill="#854131" d="M 350.5,218.5 C 350.5,218.833 350.5,219.167 350.5,219.5C 345.815,221.364 343.148,224.864 342.5,230C 343.212,237.732 345.878,238.566 350.5,232.5C 352.343,236.187 353.01,240.187 352.5,244.5C 351.834,241.642 351.167,238.642 350.5,235.5C 345.578,237.992 342.578,241.992 341.5,247.5C 341.97,250.55 342.803,250.883 344,248.5C 345,252.167 346.667,252.5 349,249.5C 346.554,251.946 343.887,254.613 341,257.5C 337.215,261.715 337.715,265.215 342.5,268C 331.679,274.904 332.346,278.071 344.5,277.5C 350.833,277.5 357.167,277.5 363.5,277.5C 364.167,277.5 364.833,277.5 365.5,277.5C 366.5,277.5 367.5,277.5 368.5,277.5C 372.833,277.5 377.167,277.5 381.5,277.5C 382.5,277.5 383.5,277.5 384.5,277.5C 384.5,281.5 384.5,285.5 384.5,289.5C 405.909,289.167 426.576,289.501 446.5,290.5C 445.833,290.5 445.167,290.5 444.5,290.5C 424.5,290.5 404.5,290.5 384.5,290.5C 384.5,304.833 384.5,319.167 384.5,333.5C 383.833,333.5 383.5,333.167 383.5,332.5C 383.5,314.5 383.5,296.5 383.5,278.5C 294.167,278.5 204.833,278.5 115.5,278.5C 115.5,278.167 115.5,277.833 115.5,277.5C 116.167,277.5 116.833,277.5 117.5,277.5C 121.167,277.5 124.833,277.5 128.5,277.5C 130.167,277.5 131.833,277.5 133.5,277.5C 137.833,277.5 142.167,277.5 146.5,277.5C 146.833,277.5 147.167,277.5 147.5,277.5C 149.5,277.5 151.5,277.5 153.5,277.5C 157.226,277.823 160.893,277.489 164.5,276.5C 162.012,271.345 158.012,268.012 152.5,266.5C 151.824,267.602 151.158,268.602 150.5,269.5C 151.082,267.002 151.082,264.669 150.5,262.5C 152.235,264.235 154.235,265.568 156.5,266.5C 157.442,266.392 158.275,266.059 159,265.5C 159.51,259.853 157.343,255.519 152.5,252.5C 152.783,251.711 153.283,251.044 154,250.5C 155,251.833 156,251.833 157,250.5C 157.78,248.613 157.613,246.946 156.5,245.5C 155.606,242.043 153.94,239.043 151.5,236.5C 155.082,238.161 156.748,236.827 156.5,232.5C 156.581,228.327 155.248,224.661 152.5,221.5C 153.233,220.913 154.233,220.913 155.5,221.5C 156.496,221.586 157.329,221.252 158,220.5C 159.287,223.145 161.453,224.145 164.5,223.5C 161.464,226.243 159.464,229.576 158.5,233.5C 157.347,234.313 157.347,235.313 158.5,236.5C 160.46,237.519 162.46,237.519 164.5,236.5C 162.06,239.043 160.394,242.043 159.5,245.5C 158.387,246.946 158.22,248.613 159,250.5C 160.802,251.604 162.969,251.604 165.5,250.5C 163.642,252.883 162.308,255.55 161.5,258.5C 159.45,264.371 161.45,266.371 167.5,264.5C 165.857,268.3 165.19,272.3 165.5,276.5C 167.304,277.162 169.304,277.495 171.5,277.5C 173.952,277.461 175.952,276.794 177.5,275.5C 182.87,277.379 188.537,278.045 194.5,277.5C 208.833,277.5 223.167,277.5 237.5,277.5C 250.833,277.5 264.167,277.5 277.5,277.5C 285.5,277.5 293.5,277.5 301.5,277.5C 307.923,277.791 314.256,277.458 320.5,276.5C 323.792,276.853 327.125,277.187 330.5,277.5C 332.968,273.236 332.968,268.902 330.5,264.5C 330.5,264.167 330.5,263.833 330.5,263.5C 332.129,261.94 333.296,262.273 334,264.5C 334.471,262.754 335.138,261.087 336,259.5C 336.333,260.5 336.667,261.5 337,262.5C 337.545,258.263 336.378,254.597 333.5,251.5C 341.133,251.323 342.466,247.99 337.5,241.5C 336.833,240.5 336.167,239.5 335.5,238.5C 340.188,238.016 341.521,235.683 339.5,231.5C 338.275,227.612 335.941,224.612 332.5,222.5C 334.934,223.414 337.1,223.414 339,222.5C 339.635,220.365 339.301,218.365 338,216.5C 336.167,214.667 334.333,212.833 332.5,211C 329.815,209.1 327.481,209.266 325.5,211.5C 325.433,210.041 325.766,208.708 326.5,207.5C 328.689,208.562 331.022,209.228 333.5,209.5C 335.924,209.852 337.424,208.852 338,206.5C 339.628,207.097 341.295,206.763 343,205.5C 342.968,207.598 342.301,209.598 341,211.5C 340.333,213.833 340.333,216.167 341,218.5C 341.333,217.5 341.667,216.5 342,215.5C 342.543,217.631 343.376,219.631 344.5,221.5C 346.071,219.585 348.071,218.585 350.5,218.5 Z"/></g>
<g><path style="opacity:1" fill="#b57046" d="M 173.5,262.5 C 174.003,265.846 174.67,269.179 175.5,272.5C 176.919,273.005 177.585,274.005 177.5,275.5C 175.952,276.794 173.952,277.461 171.5,277.5C 169.304,277.495 167.304,277.162 165.5,276.5C 166.29,275.391 166.79,274.058 167,272.5C 167.974,274.878 168.641,274.544 169,271.5C 169.333,272.833 169.667,274.167 170,275.5C 170.893,276.711 171.726,276.711 172.5,275.5C 173.298,271.007 173.631,266.674 173.5,262.5 Z"/></g>
<g><path style="opacity:1" fill="#dd945b" d="M 330.5,264.5 C 332.968,268.902 332.968,273.236 330.5,277.5C 330.543,273.107 330.043,272.774 329,276.5C 328.676,274.431 327.842,274.098 326.5,275.5C 323.918,270.886 324.418,266.552 328,262.5C 328.417,263.756 329.25,264.423 330.5,264.5 Z"/></g>
<g><path style="opacity:1" fill="#aa6543" d="M 161.5,258.5 C 161.892,260.179 162.392,261.846 163,263.5C 163.359,260.456 164.026,260.122 165,262.5C 167.43,262.383 169.93,261.716 172.5,260.5C 172.5,260.833 172.5,261.167 172.5,261.5C 170.589,262.075 168.922,263.075 167.5,264.5C 161.45,266.371 159.45,264.371 161.5,258.5 Z"/></g>
<g><path style="opacity:1" fill="#bd764a" d="M 337.5,241.5 C 342.466,247.99 341.133,251.323 333.5,251.5C 330.035,250.095 328.369,251.428 328.5,255.5C 329.791,258.269 330.458,260.936 330.5,263.5C 330.5,263.833 330.5,264.167 330.5,264.5C 329.25,264.423 328.417,263.756 328,262.5C 324.418,266.552 323.918,270.886 326.5,275.5C 327.842,274.098 328.676,274.431 329,276.5C 330.043,272.774 330.543,273.107 330.5,277.5C 327.125,277.187 323.792,276.853 320.5,276.5C 322.668,270.896 324.835,265.229 327,259.5C 327.076,255.204 327.909,251.204 329.5,247.5C 330.117,247.389 330.617,247.056 331,246.5C 332.83,250.144 334.497,249.81 336,245.5C 336.333,245.833 336.667,246.167 337,246.5C 336.524,244.68 336.691,243.013 337.5,241.5 Z"/></g>
<g><path style="opacity:1" fill="#db925a" d="M 172.5,261.5 C 173.167,261.5 173.5,261.833 173.5,262.5C 173.631,266.674 173.298,271.007 172.5,275.5C 171.726,276.711 170.893,276.711 170,275.5C 169.667,274.167 169.333,272.833 169,271.5C 168.641,274.544 167.974,274.878 167,272.5C 166.79,274.058 166.29,275.391 165.5,276.5C 165.19,272.3 165.857,268.3 167.5,264.5C 168.922,263.075 170.589,262.075 172.5,261.5 Z"/></g>
<g><path style="opacity:1" fill="#db925a" d="M 333.5,251.5 C 336.378,254.597 337.545,258.263 337,262.5C 336.667,261.5 336.333,260.5 336,259.5C 335.138,261.087 334.471,262.754 334,264.5C 333.296,262.273 332.129,261.94 330.5,263.5C 330.458,260.936 329.791,258.269 328.5,255.5C 328.369,251.428 330.035,250.095 333.5,251.5 Z"/></g>
<g><path style="opacity:1" fill="#d78f57" d="M 170.5,250.5 C 171.237,253.725 171.903,257.059 172.5,260.5C 169.93,261.716 167.43,262.383 165,262.5C 164.026,260.122 163.359,260.456 163,263.5C 162.392,261.846 161.892,260.179 161.5,258.5C 162.308,255.55 163.642,252.883 165.5,250.5C 167.773,247.602 169.273,247.936 170,251.5C 170.399,251.272 170.565,250.938 170.5,250.5 Z"/></g>
<g><path style="opacity:1" fill="#b46e47" d="M 159.5,245.5 C 160.678,246.662 161.845,247.662 163,248.5C 164.016,247.366 164.683,247.699 165,249.5C 166.11,247.963 167.61,247.297 169.5,247.5C 170.404,248.209 170.737,249.209 170.5,250.5C 170.565,250.938 170.399,251.272 170,251.5C 169.273,247.936 167.773,247.602 165.5,250.5C 162.969,251.604 160.802,251.604 159,250.5C 158.22,248.613 158.387,246.946 159.5,245.5 Z"/></g>
<g><path style="opacity:1" fill="#db8f65" d="M 247.5,241.5 C 252,243.583 256.334,245.916 260.5,248.5C 255.404,247.454 251.071,245.121 247.5,241.5 Z"/></g>
<g><path style="opacity:1" fill="#da8042" d="M 244.5,243.5 C 247.268,245.087 249.935,246.92 252.5,249C 255.822,249.763 258.989,250.929 262,252.5C 264.278,251.38 265.778,252.213 266.5,255C 267.793,255.49 269.127,255.657 270.5,255.5C 270.477,257.6 271.144,259.433 272.5,261C 271.846,262.987 270.513,264.32 268.5,265C 265.402,265.918 262.235,266.418 259,266.5C 250.076,264.862 241.242,265.195 232.5,267.5C 227.347,266.559 225.347,263.726 226.5,259C 228.697,257.257 231.03,255.757 233.5,254.5C 234.386,253.675 234.719,252.675 234.5,251.5C 235.873,251.657 237.207,251.49 238.5,251C 241.102,248.907 243.102,246.407 244.5,243.5 Z"/></g>
<g><path style="opacity:1" fill="#d89058" d="M 164.5,236.5 C 165.833,236.5 167.167,236.5 168.5,236.5C 168.194,239.385 168.527,242.052 169.5,244.5C 168.167,245.5 168.167,246.5 169.5,247.5C 167.61,247.297 166.11,247.963 165,249.5C 164.683,247.699 164.016,247.366 163,248.5C 161.845,247.662 160.678,246.662 159.5,245.5C 160.394,242.043 162.06,239.043 164.5,236.5 Z"/></g>
<g><path style="opacity:1" fill="#b0562d" d="M 317.5,241.5 C 317.665,244.85 317.498,248.183 317,251.5C 313.611,261.287 308.444,269.954 301.5,277.5C 293.5,277.5 285.5,277.5 277.5,277.5C 280.86,272.112 285.527,268.778 291.5,267.5C 291.833,267.5 292.167,267.5 292.5,267.5C 294.39,267.703 295.89,267.037 297,265.5C 298.5,262.5 300,259.5 301.5,256.5C 303.923,255.271 306.423,254.271 309,253.5C 309.734,249.96 310.901,246.627 312.5,243.5C 313.85,242.05 315.516,241.383 317.5,241.5 Z"/></g>
<g><path style="opacity:1" fill="#af6943" d="M 168.5,231.5 C 169.373,235.768 169.706,240.102 169.5,244.5C 168.527,242.052 168.194,239.385 168.5,236.5C 167.167,236.5 165.833,236.5 164.5,236.5C 162.46,237.519 160.46,237.519 158.5,236.5C 157.347,235.313 157.347,234.313 158.5,233.5C 159.458,233.953 160.292,234.619 161,235.5C 162.333,235.5 163.667,235.5 165,235.5C 166.405,234.269 167.571,232.936 168.5,231.5 Z"/></g>
<g><path style="opacity:1" fill="#dc945a" d="M 335.5,238.5 C 336.167,239.5 336.833,240.5 337.5,241.5C 336.691,243.013 336.524,244.68 337,246.5C 336.667,246.167 336.333,245.833 336,245.5C 334.497,249.81 332.83,250.144 331,246.5C 330.617,247.056 330.117,247.389 329.5,247.5C 329.5,246.833 329.5,246.167 329.5,245.5C 330.321,242.359 330.821,239.025 331,235.5C 332.615,236.386 334.115,237.386 335.5,238.5 Z"/></g>
<g><path style="opacity:1" fill="#af552c" d="M 180.5,232.5 C 181.833,232.5 183.167,232.5 184.5,232.5C 182.771,236.67 182.271,241.003 183,245.5C 184,246.5 185,247.5 186,248.5C 185.4,254.341 187.9,257.674 193.5,258.5C 194.214,260.811 195.214,262.978 196.5,265C 199.856,265.215 203.189,265.215 206.5,265C 207.678,268.908 209.344,272.575 211.5,276C 214.167,276.667 216.833,276.667 219.5,276C 223.061,274.693 226.727,273.86 230.5,273.5C 233.818,273.159 236.152,274.492 237.5,277.5C 223.167,277.5 208.833,277.5 194.5,277.5C 191.538,274.036 188.371,270.703 185,267.5C 183.092,264.785 181.759,261.785 181,258.5C 179.297,249.81 179.131,241.143 180.5,232.5 Z"/></g>
<g><path style="opacity:1" fill="#b1572f" d="M 262.5,228.5 C 269.149,234.309 275.982,239.976 283,245.5C 286,250.167 289,254.833 292,259.5C 292.808,261.579 292.641,263.579 291.5,265.5C 283.354,253.019 272.687,243.352 259.5,236.5C 258.417,235.635 258.251,234.635 259,233.5C 259.997,231.677 261.164,230.01 262.5,228.5 Z"/></g>
<g><path style="opacity:1" fill="#d97f42" d="M 224.5,227.5 C 222.173,227.335 220.007,226.669 218,225.5C 217.833,225.833 217.667,226.167 217.5,226.5C 220.737,228.035 223.903,229.702 227,231.5C 229,234.833 229,238.167 227,241.5C 221.936,247.615 215.436,250.949 207.5,251.5C 202.19,250.911 200.357,247.911 202,242.5C 204.92,236.08 209.42,231.08 215.5,227.5C 214.767,226.913 213.767,226.913 212.5,227.5C 213.833,226.067 215.333,224.733 217,223.5C 219.633,224.752 222.133,226.086 224.5,227.5 Z"/></g>
<g><path style="opacity:1" fill="#da8043" d="M 276.5,237.5 C 274.75,234.244 272.417,231.411 269.5,229C 277.053,222.725 284.219,223.225 291,230.5C 293.167,233.432 295.834,236.766 299,240.5C 300.913,246.094 299.08,248.261 293.5,247C 288.026,243.857 282.859,240.357 278,236.5C 277.617,237.056 277.117,237.389 276.5,237.5 Z"/></g>
<g><path style="opacity:1" fill="#db925a" d="M 332.5,222.5 C 335.941,224.612 338.275,227.612 339.5,231.5C 338.442,232.6 337.608,233.934 337,235.5C 336.333,234.833 335.667,234.167 335,233.5C 334.282,234.451 333.449,234.617 332.5,234C 330.488,230.452 329.488,226.619 329.5,222.5C 330.5,222.5 331.5,222.5 332.5,222.5 Z"/></g>
<g><path style="opacity:1" fill="#b65e36" d="M 207.5,231.5 C 205.173,234.092 202.339,236.092 199,237.5C 198.833,237 198.667,236.5 198.5,236C 200.722,232.389 202.555,228.555 204,224.5C 205.039,223.29 206.206,222.29 207.5,221.5C 209.68,220.145 211.68,220.311 213.5,222C 209.868,224.63 206.535,227.63 203.5,231C 204.793,231.49 206.127,231.657 207.5,231.5 Z"/></g>
<g><path style="opacity:0.008" fill="#ffefdb" d="M 365.5,273.5 C 365.5,274.833 365.5,276.167 365.5,277.5C 364.833,277.5 364.167,277.5 363.5,277.5C 363.989,276.005 364.655,274.671 365.5,273.5 Z"/></g>
<g><path style="opacity:0.991" fill="#fef5e9" d="M 114.5,291.5 C 114.333,305.504 114.5,319.504 115,333.5C 115.996,335.66 117.496,337.327 119.5,338.5C 120.075,340.411 121.075,342.078 122.5,343.5C 121.5,343.5 120.5,343.5 119.5,343.5C 119.167,340.833 118.833,340.833 118.5,343.5C 97.3267,343.831 76.3267,343.497 55.5,342.5C 62.6778,334.489 69.6778,326.322 76.5,318C 76.1377,316.775 75.6377,315.609 75,314.5C 70.0318,308.824 64.8651,303.491 59.5,298.5C 58.5849,296.246 57.2516,294.246 55.5,292.5C 74.9929,291.503 94.6596,291.17 114.5,291.5 Z"/></g>
<g><path style="opacity:0.995" fill="#fdf4e8" d="M 444.5,290.5 C 441.476,294.518 438.476,298.518 435.5,302.5C 430.154,306.854 425.487,311.854 421.5,317.5C 423.854,320.521 426.521,323.188 429.5,325.5C 433.92,331.32 438.586,336.987 443.5,342.5C 421.34,343.497 399.006,343.831 376.5,343.5C 378.787,339.878 381.453,336.545 384.5,333.5C 384.5,319.167 384.5,304.833 384.5,290.5C 404.5,290.5 424.5,290.5 444.5,290.5 Z"/></g>
<g><path style="opacity:0.79" fill="#9e695c" d="M 444.5,290.5 C 445.167,290.5 445.833,290.5 446.5,290.5C 443.542,295.126 439.876,299.126 435.5,302.5C 438.476,298.518 441.476,294.518 444.5,290.5 Z"/></g>
<g><path style="opacity:0.851" fill="#a06c60" d="M 435.5,302.5 C 431.547,307.462 427.547,312.462 423.5,317.5C 425.934,319.921 427.934,322.588 429.5,325.5C 426.521,323.188 423.854,320.521 421.5,317.5C 425.487,311.854 430.154,306.854 435.5,302.5 Z"/></g>
<g><path style="opacity:0.869" fill="#a26e61" d="M 59.5,298.5 C 64.8651,303.491 70.0318,308.824 75,314.5C 75.6377,315.609 76.1377,316.775 76.5,318C 69.6778,326.322 62.6778,334.489 55.5,342.5C 54.6618,342.842 54.3284,343.508 54.5,344.5C 53.8333,344.5 53.1667,344.5 52.5,344.5C 59.5615,335.263 67.2281,326.429 75.5,318C 69.5531,311.898 64.2198,305.398 59.5,298.5 Z"/></g>
<g><path style="opacity:1" fill="#dfc8bb" d="M 115.5,278.5 C 204.833,278.5 294.167,278.5 383.5,278.5C 383.5,296.5 383.5,314.5 383.5,332.5C 370.833,332.5 358.167,332.5 345.5,332.5C 268.833,332.5 192.167,332.5 115.5,332.5C 115.5,314.5 115.5,296.5 115.5,278.5 Z"/></g>
<g><path style="opacity:1" fill="#fcf3e7" d="M 116.5,279.5 C 205.167,279.5 293.833,279.5 382.5,279.5C 382.5,296.833 382.5,314.167 382.5,331.5C 293.833,331.5 205.167,331.5 116.5,331.5C 116.5,314.167 116.5,296.833 116.5,279.5 Z"/></g>
<g><path style="opacity:1" fill="#693f2f" d="M 161.5,292.5 C 163.604,292.201 165.604,292.534 167.5,293.5C 166.054,295.618 165.387,297.951 165.5,300.5C 168.044,300.104 170.211,300.771 172,302.5C 172.456,305.572 172.456,308.572 172,311.5C 174.609,308.463 177.109,305.297 179.5,302C 187.784,299.13 191.451,301.964 190.5,310.5C 194.311,307.076 195.978,302.743 195.5,297.5C 196.833,297.5 198.167,297.5 199.5,297.5C 200.143,300.325 201.477,302.825 203.5,305C 202.38,306.737 201.38,308.571 200.5,310.5C 203.747,311.966 206.08,310.966 207.5,307.5C 207.833,307.833 208.167,308.167 208.5,308.5C 205.854,314.175 201.687,315.842 196,313.5C 195.333,311.833 195.333,310.167 196,308.5C 197.788,306.996 198.288,305.329 197.5,303.5C 195.869,306.596 193.869,309.43 191.5,312C 189.048,312.29 186.715,312.956 184.5,314C 180.726,315.183 177.559,314.349 175,311.5C 171.242,312.29 167.575,313.29 164,314.5C 161.262,314.714 159.096,313.714 157.5,311.5C 155.422,313.986 152.755,314.986 149.5,314.5C 149.557,310.867 148.557,310.7 146.5,314C 141,315.167 138.833,313 140,307.5C 144.161,300.007 149.661,298.674 156.5,303.5C 153.555,303.473 150.555,303.807 147.5,304.5C 144.793,306.336 144.126,308.669 145.5,311.5C 147.188,309.971 148.521,308.137 149.5,306C 150.793,305.51 152.127,305.343 153.5,305.5C 153.201,307.604 153.534,309.604 154.5,311.5C 155.478,311.023 156.311,310.357 157,309.5C 158.343,303.795 159.843,298.129 161.5,292.5 Z"/></g>
<g><path style="opacity:1" fill="#e4d4c7" d="M 182.5,303.5 C 184.252,303.418 185.252,304.251 185.5,306C 185.056,309.118 183.389,310.951 180.5,311.5C 180.584,308.673 181.25,306.006 182.5,303.5 Z"/></g>
<g><path style="opacity:1" fill="#f4e8dc" d="M 164.5,303.5 C 165.5,303.5 166.5,303.5 167.5,303.5C 168.18,307.791 166.514,310.457 162.5,311.5C 162.283,308.579 162.949,305.913 164.5,303.5 Z"/></g>
<g><path style="opacity:1" fill="#693f2f" d="M 312.5,292.5 C 316.802,291.851 318.135,293.351 316.5,297C 317.378,298.8 318.045,300.633 318.5,302.5C 317.022,302.238 315.689,302.571 314.5,303.5C 313.607,306.084 313.274,308.751 313.5,311.5C 314.552,311.649 315.552,311.483 316.5,311C 318.5,308.333 320.5,305.667 322.5,303C 327.049,299.536 331.382,299.703 335.5,303.5C 329.528,301.876 325.528,304.043 323.5,310C 323.85,311.257 324.517,311.591 325.5,311C 326.872,309.758 327.872,308.258 328.5,306.5C 330.167,305.167 331.833,305.167 333.5,306.5C 332.319,308.198 332.319,309.865 333.5,311.5C 336.705,307.614 340.039,303.78 343.5,300C 345.134,299.506 346.801,299.34 348.5,299.5C 348.573,313.043 350.907,313.71 355.5,301.5C 357.045,300.548 358.712,300.215 360.5,300.5C 359.662,303.686 358.662,306.853 357.5,310C 357.833,310.5 358.167,311 358.5,311.5C 361.034,307.288 364.367,303.788 368.5,301C 372.374,300.028 375.707,300.862 378.5,303.5C 375.555,303.473 372.555,303.807 369.5,304.5C 366.793,306.336 366.126,308.669 367.5,311.5C 369.188,309.971 370.521,308.137 371.5,306C 372.793,305.51 374.127,305.343 375.5,305.5C 374.862,311.459 376.362,312.459 380,308.5C 379.072,312.899 376.239,314.899 371.5,314.5C 371.649,313.448 371.483,312.448 371,311.5C 367.667,315.5 364.333,315.5 361,311.5C 357.818,315.424 354.818,315.424 352,311.5C 348.191,314.092 344.024,314.925 339.5,314C 338.398,310.94 339.398,310.107 342.5,311.5C 343.994,300.334 342.16,300.334 337,311.5C 333.731,315.274 330.731,315.274 328,311.5C 325.162,315.035 321.995,315.368 318.5,312.5C 314.682,315.391 311.182,315.057 308,311.5C 305.683,314.097 302.85,314.93 299.5,314C 298.8,310.805 298.467,307.639 298.5,304.5C 295.665,307.12 294.332,310.453 294.5,314.5C 292.234,314.859 290.401,314.192 289,312.5C 286.253,315.034 283.587,315.034 281,312.5C 273.926,316.531 271.259,314.531 273,306.5C 277.47,300.118 282.97,298.952 289.5,303C 288.892,303.87 288.059,304.37 287,304.5C 280.291,302.385 277.457,304.718 278.5,311.5C 280.188,309.971 281.521,308.137 282.5,306C 283.793,305.51 285.127,305.343 286.5,305.5C 286.167,307.5 285.833,309.5 285.5,311.5C 286.822,311.67 287.989,311.337 289,310.5C 290.265,307.539 291.431,304.539 292.5,301.5C 294.674,300.107 296.507,300.44 298,302.5C 301.237,299.505 303.737,299.838 305.5,303.5C 304.833,305.5 304.167,307.5 303.5,309.5C 303.733,310.932 304.4,311.432 305.5,311C 308.358,308.104 309.358,304.771 308.5,301C 310.318,298.37 311.652,295.537 312.5,292.5 Z"/></g>
<g><path style="opacity:1" fill="#764e3e" d="M 359.5,293.5 C 360.675,293.281 361.675,293.614 362.5,294.5C 361.242,297.5 359.242,298.5 356.5,297.5C 357.524,296.148 358.524,294.815 359.5,293.5 Z"/></g>
<g><path style="opacity:1" fill="#6b4131" d="M 227.5,292.5 C 229.604,292.201 231.604,292.534 233.5,293.5C 231.219,299.008 229.552,304.675 228.5,310.5C 230.144,310.714 231.644,310.38 233,309.5C 234.998,304.178 236.998,298.845 239,293.5C 240.356,292.62 241.856,292.286 243.5,292.5C 242.114,299.327 240.114,305.994 237.5,312.5C 238.002,313.521 238.668,313.688 239.5,313C 241.359,311.442 242.859,309.609 244,307.5C 243.328,311.538 240.995,314.538 237,316.5C 235.957,322.554 232.457,325.054 226.5,324C 223.637,318.307 225.637,315.474 232.5,315.5C 232.749,312.425 231.415,311.758 228.5,313.5C 226.626,313.61 225.126,312.944 224,311.5C 223.117,306.852 223.95,302.519 226.5,298.5C 222.072,296.948 220.405,298.614 221.5,303.5C 217.491,303.986 215.658,302.32 216,298.5C 219.889,296.423 223.723,294.423 227.5,292.5 Z"/></g>
<g><path style="opacity:1" fill="#ede0d3" d="M 230.5,317.5 C 231.688,319.496 231.021,320.329 228.5,320C 229.381,319.292 230.047,318.458 230.5,317.5 Z"/></g>
<g><path style="opacity:1" fill="#6a4131" d="M 268.5,291.5 C 270.288,291.215 271.955,291.548 273.5,292.5C 270.892,296.956 270.225,301.623 271.5,306.5C 268.654,306.809 267.154,308.475 267,311.5C 263.193,314.952 259.193,315.285 255,312.5C 253.55,307.115 255.383,305.448 260.5,307.5C 259.355,308.891 259.355,310.224 260.5,311.5C 262.81,309.577 263.477,307.244 262.5,304.5C 268.573,298.414 267.573,295.914 259.5,297C 259.043,297.414 258.709,297.914 258.5,298.5C 263.709,300.159 263.542,301.492 258,302.5C 253.729,301.774 252.563,299.441 254.5,295.5C 255.025,294.808 255.692,294.308 256.5,294C 260.167,293.667 263.833,293.333 267.5,293C 268.056,292.617 268.389,292.117 268.5,291.5 Z"/></g>
<g><path style="opacity:1" fill="#693f30" d="M 130.5,291.5 C 136.188,290.531 139.188,292.864 139.5,298.5C 138.167,298.5 136.833,298.5 135.5,298.5C 135.778,296.654 135.111,295.32 133.5,294.5C 132.119,295 131.453,296 131.5,297.5C 133.073,300.301 134.906,302.968 137,305.5C 138.383,311.624 135.883,314.624 129.5,314.5C 123.131,314.755 120.798,311.755 122.5,305.5C 123.833,305.5 125.167,305.5 126.5,305.5C 125.492,310.667 127.325,312.334 132,310.5C 132.566,307.021 131.233,304.355 128,302.5C 125.428,297.889 126.261,294.222 130.5,291.5 Z"/></g>
<g><path style="opacity:1" fill="#fcb965" d="M 154.5,333.5 C 159.5,333.5 164.5,333.5 169.5,333.5C 170.795,334.488 172.128,335.488 173.5,336.5C 174.492,336.328 175.158,336.662 175.5,337.5C 175.973,338.906 176.973,339.573 178.5,339.5C 192.242,348.749 207.242,355.083 223.5,358.5C 228.25,360.031 233.25,360.698 238.5,360.5C 244.5,360.5 250.5,360.5 256.5,360.5C 262.114,360.927 267.447,360.26 272.5,358.5C 291.504,354.995 308.837,347.661 324.5,336.5C 325.872,335.488 327.205,334.488 328.5,333.5C 333.833,333.5 339.167,333.5 344.5,333.5C 311.414,363.802 272.414,375.969 227.5,370C 199.259,365.213 174.926,353.046 154.5,333.5 Z M 179.5,334.5 C 225.813,363.829 272.147,363.829 318.5,334.5C 321.082,334.025 323.082,334.692 324.5,336.5C 308.837,347.661 291.504,354.995 272.5,358.5C 266.991,358.875 261.658,359.542 256.5,360.5C 250.5,360.5 244.5,360.5 238.5,360.5C 233.731,359.111 228.731,358.444 223.5,358.5C 207.242,355.083 192.242,348.749 178.5,339.5C 178.027,338.094 177.027,337.427 175.5,337.5C 175.158,336.662 174.492,336.328 173.5,336.5C 174.99,334.72 176.99,334.054 179.5,334.5 Z M 282.5,338.5 C 283.077,337.227 283.743,337.227 284.5,338.5C 284.03,339.463 283.363,339.463 282.5,338.5 Z M 217.5,339.5 C 218.077,338.227 218.743,338.227 219.5,339.5C 219.03,340.463 218.363,340.463 217.5,339.5 Z M 274.5,339.5 C 276.337,339.639 276.67,340.306 275.5,341.5C 274.702,341.043 274.369,340.376 274.5,339.5 Z M 234.5,341.5 C 235.773,342.077 235.773,342.743 234.5,343.5C 233.537,343.03 233.537,342.363 234.5,341.5 Z M 266.5,342.5 C 267.077,341.227 267.743,341.227 268.5,342.5C 268.03,343.463 267.363,343.463 266.5,342.5 Z M 242.5,342.5 C 244.337,342.639 244.67,343.306 243.5,344.5C 242.702,344.043 242.369,343.376 242.5,342.5 Z M 250.5,342.5 C 252.337,342.639 252.67,343.306 251.5,344.5C 250.702,344.043 250.369,343.376 250.5,342.5 Z M 258.5,343.5 C 259.077,342.227 259.743,342.227 260.5,343.5C 260.03,344.463 259.363,344.463 258.5,343.5 Z"/></g>
<g><path style="opacity:0.062" fill="#fff1e0" d="M 169.5,333.5 C 172.833,333.5 176.167,333.5 179.5,333.5C 179.5,333.833 179.5,334.167 179.5,334.5C 176.99,334.054 174.99,334.72 173.5,336.5C 172.128,335.488 170.795,334.488 169.5,333.5 Z"/></g>
<g><path style="opacity:1" fill="#fcb861" d="M 179.5,333.5 C 187.167,333.5 194.833,333.5 202.5,333.5C 203.167,336.167 203.833,336.167 204.5,333.5C 233.167,333.5 261.833,333.5 290.5,333.5C 291.167,337.5 291.833,337.5 292.5,333.5C 301.167,333.5 309.833,333.5 318.5,333.5C 318.5,333.833 318.5,334.167 318.5,334.5C 272.147,363.829 225.813,363.829 179.5,334.5C 179.5,334.167 179.5,333.833 179.5,333.5 Z M 282.5,338.5 C 283.363,339.463 284.03,339.463 284.5,338.5C 283.743,337.227 283.077,337.227 282.5,338.5 Z M 217.5,339.5 C 218.363,340.463 219.03,340.463 219.5,339.5C 218.743,338.227 218.077,338.227 217.5,339.5 Z M 274.5,339.5 C 274.369,340.376 274.702,341.043 275.5,341.5C 276.67,340.306 276.337,339.639 274.5,339.5 Z M 234.5,341.5 C 233.537,342.363 233.537,343.03 234.5,343.5C 235.773,342.743 235.773,342.077 234.5,341.5 Z M 266.5,342.5 C 267.363,343.463 268.03,343.463 268.5,342.5C 267.743,341.227 267.077,341.227 266.5,342.5 Z M 242.5,342.5 C 242.369,343.376 242.702,344.043 243.5,344.5C 244.67,343.306 244.337,342.639 242.5,342.5 Z M 250.5,342.5 C 250.369,343.376 250.702,344.043 251.5,344.5C 252.67,343.306 252.337,342.639 250.5,342.5 Z M 258.5,343.5 C 259.363,344.463 260.03,344.463 260.5,343.5C 259.743,342.227 259.077,342.227 258.5,343.5 Z"/></g>
<g><path style="opacity:0.062" fill="#fff2e2" d="M 318.5,334.5 C 318.5,334.167 318.5,333.833 318.5,333.5C 321.833,333.5 325.167,333.5 328.5,333.5C 327.205,334.488 325.872,335.488 324.5,336.5C 323.082,334.692 321.082,334.025 318.5,334.5 Z"/></g>
<g><path style="opacity:0.522" fill="#fee6c8" d="M 202.5,333.5 C 203.167,333.5 203.833,333.5 204.5,333.5C 203.833,336.167 203.167,336.167 202.5,333.5 Z"/></g>
<g><path style="opacity:0.109" fill="#ffedd7" d="M 290.5,333.5 C 291.167,333.5 291.833,333.5 292.5,333.5C 291.833,337.5 291.167,337.5 290.5,333.5 Z"/></g>
<g><path style="opacity:0.851" fill="#a06757" d="M 115.5,277.5 C 115.5,277.833 115.5,278.167 115.5,278.5C 115.5,296.5 115.5,314.5 115.5,332.5C 192.167,332.5 268.833,332.5 345.5,332.5C 345.5,332.833 345.5,333.167 345.5,333.5C 345.167,333.5 344.833,333.5 344.5,333.5C 339.167,333.5 333.833,333.5 328.5,333.5C 325.167,333.5 321.833,333.5 318.5,333.5C 309.833,333.5 301.167,333.5 292.5,333.5C 291.833,333.5 291.167,333.5 290.5,333.5C 261.833,333.5 233.167,333.5 204.5,333.5C 203.833,333.5 203.167,333.5 202.5,333.5C 194.833,333.5 187.167,333.5 179.5,333.5C 176.167,333.5 172.833,333.5 169.5,333.5C 164.5,333.5 159.5,333.5 154.5,333.5C 144.5,333.5 134.5,333.5 124.5,333.5C 125.244,337.119 125.577,340.785 125.5,344.5C 124.833,344.167 124.167,343.833 123.5,343.5C 123.167,343.5 122.833,343.5 122.5,343.5C 121.075,342.078 120.075,340.411 119.5,338.5C 117.496,337.327 115.996,335.66 115,333.5C 114.5,319.504 114.333,305.504 114.5,291.5C 94.6627,290.172 74.6627,290.172 54.5,291.5C 54.6236,292.107 54.9569,292.44 55.5,292.5C 57.2516,294.246 58.5849,296.246 59.5,298.5C 56.5211,296.188 53.8544,293.521 51.5,290.5C 72.4894,289.5 93.4894,289.167 114.5,289.5C 114.183,285.298 114.517,281.298 115.5,277.5 Z M 119.5,336.5 C 120.251,335.427 121.251,335.26 122.5,336C 121.648,337.728 120.648,337.895 119.5,336.5 Z"/></g>
<g><path style="opacity:0.995" fill="#dfc8bb" d="M 114.5,291.5 C 94.6596,291.17 74.9929,291.503 55.5,292.5C 54.9569,292.44 54.6236,292.107 54.5,291.5C 74.6627,290.172 94.6627,290.172 114.5,291.5 Z"/></g>
<g><path style="opacity:0.068" fill="#f7ebdf" d="M 119.5,338.5 C 119.5,337.833 119.5,337.167 119.5,336.5C 118.373,335.878 117.373,335.045 116.5,334C 118.81,333.503 121.143,333.337 123.5,333.5C 123.664,336.187 123.497,338.854 123,341.5C 121.961,340.29 120.794,339.29 119.5,338.5 Z M 119.5,336.5 C 120.648,337.895 121.648,337.728 122.5,336C 121.251,335.26 120.251,335.427 119.5,336.5 Z"/></g>
<g><path style="opacity:0.063" fill="#ffebd3" d="M 210.5,337.5 C 209.957,337.44 209.624,337.107 209.5,336.5C 210.325,335.614 211.325,335.281 212.5,335.5C 212.719,336.675 212.386,337.675 211.5,338.5C 210.893,338.376 210.56,338.043 210.5,337.5 Z"/></g>
<g><path style="opacity:0.004" fill="#fef2e1" d="M 175.5,337.5 C 177.027,337.427 178.027,338.094 178.5,339.5C 176.973,339.573 175.973,338.906 175.5,337.5 Z"/></g>
<g><path style="opacity:0.937" fill="#dfc8bb" d="M 55.5,342.5 C 76.3267,343.497 97.3267,343.831 118.5,343.5C 118.833,343.5 119.167,343.5 119.5,343.5C 120.5,343.5 121.5,343.5 122.5,343.5C 122.833,343.5 123.167,343.5 123.5,343.5C 100.673,344.498 77.6727,344.831 54.5,344.5C 54.3284,343.508 54.6618,342.842 55.5,342.5 Z"/></g>
<g><path style="opacity:0.897" fill="#813e30" d="M 123.5,343.5 C 124.167,343.833 124.833,344.167 125.5,344.5C 100.597,345.827 76.2639,345.827 52.5,344.5C 53.1667,344.5 53.8333,344.5 54.5,344.5C 77.6727,344.831 100.673,344.498 123.5,343.5 Z"/></g>
<g><path style="opacity:0.853" fill="#a16d62" d="M 429.5,325.5 C 435.634,331.804 441.634,338.304 447.5,345C 422.836,345.5 398.169,345.667 373.5,345.5C 373.5,341.5 373.5,337.5 373.5,333.5C 364.167,333.5 354.833,333.5 345.5,333.5C 345.5,333.167 345.5,332.833 345.5,332.5C 358.167,332.5 370.833,332.5 383.5,332.5C 383.5,333.167 383.833,333.5 384.5,333.5C 381.453,336.545 378.787,339.878 376.5,343.5C 386.925,344.177 398.092,344.511 410,344.5C 421.5,344.167 433,343.833 444.5,343.5C 444.376,342.893 444.043,342.56 443.5,342.5C 438.586,336.987 433.92,331.32 429.5,325.5 Z M 379.5,336.5 C 379.5,337.167 379.167,337.5 378.5,337.5C 377.391,337.443 376.391,337.11 375.5,336.5C 375.5,336.167 375.5,335.833 375.5,335.5C 377.263,334.046 378.597,334.38 379.5,336.5 Z"/></g>
<g><path style="opacity:0.979" fill="#dfc8bb" d="M 443.5,342.5 C 444.043,342.56 444.376,342.893 444.5,343.5C 433,343.833 421.5,344.167 410,344.5C 398.092,344.511 386.925,344.177 376.5,343.5C 399.006,343.831 421.34,343.497 443.5,342.5 Z"/></g>
<g><path style="opacity:0.129" fill="#f1e2d5" d="M 375.5,336.5 C 376.391,337.11 377.391,337.443 378.5,337.5C 374.869,344.472 373.869,344.139 375.5,336.5 Z"/></g>
<g><path style="opacity:0.054" fill="#fbf1e5" d="M 379.5,336.5 C 378.597,334.38 377.263,334.046 375.5,335.5C 376.152,334.275 377.319,333.608 379,333.5C 383.272,333.44 383.439,334.44 379.5,336.5 Z"/></g>
<g><path style="opacity:0.021" fill="#ffeacf" d="M 223.5,358.5 C 228.731,358.444 233.731,359.111 238.5,360.5C 233.25,360.698 228.25,360.031 223.5,358.5 Z"/></g>
<g><path style="opacity:0.961" fill="#ffdfb8" d="M 272.5,358.5 C 267.447,360.26 262.114,360.927 256.5,360.5C 261.658,359.542 266.991,358.875 272.5,358.5 Z"/></g>
</svg>