<svg xmlns="http://www.w3.org/2000/svg" xmlns:xlink="http://www.w3.org/1999/xlink" version="1.1" style="shape-rendering:geometricPrecision; text-rendering:geometricPrecision; image-rendering:optimizeQuality; fill-rule:evenodd; clip-rule:evenodd" viewBox="-0.5 13.21 512 485.29">
<g><path style="opacity:0.958" fill="#030201" d="M -0.5,96.5 C -0.5,92.1667 -0.5,87.8333 -0.5,83.5C 3.75666,75.6 10.4233,71.9333 19.5,72.5C 40.9094,74.0371 62.2427,76.2038 83.5,79C 92.938,83.6196 96.438,91.1196 94,101.5C 92.5524,104.896 90.719,108.063 88.5,111C 93.3624,122.558 98.3624,134.058 103.5,145.5C 107.167,145.833 110.833,146.167 114.5,146.5C 134.168,145.795 153.835,145.129 173.5,144.5C 172.268,128.517 171.768,112.517 172,96.5C 173.251,93.6193 175.417,91.786 178.5,91C 184.743,90.0148 190.909,88.8482 197,87.5C 192.98,51.5626 207.813,27.3959 241.5,15C 271.186,8.88904 294.353,18.389 311,43.5C 315.206,51.3254 317.706,59.6587 318.5,68.5C 324.333,67.8894 330.166,67.2227 336,66.5C 338.917,66.3349 341.583,67.0015 344,68.5C 371.695,61.3475 391.695,70.6809 404,96.5C 404.979,100.566 406.146,104.566 407.5,108.5C 412.745,107.012 418.079,106.512 423.5,107C 425.286,107.785 426.786,108.951 428,110.5C 430.581,119.328 433.081,128.161 435.5,137C 445.846,137.348 456.18,137.348 466.5,137C 473.333,138.157 477.833,141.99 480,148.5C 480.984,193.226 480.651,237.892 479,282.5C 476.438,288.061 472.272,291.894 466.5,294C 450.536,296.883 434.536,299.55 418.5,302C 418.043,302.414 417.709,302.914 417.5,303.5C 421.682,314.797 418.348,322.963 407.5,328C 353.184,337.108 298.851,346.108 244.5,355C 234.783,356.773 226.616,361.273 220,368.5C 214.167,376.833 208.333,385.167 202.5,393.5C 280.831,394.333 359.165,394.833 437.5,395C 449.054,401.627 451.554,410.794 445,422.5C 443.062,425.106 440.562,426.939 437.5,428C 430.167,428.333 422.833,428.667 415.5,429C 425.895,439.395 429.728,451.895 427,466.5C 421.482,486.511 408.315,497.178 387.5,498.5C 358.666,494.165 345.833,477.498 349,448.5C 350.912,440.84 354.745,434.34 360.5,429C 321.833,428.333 283.167,428.333 244.5,429C 257.543,442.955 260.376,458.788 253,476.5C 241.286,495.106 224.786,501.606 203.5,496C 183.393,486.957 174.893,471.457 178,449.5C 179.633,441.398 183.466,434.564 189.5,429C 183.833,428.667 178.167,428.333 172.5,428C 156.835,420.343 152.668,408.509 160,392.5C 168.247,381.007 176.247,369.34 184,357.5C 188.669,350.351 194.169,343.851 200.5,338C 186.183,337.427 175.016,331.26 167,319.5C 137.333,251.5 107.667,183.5 78,115.5C 76.9326,114.809 75.7659,114.309 74.5,114C 53.8215,112.12 33.1548,110.12 12.5,108C 6.05784,106.383 1.72451,102.55 -0.5,96.5 Z M 251.5,23.5 C 278.747,22.5963 296.913,34.9296 306,60.5C 307.108,64.0863 307.608,67.753 307.5,71.5C 274.743,75.9414 242.077,80.9414 209.5,86.5C 204.468,63.0684 211.801,44.5684 231.5,31C 237.878,27.3787 244.545,24.8787 251.5,23.5 Z M 355.5,76.5 C 378.383,76.7227 391.716,88.056 395.5,110.5C 384.145,111.948 372.812,113.614 361.5,115.5C 360.5,115.167 359.5,114.833 358.5,114.5C 355.423,103.027 352.423,91.5271 349.5,80C 349.645,79.228 349.978,78.5613 350.5,78C 352.382,77.8019 354.048,77.3019 355.5,76.5 Z M 456.5,147.5 C 459.518,147.335 462.518,147.502 465.5,148C 467.667,148.833 469.167,150.333 470,152.5C 470.667,178.5 470.667,204.5 470,230.5C 461.528,210.75 452.861,191.084 444,171.5C 441.974,163.868 440.141,156.202 438.5,148.5C 444.69,148.823 450.69,148.49 456.5,147.5 Z M 177.5,213.5 C 168.802,195.102 160.468,176.435 152.5,157.5C 159.715,155.757 167.048,155.09 174.5,155.5C 175.666,174.824 176.666,194.158 177.5,213.5 Z M 123.5,156.5 C 129.167,156.5 134.833,156.5 140.5,156.5C 153.56,187.505 166.727,218.505 180,249.5C 181.27,269.551 182.936,289.551 185,309.5C 191.066,318.938 199.399,321.605 210,317.5C 211.136,320.096 211.969,322.763 212.5,325.5C 205.851,326.38 199.184,326.546 192.5,326C 185.954,323.982 180.787,320.148 177,314.5C 154.296,262.26 131.462,210.093 108.5,158C 113.684,157.826 118.684,157.326 123.5,156.5 Z M 461.5,240.5 C 464.558,246.288 467.392,252.288 470,258.5C 470.667,264.167 470.667,269.833 470,275.5C 469.31,278.196 467.81,280.363 465.5,282C 461.651,283.697 457.651,284.863 453.5,285.5C 452.264,283.966 451.764,282.3 452,280.5C 464.198,278.621 468.865,271.621 466,259.5C 464.339,253.189 462.839,246.856 461.5,240.5 Z M 438.5,281.5 C 439.725,282.937 440.725,284.604 441.5,286.5C 433.036,288.327 424.536,289.994 416,291.5C 414.48,290.303 413.313,288.803 412.5,287C 421.158,284.839 429.824,283.005 438.5,281.5 Z M 395.5,288.5 C 399.455,287.863 402.122,289.363 403.5,293C 394.585,295.489 385.585,296.656 376.5,296.5C 375.96,295.252 375.293,294.085 374.5,293C 381.581,291.353 388.581,289.853 395.5,288.5 Z M 356.5,294.5 C 360.775,293.726 363.775,295.226 365.5,299C 356.686,300.996 347.853,302.83 339,304.5C 337.589,302.35 336.755,300.016 336.5,297.5C 343.392,297.127 350.058,296.127 356.5,294.5 Z M 317.5,300.5 C 320.247,300.187 322.914,300.52 325.5,301.5C 326.309,303.071 326.643,304.738 326.5,306.5C 318.075,307.293 309.742,308.626 301.5,310.5C 299.673,308.513 298.673,306.179 298.5,303.5C 305.064,303.136 311.397,302.136 317.5,300.5 Z M 284.5,305.5 C 285.496,305.414 286.329,305.748 287,306.5C 287.837,308.351 288.671,310.184 289.5,312C 280.966,313.339 272.466,314.839 264,316.5C 262.14,314.625 260.64,312.458 259.5,310C 268.044,308.903 276.377,307.403 284.5,305.5 Z M 246.5,311.5 C 248.731,313.076 250.397,315.243 251.5,318C 243.165,319.5 234.832,321 226.5,322.5C 225.558,322.392 224.725,322.059 224,321.5C 223.55,319.481 222.717,317.648 221.5,316C 230.013,314.718 238.346,313.218 246.5,311.5 Z"/></g>
<g><path style="opacity:0.942" fill="#f5c84b" d="M 159.5,44.5 C 162.522,52.5187 168.189,57.852 176.5,60.5C 168.468,63.6987 162.968,69.3653 160,77.5C 157.058,69.3908 151.558,63.7241 143.5,60.5C 151.851,58.1485 157.185,52.8152 159.5,44.5 Z"/></g>
<g><path style="opacity:1" fill="#d7af42" d="M 322.5,78.5 C 324.199,78.3398 325.866,78.5065 327.5,79C 324.781,80.5967 322.614,82.7634 321,85.5C 320.185,82.8018 320.685,80.4685 322.5,78.5 Z"/></g>
<g><path style="opacity:1" fill="#f2c54b" d="M 199.5,144.5 C 194.5,144.5 189.5,144.5 184.5,144.5C 184.795,142.265 184.461,140.265 183.5,138.5C 182.701,125.841 182.034,113.174 181.5,100.5C 187.812,99.6459 194.145,98.9793 200.5,98.5C 201.115,104.189 201.948,109.856 203,115.5C 206.294,118.311 209.294,117.978 212,114.5C 211.838,109.846 211.338,105.179 210.5,100.5C 210.649,98.6803 211.316,97.1803 212.5,96C 245.103,90.6214 277.77,85.7881 310.5,81.5C 311.192,87.7182 312.525,93.7182 314.5,99.5C 313.011,107.404 312.011,115.404 311.5,123.5C 306.441,124.454 301.441,125.62 296.5,127C 294.951,128.214 293.785,129.714 293,131.5C 292.501,135.152 292.335,138.818 292.5,142.5C 261.493,142.852 230.493,143.519 199.5,144.5 Z"/></g>
<g><path style="opacity:1" fill="#f5627a" d="M 14.5,82.5 C 36.2155,84.1589 57.8822,86.3255 79.5,89C 83.2115,91.513 84.3782,95.013 83,99.5C 80.464,102.766 77.1306,104.1 73,103.5C 53.4764,101.907 33.9764,100.074 14.5,98C 7.90067,92.7876 7.90067,87.6209 14.5,82.5 Z"/></g>
<g><path style="opacity:1" fill="#eec249" d="M 337.5,82.5 C 338.496,82.4142 339.329,82.7476 340,83.5C 343.299,95.0236 345.799,106.69 347.5,118.5C 340.273,119.01 333.107,120.01 326,121.5C 324.342,121.325 323.009,120.658 322,119.5C 320.571,109.217 322.904,99.8841 329,91.5C 332.038,88.6306 334.871,85.6306 337.5,82.5 Z"/></g>
<g><path style="opacity:0.889" fill="#fc657d" d="M 125.5,98.5 C 132.369,98.5377 134.869,101.871 133,108.5C 129.333,112.5 125.667,112.5 122,108.5C 120.581,104.082 121.748,100.749 125.5,98.5 Z"/></g>
<g><path style="opacity:1" fill="#f5627a" d="M 410.5,117.5 C 413.777,117.216 416.943,117.549 420,118.5C 421.82,125.111 423.32,131.778 424.5,138.5C 391.499,139.114 358.499,139.781 325.5,140.5C 325.656,137.934 325.322,135.434 324.5,133C 324.905,132.055 325.572,131.388 326.5,131C 350.469,127.171 374.469,123.671 398.5,120.5C 398.735,124.577 399.402,128.577 400.5,132.5C 406.512,136.232 409.512,134.566 409.5,127.5C 409.364,125.135 409.03,122.802 408.5,120.5C 408.942,119.261 409.609,118.261 410.5,117.5 Z"/></g>
<g><path style="opacity:1" fill="#ea5e75" d="M 310.5,133.5 C 312.144,133.286 313.644,133.62 315,134.5C 315.497,136.81 315.663,139.143 315.5,141.5C 311.167,141.5 306.833,141.5 302.5,141.5C 302.5,139.167 302.5,136.833 302.5,134.5C 305.385,134.806 308.052,134.473 310.5,133.5 Z"/></g>
<g><path style="opacity:1" fill="#58481b" d="M 183.5,138.5 C 184.461,140.265 184.795,142.265 184.5,144.5C 189.5,144.5 194.5,144.5 199.5,144.5C 194.36,145.488 189.026,145.821 183.5,145.5C 183.5,143.167 183.5,140.833 183.5,138.5 Z"/></g>
<g><path style="opacity:1" fill="#f7637b" d="M 393.5,148.5 C 403.416,148.181 413.25,148.514 423,149.5C 426.941,157.716 430.608,166.049 434,174.5C 441.34,204.858 448.84,235.192 456.5,265.5C 456.471,267.029 455.804,268.196 454.5,269C 451.24,269.784 448.073,269.617 445,268.5C 427.143,228.751 409.976,188.751 393.5,148.5 Z"/></g>
<g><path style="opacity:1" fill="#f9637c" d="M 371.5,149.5 C 375.437,149.207 379.27,149.54 383,150.5C 400.5,190.833 418,231.167 435.5,271.5C 426.161,273.832 416.827,275.165 407.5,275.5C 389.066,234.024 370.732,192.524 352.5,151C 359.013,150.828 365.347,150.328 371.5,149.5 Z"/></g>
<g><path style="opacity:1" fill="#f8637c" d="M 312.5,150.5 C 322.522,150.168 332.522,150.501 342.5,151.5C 360.333,192.5 378.167,233.5 396,274.5C 396.749,275.635 396.583,276.635 395.5,277.5C 386.631,280.148 377.631,281.148 368.5,280.5C 349.633,237.225 330.966,193.891 312.5,150.5 Z"/></g>
<g><path style="opacity:1" fill="#efc34a" d="M 296.5,203.5 C 296.737,204.791 296.404,205.791 295.5,206.5C 288.035,188.78 280.368,171.113 272.5,153.5C 279.468,152.503 286.468,152.17 293.5,152.5C 294.865,169.476 295.865,186.476 296.5,203.5 Z"/></g>
<g><path style="opacity:1" fill="#f2c54b" d="M 245.5,152.5 C 250.875,152.172 256.208,152.505 261.5,153.5C 274,181.833 286.5,210.167 299,238.5C 299.972,256.434 301.472,274.268 303.5,292C 299.828,293.285 296.161,293.452 292.5,292.5C 272.454,246.192 252.121,200.025 231.5,154C 236.351,153.826 241.018,153.326 245.5,152.5 Z"/></g>
<g><path style="opacity:1" fill="#f2c54b" d="M 191.5,154.5 C 201.522,154.168 211.522,154.501 221.5,155.5C 242.543,202.042 262.543,248.708 281.5,295.5C 272.371,297.784 263.205,298.784 254,298.5C 233.064,250.517 212.23,202.517 191.5,154.5 Z"/></g>
<g><path style="opacity:1" fill="#f8637c" d="M 304.5,159.5 C 321.558,197.292 338.391,235.292 355,273.5C 356.759,277.009 357.926,280.675 358.5,284.5C 350.629,285.171 342.796,286.171 335,287.5C 333.5,287.167 332,286.833 330.5,286.5C 323.667,270.833 316.833,255.167 310,239.5C 307.834,212.854 306.001,186.187 304.5,159.5 Z"/></g>
<g><path style="opacity:1" fill="#f1c54a" d="M 187.5,170.5 C 206.485,213.807 225.485,257.141 244.5,300.5C 236.545,302.725 228.378,304.391 220,305.5C 217.425,305.91 215.758,304.91 215,302.5C 207.194,284.084 199.194,265.751 191,247.5C 189.102,223.854 187.602,200.187 186.5,176.5C 186.205,174.265 186.539,172.265 187.5,170.5 Z"/></g>
<g><path style="opacity:1" fill="#806827" d="M 187.5,170.5 C 186.539,172.265 186.205,174.265 186.5,176.5C 185.359,173.36 185.192,170.027 186,166.5C 186.41,167.901 186.91,169.234 187.5,170.5 Z"/></g>
<g><path style="opacity:1" fill="#7e6727" d="M 296.5,203.5 C 297.622,205.288 297.789,207.288 297,209.5C 295.961,208.756 295.461,207.756 295.5,206.5C 296.404,205.791 296.737,204.791 296.5,203.5 Z"/></g>
<g><path style="opacity:0.889" fill="#87d146" d="M 111.5,272.5 C 118.369,272.538 120.869,275.871 119,282.5C 115.333,286.5 111.667,286.5 108,282.5C 106.581,278.082 107.748,274.749 111.5,272.5 Z"/></g>
<g><path style="opacity:1" fill="#ed5f76" d="M 311.5,269.5 C 315.253,275.732 318.253,282.398 320.5,289.5C 317.932,290.45 315.432,290.45 313,289.5C 312.169,282.854 311.669,276.187 311.5,269.5 Z"/></g>
<g><path style="opacity:1" fill="#ecc149" d="M 194.5,279.5 C 198.562,288.687 202.229,298.02 205.5,307.5C 201.426,309.452 197.926,308.785 195,305.5C 194.389,298.836 193.889,292.17 193.5,285.5C 193.205,283.265 193.539,281.265 194.5,279.5 Z"/></g>
<g><path style="opacity:1" fill="#58471b" d="M 194.5,279.5 C 193.539,281.265 193.205,283.265 193.5,285.5C 192.362,282.696 192.195,279.696 193,276.5C 193.513,277.527 194.013,278.527 194.5,279.5 Z"/></g>
<g><path style="opacity:1" fill="#d6e1ec" d="M 396.5,304.5 C 405.316,302.494 409.15,305.827 408,314.5C 407.167,316 406,317.167 404.5,318C 350.789,326.422 297.122,335.089 243.5,344C 231.077,346.434 220.577,352.268 212,361.5C 203.667,373.5 195.333,385.5 187,397.5C 186.313,399.92 186.813,402.087 188.5,404C 270.167,404.333 351.833,404.667 433.5,405C 439.617,408.913 439.951,413.246 434.5,418C 348.167,418.667 261.833,418.667 175.5,418C 168.22,414.269 165.72,408.435 168,400.5C 178.333,385.5 188.667,370.5 199,355.5C 209.184,343.159 222.017,334.992 237.5,331C 290.709,322.576 343.709,313.743 396.5,304.5 Z"/></g>
<g><path style="opacity:0.962" fill="#6fd6f9" d="M 511.5,318.5 C 511.5,321.167 511.5,323.833 511.5,326.5C 508.754,328.126 505.754,328.793 502.5,328.5C 503.549,334.093 501.383,337.426 496,338.5C 491.018,337.101 489.185,333.768 490.5,328.5C 484.899,329.936 481.566,327.936 480.5,322.5C 481.566,317.064 484.899,315.064 490.5,316.5C 489.717,307.76 493.217,305.093 501,308.5C 502.252,311.014 502.752,313.68 502.5,316.5C 505.754,316.207 508.754,316.874 511.5,318.5 Z"/></g>
<g><path style="opacity:0.924" fill="#f4c74c" d="M 473.5,354.5 C 480.369,354.538 482.869,357.871 481,364.5C 477.333,368.5 473.667,368.5 470,364.5C 468.581,360.082 469.748,356.749 473.5,354.5 Z"/></g>
<g><path style="opacity:1" fill="#27559a" d="M 211.5,428.5 C 228.453,427.388 239.953,434.721 246,450.5C 249.074,469.386 241.574,481.553 223.5,487C 205.359,489.51 193.525,482.01 188,464.5C 186.453,446.239 194.286,434.239 211.5,428.5 Z"/></g>
<g><path style="opacity:1" fill="#28569b" d="M 382.5,428.5 C 400.013,427.329 411.513,434.996 417,451.5C 418.354,477.146 406.187,488.979 380.5,487C 363.781,481.076 356.614,469.243 359,451.5C 362.787,439.544 370.621,431.878 382.5,428.5 Z"/></g>
<g><path style="opacity:1" fill="#010204" d="M 210.5,441.5 C 228.692,439.851 236.192,447.851 233,465.5C 226.27,476.028 217.437,478.195 206.5,472C 200.014,465.02 198.847,457.186 203,448.5C 205.396,445.933 207.896,443.6 210.5,441.5 Z"/></g>
<g><path style="opacity:1" fill="#020306" d="M 381.5,441.5 C 399.638,439.799 407.138,447.799 404,465.5C 399.191,473.885 392.024,477.051 382.5,475C 369.789,468.102 367.289,458.602 375,446.5C 377.326,444.934 379.492,443.268 381.5,441.5 Z"/></g>
<g><path style="opacity:1" fill="#4e89d0" d="M 215.5,450.5 C 222.685,450.848 225.519,454.515 224,461.5C 218.833,467.092 214.167,466.759 210,460.5C 209.477,455.88 211.31,452.547 215.5,450.5 Z"/></g>
<g><path style="opacity:1" fill="#4f8bd3" d="M 384.5,451.5 C 392.163,450.042 395.663,453.042 395,460.5C 391.468,466.29 387.135,466.957 382,462.5C 379.592,458.034 380.425,454.367 384.5,451.5 Z"/></g>
</svg>